ply
format ascii 1.0
comment Created by CloudCompare v2.14.beta (Feb  3 2026)
comment Created 2026-05-09T17:08:03
obj_info Generated by CloudCompare!
element vertex 1448
property float x
property float y
property float z
property float rcs
property float snr
property float v
property float label
end_header
-7.602737 -26.217232 -10.604568 -8.559944 23.315643 0.000000 1.000000 
-32.404766 3.116234 -9.828924 -5.455017 26.306828 0.000000 1.000000 
11.869138 -33.861759 -12.559692 -0.470650 25.083769 0.000000 1.000000 
13.257390 -33.405437 -10.614510 -1.598053 22.258926 0.000000 1.000000 
-30.619106 -20.345303 -8.127565 -7.436668 22.020914 0.000000 1.000000 
-5.884681 -42.827160 -11.606036 5.490807 28.431139 0.000000 1.000000 
-20.927057 -41.661480 -10.855998 -0.941193 20.615568 0.000000 1.000000 
-47.045063 -5.747420 -12.591747 -4.938057 17.521687 0.000000 1.000000 
-5.279245 -49.195942 -8.464640 -0.909065 20.598696 0.000000 1.000000 
21.274864 -3.939925 -8.394976 -2.180321 35.686890 0.000000 1.000000 
8.808273 -26.832615 -10.190303 -3.505508 29.005302 0.000000 1.000000 
31.205683 7.142738 -9.571065 -0.339157 26.158398 0.000000 1.000000 
13.729335 -37.902378 -9.787425 -6.409096 22.061905 0.000000 1.000000 
12.994709 -38.268532 -11.601761 -1.615288 25.186872 0.000000 1.000000 
9.664523 -40.054260 -11.675835 1.271690 23.338654 0.000000 1.000000 
7.921994 -44.171936 -17.882343 0.429558 24.921223 0.000000 1.000000 
11.193485 -48.728817 -11.541427 -3.672470 19.047604 0.000000 1.000000 
57.520782 -31.997658 -14.111989 16.010712 28.458788 0.000000 1.000000 
69.035789 -11.105592 -10.688650 5.636208 21.295753 0.000000 1.000000 
70.265961 -11.386503 -7.829175 7.641295 21.365202 0.000000 1.000000 
56.107224 -63.856804 -20.861568 9.378517 17.097284 0.000000 1.000000 
92.076363 -11.483272 -14.367321 7.809822 18.711075 0.000000 1.000000 
102.585701 10.033458 -26.182314 8.571898 17.932398 0.000000 1.000000 
114.518616 -7.038352 -22.112036 13.865540 18.470644 0.000000 1.000000 
114.597404 -7.119545 -18.971012 11.920723 17.775614 0.000000 1.000000 
117.114655 -1.200979 -15.966266 9.111519 17.831827 0.000000 1.000000 
202.729721 4.714349 -11.456175 17.718079 13.320551 0.000000 1.000000 
13.504835 38.803314 -10.813525 -17.102242 17.380444 0.000000 1.000000 
6.377671 47.033237 -9.894238 -17.862915 16.478230 0.000000 1.000000 
7.919317 47.984886 -17.770823 -8.660454 20.586697 0.000000 1.000000 
7.073345 53.165344 -18.485113 -14.023192 13.622341 0.000000 1.000000 
-18.340410 54.203472 -21.236101 -8.391098 20.112398 0.000000 1.000000 
-22.307838 62.296093 -24.602236 -15.016312 9.981686 1.000000 1.000000 
26.927031 60.416866 -9.889661 -1.174004 19.189186 0.000000 1.000000 
-30.815849 60.020359 -24.106138 -5.928009 14.799994 0.000000 1.000000 
-13.213614 67.192795 -16.092281 -10.298050 14.035448 0.000000 1.000000 
22.299387 64.911194 -27.179127 -13.457184 9.502098 0.000000 1.000000 
-31.117903 63.353054 -19.662224 -9.747520 14.685219 0.000000 1.000000 
-2.245369 71.214256 -19.110344 -13.731461 17.883038 0.000000 1.000000 
-31.604086 67.289200 -26.869701 0.409470 20.254622 0.000000 1.000000 
-30.525791 68.288475 -13.065154 0.362549 21.297138 0.000000 1.000000 
-31.470377 68.385612 -25.872835 -3.082886 16.255657 0.000000 1.000000 
-33.234821 73.347572 -25.367079 -13.054314 11.467762 0.000000 1.000000 
-39.740772 73.921272 -17.190918 -5.220825 12.262146 0.000000 1.000000 
-32.676182 78.160583 -26.442732 -8.118317 13.438585 0.000000 1.000000 
-29.225033 80.584480 -24.332722 -7.837990 13.229469 0.000000 1.000000 
-28.833488 81.169868 -12.204413 -7.609703 12.441654 0.000000 1.000000 
-30.910875 81.762032 -14.100449 2.140984 18.736794 0.000000 1.000000 
27.858387 83.907402 -31.957897 -4.991638 15.561960 0.000000 1.000000 
-31.989519 84.140297 -11.648067 -9.373787 12.246391 0.000000 1.000000 
-36.935177 83.914246 -26.516722 -7.625557 10.130806 0.000000 1.000000 
-37.235180 84.228363 -37.038208 -8.650696 9.664124 0.000000 1.000000 
-14.455162 96.946236 -9.599429 -6.835831 11.297215 0.000000 1.000000 
-22.043070 96.332237 -14.079226 -10.340675 7.848885 0.000000 1.000000 
-31.697514 96.299591 -11.421673 -9.190430 8.211761 0.000000 1.000000 
-30.478493 97.401749 -14.184947 -8.033783 8.568432 0.000000 1.000000 
-32.544758 96.761269 -14.008511 -6.816116 8.959309 0.000000 1.000000 
-32.151031 97.002205 -16.659697 -7.371918 11.116821 0.000000 1.000000 
-33.003548 97.138756 -10.876571 -10.879036 8.591305 0.000000 1.000000 
-28.254406 108.800499 -17.580297 -11.628448 7.703445 0.000000 1.000000 
-42.536808 104.468491 -34.010727 -9.731194 7.603741 0.000000 1.000000 
-32.012169 108.842216 -45.894218 -10.876068 7.907604 0.000000 1.000000 
56.093163 100.493042 -19.042475 -8.992798 5.657043 0.000000 1.000000 
42.702854 111.882782 -35.506279 -4.366646 7.196777 0.000000 1.000000 
38.927986 114.303215 -28.317404 -7.384911 7.503643 0.000000 1.000000 
44.325882 118.059334 -29.554214 -8.321381 6.762875 0.000000 1.000000 
-32.809849 197.670502 -16.649502 -5.447327 3.661346 0.000000 1.000000 
-33.034710 198.206024 -14.727964 -2.592339 5.310303 0.000000 1.000000 
66.085999 11.289234 21.218781 5.258621 18.801279 0.000000 1.000000 
55.534290 -53.051109 20.741940 15.825531 26.196871 0.000000 1.000000 
55.403980 -53.411991 22.821329 14.061279 26.960489 0.000000 1.000000 
24.043619 -79.998062 35.202492 2.163826 18.833031 0.000000 1.000000 
113.849129 -10.268332 21.824974 10.708679 16.859907 0.000000 1.000000 
113.973473 -9.442902 21.917299 12.161232 17.723724 0.000000 1.000000 
56.294518 -103.400322 34.530724 12.849228 20.182276 0.000000 1.000000 
118.189880 11.635203 28.716303 11.998596 17.762020 0.000000 1.000000 
176.161804 64.789879 17.443748 33.917610 26.719210 0.000000 1.000000 
185.596634 63.960686 22.343868 23.420113 16.430096 0.000000 1.000000 
7.085515 59.981976 22.413078 -19.080208 10.866074 0.000000 1.000000 
17.052629 58.265324 24.352482 -18.757927 10.009281 0.000000 1.000000 
-25.172228 61.248066 25.701839 -13.639586 9.110321 0.000000 1.000000 
-32.798660 71.499504 21.135900 -9.886414 9.915733 0.000000 1.000000 
-35.051552 71.344841 30.440931 -11.549507 10.023209 0.000000 1.000000 
-33.173969 72.787209 20.570700 -7.119659 12.570320 0.000000 1.000000 
-35.948475 71.797859 28.340595 -11.660645 12.197311 1.000000 1.000000 
18.948612 79.218460 31.934601 -15.055862 9.576447 0.000000 1.000000 
-37.120159 73.084198 32.397728 -9.758263 10.584843 0.000000 1.000000 
-29.912495 78.481796 24.095970 -9.899246 11.847000 0.000000 1.000000 
-32.602764 77.792908 30.171026 -0.714996 19.652348 0.000000 1.000000 
-40.879230 75.689224 25.273024 -7.533562 11.425499 0.000000 1.000000 
28.885046 81.910553 24.167612 -7.890686 14.310907 0.000000 1.000000 
-31.077333 81.707710 32.121838 -1.606049 15.638208 0.000000 1.000000 
42.563431 77.563919 27.788126 -0.799995 15.091024 0.000000 1.000000 
-23.226080 91.141609 27.774532 -14.743584 7.648899 0.000000 1.000000 
-22.765593 91.528679 25.982548 -15.134552 6.323074 0.000000 1.000000 
-39.363670 85.960091 38.887871 -11.933685 5.822857 0.000000 1.000000 
-32.785656 95.850769 39.346626 -11.238632 8.417747 0.000000 1.000000 
-31.832699 96.191185 32.135212 -10.238533 6.210438 0.000000 1.000000 
-29.640421 98.301315 19.790724 -12.579178 7.443222 0.000000 1.000000 
-30.228823 98.478760 32.562420 -13.453812 6.224182 0.000000 1.000000 
-31.868074 98.458084 33.215744 -6.918365 10.135681 0.000000 1.000000 
52.147697 103.568092 20.496176 -5.720131 6.499607 0.000000 1.000000 
-23.288467 148.368866 29.798679 -7.763771 6.867252 0.000000 1.000000 
-26.488117 148.435577 25.747572 -3.969780 7.834850 1.000000 1.000000 
107.398132 136.001404 29.906939 5.293266 7.219212 0.000000 1.000000 
-71.919914 159.865234 23.446598 -0.950020 8.812271 0.000000 1.000000 
176.602844 64.338608 17.965651 17.847870 6.585251 0.000000 1.000000 
-10.181552 -28.696503 12.946844 -8.124199 23.070948 0.000000 1.000000 
-10.056626 21.996767 -7.689202 -9.612465 28.575722 0.000000 1.000000 
-15.955224 33.511944 14.382712 -9.496452 22.926163 0.000000 1.000000 
-18.702662 53.807392 14.116934 -15.422264 14.777950 0.000000 1.000000 
-13.261323 70.632797 -6.625635 -12.197807 13.677280 0.000000 1.000000 
10.436223 76.989265 -9.798639 -7.751183 16.448917 0.000000 1.000000 
-38.099125 73.493675 -8.291200 4.140015 19.493240 0.000000 1.000000 
-37.954590 73.686066 -8.633692 -1.366058 16.162325 0.000000 1.000000 
-23.987806 153.407776 -13.066261 -5.823257 6.817745 0.000000 1.000000 
-24.527040 166.176178 -13.368223 -0.314163 8.661629 0.000000 1.000000 
-25.269297 187.087646 -13.329894 -6.312653 3.871116 0.000000 1.000000 
-26.501152 189.225922 -14.016923 -1.378990 6.910496 0.000000 1.000000 
-1.120590 191.823029 -7.334856 0.384041 10.206257 0.000000 1.000000 
-0.921629 191.864532 -6.832912 3.204926 10.733643 0.000000 1.000000 
-1.697283 199.619171 -6.261115 -3.460182 5.560715 1.000000 1.000000 
-2.316534 199.705414 -6.543473 -4.170387 4.729900 1.000000 1.000000 
2.226497 -8.648165 0.091378 -21.668938 22.094051 1.000000 1.000000 
2.048423 12.800548 -0.101059 -35.920181 12.347382 1.000000 1.000000 
-0.851265 11.143749 -0.025234 -12.705750 32.333103 0.000000 0.000000 
0.051929 12.109597 -0.031789 -12.080092 36.687740 0.000000 0.000000 
0.104712 12.321989 -0.037718 -11.836121 38.145805 0.000000 0.000000 
-0.509734 12.377329 0.023510 -11.661095 37.177979 1.000000 0.000000 
-3.706187 18.519432 0.400120 9.232323 44.131210 0.000000 0.000000 
-3.845378 18.722609 0.304774 8.499832 41.465374 0.000000 0.000000 
-3.696695 18.919544 -0.141123 0.121689 35.478241 0.000000 0.000000 
-4.876887 20.939304 -0.635586 3.315331 39.220978 0.000000 0.000000 
-4.931296 20.929539 -0.763837 2.041222 36.497757 0.000000 0.000000 
0.213439 22.207113 -0.835469 2.277092 33.784290 1.000000 0.000000 
-5.062953 21.624542 -0.702465 0.628006 35.896561 1.000000 0.000000 
0.075342 22.545166 -0.881463 -3.538940 26.972647 0.000000 0.000000 
-0.023224 22.542500 -0.885979 -14.079193 16.502390 1.000000 0.000000 
0.288813 22.864952 -0.828428 19.519020 48.579861 0.000000 0.000000 
0.256934 22.980927 -0.847493 18.067238 47.514729 0.000000 0.000000 
0.043158 23.253525 -0.722128 -6.448235 26.527229 0.000000 0.000000 
0.084717 23.629717 -0.849888 -9.540154 24.105160 1.000000 0.000000 
-0.415675 -6.058064 -0.228022 -6.378868 45.153385 0.000000 0.000000 
-0.293128 -6.122373 -0.128220 -9.412781 44.893566 0.000000 0.000000 
0.190828 -6.211993 -0.297649 -1.836212 47.748680 0.000000 0.000000 
0.041765 -6.205536 -0.188107 -6.725304 44.667095 0.000000 0.000000 
0.304500 -6.293277 -0.282226 -5.223080 45.347527 0.000000 0.000000 
-20.360630 -0.911974 -0.996768 5.009926 40.420815 0.000000 0.000000 
-20.360859 -0.844373 -1.075102 3.652512 39.825100 0.000000 0.000000 
-20.367785 3.387393 6.592129 -8.793747 25.198774 0.000000 0.000000 
-21.042040 1.652359 8.350213 -9.417511 25.335602 0.000000 0.000000 
-18.705658 -11.389579 1.816325 2.822380 35.143970 0.000000 0.000000 
-18.798075 -11.317972 1.331441 -0.257286 32.622295 0.000000 0.000000 
-19.088339 -11.559386 2.077148 -6.755157 27.840611 0.000000 0.000000 
-19.261536 -11.356171 1.426416 -0.171211 32.970013 0.000000 0.000000 
-19.737623 -11.382003 1.782061 0.501259 33.571598 0.000000 0.000000 
-19.866333 -11.254386 1.194259 0.225616 33.185799 0.000000 0.000000 
-23.337681 -2.597287 7.154414 -9.186623 25.885296 0.000000 0.000000 
-18.438068 -15.450326 5.134797 -3.558823 31.792715 0.000000 0.000000 
-23.194937 5.155894 2.367527 -2.858513 27.320965 0.000000 0.000000 
-23.200123 5.316688 1.834571 -3.788071 27.764149 0.000000 0.000000 
-22.026850 -14.918712 1.340144 -6.393646 23.570026 0.000000 0.000000 
-27.751045 -0.837049 4.566648 -9.524551 24.269550 0.000000 0.000000 
-27.830626 -0.491907 1.552890 -7.487381 22.785110 0.000000 0.000000 
-29.826969 -1.658246 6.108082 -6.674522 25.776463 0.000000 0.000000 
-22.651794 -20.075783 -1.366233 -7.362579 24.453325 0.000000 0.000000 
-19.395927 -25.239784 2.098629 -3.405220 24.825525 0.000000 0.000000 
-20.544590 -24.702915 1.371428 3.115677 28.345837 0.000000 0.000000 
-19.766773 -25.773979 1.331801 -2.534332 24.004105 0.000000 0.000000 
-23.209242 -23.113407 0.444770 -2.112572 25.758369 0.000000 0.000000 
-23.506069 -25.083378 1.668724 -4.436134 22.895996 0.000000 0.000000 
-20.530115 -28.569057 1.821180 -0.922142 26.621159 0.000000 0.000000 
-21.196491 -28.276478 1.541563 1.380608 25.471857 0.000000 0.000000 
-35.123528 0.086939 2.369710 -0.203979 27.211521 0.000000 0.000000 
-35.267693 -6.061651 5.389987 -3.283661 25.446043 0.000000 0.000000 
-35.432610 -6.008490 4.639484 -2.250816 25.704203 0.000000 0.000000 
-36.952381 -2.689764 1.399957 0.522903 28.182116 0.000000 0.000000 
-26.934072 -28.730888 2.588735 -4.815346 19.995920 0.000000 0.000000 
-38.730377 -7.113744 0.267810 1.229462 25.234556 0.000000 0.000000 
-38.811642 -7.135511 -0.610502 -1.071411 22.906820 0.000000 0.000000 
-39.141357 9.458228 3.529660 -4.171959 22.200905 0.000000 0.000000 
-40.687576 1.455179 2.205867 5.487656 28.517153 0.000000 0.000000 
-40.803814 1.167277 2.901922 6.079414 30.141947 0.000000 0.000000 
-38.484882 -20.111595 2.165423 7.330696 29.135084 0.000000 0.000000 
-42.756115 -12.308026 2.964514 -2.092377 20.416391 0.000000 0.000000 
-22.118435 -22.956051 10.188449 -1.336746 28.955780 0.000000 0.000000 
-19.874498 -30.647335 0.440723 -3.744492 22.243080 0.000000 0.000000 
-20.344660 -30.630150 6.914798 -4.465683 21.824760 0.000000 0.000000 
-20.031868 -40.209633 -2.305355 -4.666824 17.748678 0.000000 0.000000 
-20.393730 -47.687828 6.728596 3.547211 21.469063 0.000000 0.000000 
-21.899548 -48.300617 4.397172 0.798019 19.595697 0.000000 0.000000 
-12.589394 -56.553280 1.846328 10.093933 26.814692 1.000000 0.000000 
-12.369596 -57.055492 2.038981 13.677017 29.319725 1.000000 0.000000 
-11.848049 -59.323666 2.986898 -0.439026 16.262516 1.000000 0.000000 
-11.648200 -59.753441 2.372617 2.702147 18.842327 1.000000 0.000000 
-11.667653 -60.334339 2.280247 2.602180 18.292257 1.000000 0.000000 
-12.025630 -60.473518 1.975874 6.952225 22.031792 1.000000 0.000000 
-11.905142 -60.905827 1.831283 7.631691 23.723658 1.000000 0.000000 
-11.771797 -61.018040 2.181609 4.353081 20.053370 1.000000 0.000000 
-12.678603 -61.196434 0.131673 3.212845 19.299753 1.000000 0.000000 
-12.673840 -61.205837 0.431714 3.616035 19.219505 1.000000 0.000000 
-12.409159 -61.561810 -0.377723 1.167511 16.128136 1.000000 0.000000 
-11.724683 -62.200764 2.547197 1.484947 16.385416 1.000000 0.000000 
-12.578864 -65.453316 1.477510 5.291641 19.176662 1.000000 0.000000 
-12.060098 -65.888557 1.792873 5.317680 19.154451 1.000000 0.000000 
-12.088674 -65.966484 4.105286 4.281035 17.364803 1.000000 0.000000 
-12.441498 -66.275665 1.527876 5.879578 20.305687 1.000000 0.000000 
-14.595144 -65.978508 2.763794 4.216492 19.354183 1.000000 0.000000 
7.812235 -15.210290 3.907586 -7.113060 27.222404 0.000000 0.000000 
7.898069 -24.421478 2.324319 -7.036606 23.118818 0.000000 0.000000 
7.733378 -26.200947 1.036615 -8.013390 21.229755 0.000000 0.000000 
8.655685 -26.699425 3.141639 -1.086243 26.216911 0.000000 0.000000 
8.508412 -26.790932 1.590188 1.510887 28.679989 0.000000 0.000000 
8.448340 -27.000332 0.482377 -4.580963 24.356514 0.000000 0.000000 
7.529389 -27.968910 -5.902495 -4.228165 24.919548 0.000000 0.000000 
7.744575 -38.869549 6.835317 -5.886375 20.555672 0.000000 0.000000 
8.764162 -38.693192 9.527285 -0.853836 24.443846 0.000000 0.000000 
9.174620 -40.004875 2.072433 -2.050529 22.396013 0.000000 0.000000 
8.887780 -41.214573 -1.012702 1.462418 23.391312 0.000000 0.000000 
10.974255 -40.703979 0.361729 4.512589 24.994854 0.000000 0.000000 
7.186328 -5.245215 -0.043351 3.467171 46.715107 0.000000 0.000000 
7.288643 -5.353831 -0.094840 4.960335 50.027679 0.000000 0.000000 
8.736363 -3.918706 -0.788055 -0.210228 40.184685 0.000000 0.000000 
7.244932 -8.417793 -4.171943 0.698822 40.726967 0.000000 0.000000 
7.309049 -8.499020 -1.491438 6.968529 47.226631 0.000000 0.000000 
7.888364 -16.625626 -0.744890 -12.796921 24.868893 0.000000 0.000000 
7.974902 -20.924522 6.856985 1.751183 35.317085 0.000000 0.000000 
8.071675 -24.620808 7.488939 -2.274338 30.678047 0.000000 0.000000 
7.499872 -32.991241 0.538391 -2.847984 23.868895 0.000000 0.000000 
7.387154 -34.206661 -0.376213 2.298042 28.640306 0.000000 0.000000 
7.246416 -34.285400 -0.600303 1.284584 27.385612 0.000000 0.000000 
7.194219 -35.145935 0.104842 4.137863 29.307499 0.000000 0.000000 
7.213970 -35.202427 0.037156 1.754166 30.465000 0.000000 0.000000 
6.436457 -36.616615 -0.360376 0.974213 24.813725 0.000000 0.000000 
10.018411 -39.005695 3.732331 -6.828156 22.090908 0.000000 0.000000 
8.407665 -40.247360 9.790133 2.684586 25.483356 0.000000 0.000000 
9.643696 -40.429790 -1.172427 -2.027367 22.779644 0.000000 0.000000 
10.526451 -54.928822 4.059453 12.163185 33.279415 0.000000 0.000000 
21.799974 -37.135319 2.391529 4.676262 24.847929 0.000000 0.000000 
20.406206 -37.965168 1.347536 4.946609 24.297197 0.000000 0.000000 
23.996908 -43.272530 2.779588 3.183327 18.932682 0.000000 0.000000 
22.984360 -57.048458 -1.983240 1.355247 17.609741 0.000000 0.000000 
16.661037 -7.046649 1.206102 -7.055138 29.406069 0.000000 0.000000 
16.633186 -7.663063 1.439094 -7.120750 28.504078 0.000000 0.000000 
17.973932 -9.794938 5.585010 -2.015434 31.785400 0.000000 0.000000 
21.224268 -2.606415 -2.003575 -7.611290 27.649405 0.000000 0.000000 
21.459848 -3.068508 5.840044 -4.923729 31.060789 0.000000 0.000000 
21.582981 -1.476237 -0.639587 0.798943 35.343014 0.000000 0.000000 
22.683598 -10.809431 -1.552631 -1.223961 30.707264 0.000000 0.000000 
22.626806 -11.051402 -2.012149 -1.612343 29.466427 0.000000 0.000000 
23.704199 -11.353619 -0.456796 -5.457558 23.724878 0.000000 0.000000 
21.692326 -15.816631 -0.168376 -5.031990 26.743759 0.000000 0.000000 
24.755159 -15.063889 1.577787 -0.222847 28.231974 0.000000 0.000000 
25.982241 -14.680514 0.407533 -0.375160 26.942806 0.000000 0.000000 
26.825180 -15.467118 -0.857129 -1.563011 28.123663 0.000000 0.000000 
26.906813 -15.379354 0.026083 -4.639282 26.261921 0.000000 0.000000 
23.574482 -20.816578 3.156614 -2.457672 26.266851 0.000000 0.000000 
23.553905 -21.606392 0.803111 4.411308 29.630335 0.000000 0.000000 
23.647215 -21.619408 0.881081 7.445137 33.353470 0.000000 0.000000 
24.868326 -23.101742 1.211521 -4.277618 23.251701 0.000000 0.000000 
24.357403 -51.458431 1.571287 0.384148 21.612980 0.000000 0.000000 
24.539217 -51.548111 1.971766 1.844597 22.349491 0.000000 0.000000 
27.458561 0.481229 1.089372 1.776535 32.574783 0.000000 0.000000 
27.586126 0.117104 0.545458 4.664703 36.431381 0.000000 0.000000 
38.813877 -0.618498 0.003326 10.526695 34.936920 0.000000 0.000000 
38.867981 -0.603873 0.285358 10.093369 34.454346 0.000000 0.000000 
41.677330 -0.791605 -1.017650 9.965736 32.715630 0.000000 0.000000 
34.455959 8.823103 -1.437209 15.555870 37.232033 0.000000 0.000000 
34.607903 8.680572 -1.406146 15.414490 35.625271 0.000000 0.000000 
38.596268 7.890828 -0.746487 6.478401 27.083611 0.000000 0.000000 
38.612865 7.934165 -1.197393 10.293266 30.106161 0.000000 0.000000 
38.857780 7.637857 10.390647 4.872238 29.793648 0.000000 0.000000 
39.552498 7.569304 -2.028339 -4.581711 21.783369 0.000000 0.000000 
42.613434 8.828059 -1.280783 17.310280 35.009018 0.000000 0.000000 
42.672649 8.757243 -1.276906 15.820930 34.109722 0.000000 0.000000 
44.501900 9.226025 -0.376707 6.483063 26.827152 0.000000 0.000000 
43.974556 14.393338 -2.502260 -0.800659 19.971840 0.000000 0.000000 
46.490398 17.062359 1.131158 15.598709 32.839893 0.000000 0.000000 
46.662403 16.712528 0.966605 14.087227 31.191185 0.000000 0.000000 
45.267139 15.740283 6.621303 9.877899 12.775311 0.000000 0.000000 
15.345004 30.924280 0.815425 -2.960953 28.669472 0.000000 0.000000 
-6.812274 -6.461962 -0.137070 -11.355690 37.047279 0.000000 0.000000 
-6.297624 -10.505278 0.315188 -9.405296 31.885731 0.000000 0.000000 
-6.832302 -11.075450 0.090005 -12.061638 32.417862 0.000000 0.000000 
-6.727360 -11.219907 0.865025 -11.820892 28.757107 0.000000 0.000000 
-6.623822 -11.726575 0.111938 -14.110373 27.277060 0.000000 0.000000 
-6.588887 -11.892961 0.229519 -12.975418 28.458218 0.000000 0.000000 
-6.700100 -12.016462 0.198382 -14.016974 26.353197 0.000000 0.000000 
-6.737142 -12.044155 0.218953 -12.653358 29.363644 0.000000 0.000000 
-6.445596 -12.682450 -0.569555 -9.079147 31.563272 0.000000 0.000000 
-6.368221 -12.730734 0.396942 -6.524048 32.476307 0.000000 0.000000 
-6.584322 -12.889751 0.618684 -6.345978 33.763363 0.000000 0.000000 
-6.649240 -12.991834 0.884964 -8.994492 30.653954 0.000000 0.000000 
-6.055726 -13.343802 0.209634 -12.382812 29.909132 0.000000 0.000000 
-7.295616 -12.761308 0.691502 -11.855911 29.112310 0.000000 0.000000 
-6.271547 -13.533341 0.014637 -11.599579 27.977259 0.000000 0.000000 
-6.365294 -13.636230 -0.602490 -13.866226 28.760214 0.000000 0.000000 
-6.552347 -13.668098 -0.791795 -13.930275 28.215260 0.000000 0.000000 
-6.789458 -13.826420 -1.011349 -15.014282 24.810272 0.000000 0.000000 
-6.469934 -14.226080 -0.060745 -15.027397 24.417625 0.000000 0.000000 
-6.384320 -14.997271 0.282612 -9.776398 26.404381 0.000000 0.000000 
-6.360845 -15.042342 0.351783 -6.911407 28.527222 0.000000 0.000000 
-6.344762 -15.427407 0.753467 -15.671188 26.859522 0.000000 0.000000 
-6.350424 -15.542175 0.467465 -6.490364 29.923380 0.000000 0.000000 
-6.785135 -15.687541 0.473135 -8.605644 26.402275 0.000000 0.000000 
-6.764386 -15.703818 0.967468 -5.078842 31.183147 0.000000 0.000000 
-6.819755 -15.700107 0.931397 -7.798843 27.382862 0.000000 0.000000 
-6.336133 -16.095720 0.692385 -6.575661 28.054012 0.000000 0.000000 
-6.387859 -16.282606 0.433723 -3.302673 31.489485 0.000000 0.000000 
-6.471667 -16.252357 0.641260 -8.221146 26.780418 0.000000 0.000000 
-6.060101 -16.899353 -0.566572 -11.688025 23.674152 0.000000 0.000000 
-6.614992 -16.971836 1.585442 -13.122093 21.682720 0.000000 0.000000 
-6.740378 -17.054893 -0.147200 -11.346359 23.069437 0.000000 0.000000 
-6.774317 -17.128281 -0.396803 -9.599579 24.686600 0.000000 0.000000 
-6.351317 -18.904282 -0.456712 -4.430244 30.549534 0.000000 0.000000 
-6.349634 -19.012218 -0.364603 -4.016350 30.688766 0.000000 0.000000 
-6.504971 -21.024479 -0.423960 -5.867043 27.726379 0.000000 0.000000 
-6.094822 -24.488266 0.193871 -10.241676 23.300230 0.000000 0.000000 
-6.085052 -24.493504 -0.259880 -6.266747 27.733669 0.000000 0.000000 
-6.562032 -24.552059 -0.444846 -10.103958 22.857861 0.000000 0.000000 
-6.444986 -30.583420 1.699039 -3.538811 23.920437 0.000000 0.000000 
-6.082513 -52.282852 0.527269 4.367157 22.747719 0.000000 0.000000 
-6.589161 -55.119347 1.768265 4.496840 23.777182 0.000000 0.000000 
-6.940924 -55.138748 1.896206 4.019501 21.911896 0.000000 0.000000 
-6.089741 -61.299854 1.982061 2.506821 20.239925 0.000000 0.000000 
-6.105292 -13.082607 0.574754 -6.022301 31.809669 0.000000 0.000000 
-6.927127 -12.738774 1.001618 0.619675 31.400911 0.000000 0.000000 
-6.734413 -13.198811 2.414540 -5.655380 27.587540 0.000000 0.000000 
-6.619828 -13.532564 0.285236 -6.556503 28.586296 0.000000 0.000000 
-6.161138 -15.029382 -0.779325 -5.961205 30.634954 0.000000 0.000000 
-5.205532 -15.702795 0.943632 -9.960899 27.699379 0.000000 0.000000 
-6.501028 -15.214011 -0.583775 -10.298615 28.134975 0.000000 0.000000 
-4.869894 -16.088100 -2.521043 -11.914551 28.227562 0.000000 0.000000 
-6.278367 -16.793636 -0.928622 -7.466751 28.467768 0.000000 0.000000 
-6.685048 -16.890968 -0.365442 -4.832474 29.321331 0.000000 0.000000 
-6.358627 -17.069828 0.090700 -2.335167 30.869396 0.000000 0.000000 
-5.283239 -18.400372 -0.324699 -8.398384 24.923847 0.000000 0.000000 
-7.769176 -18.147625 0.941776 -3.368225 28.754868 0.000000 0.000000 
-6.693361 -19.917957 -0.042176 -3.426109 29.780409 0.000000 0.000000 
-5.772676 -21.650047 0.814084 -1.741539 28.591616 0.000000 0.000000 
2.597456 -7.028717 0.336268 -7.997383 41.130390 0.000000 0.000000 
2.636216 -7.624017 -0.182607 -2.385674 42.320004 0.000000 0.000000 
2.646565 -7.642154 -0.216995 -0.398247 42.847809 0.000000 0.000000 
2.348247 -8.098345 0.118262 -3.318489 42.707741 0.000000 0.000000 
2.737645 -8.101099 0.227713 -4.660309 42.016621 0.000000 0.000000 
2.461173 -8.923666 -0.030981 -2.271690 40.693214 0.000000 0.000000 
2.499484 -8.954020 -0.045643 -1.912399 41.527267 0.000000 0.000000 
2.250273 -9.276417 0.134723 -9.484894 31.847565 0.000000 0.000000 
2.421904 -9.473032 0.158195 0.542648 41.876495 0.000000 0.000000 
2.418659 -9.509126 0.138367 3.599022 45.840992 0.000000 0.000000 
2.245259 -10.131773 -0.145141 -7.234627 35.984764 0.000000 0.000000 
2.404059 -10.251940 -0.163172 -4.773727 38.645634 0.000000 0.000000 
2.439727 -10.240524 -0.158503 -4.334450 39.740345 0.000000 0.000000 
2.221153 -10.537560 -0.203104 -5.120697 35.763237 0.000000 0.000000 
2.279219 -10.537688 -0.185718 -1.796570 39.630814 0.000000 0.000000 
2.062167 -10.822537 -0.516602 -4.629494 36.892487 0.000000 0.000000 
2.161403 -10.855309 -0.392571 -3.453552 37.268719 0.000000 0.000000 
2.177053 -10.925928 -0.427229 -7.313347 34.259098 0.000000 0.000000 
2.240945 -11.039253 -0.169962 -7.072716 36.127296 0.000000 0.000000 
2.345993 -0.967118 0.034925 -13.750782 50.667206 0.000000 0.000000 
2.493003 -0.974875 0.034775 -13.587265 55.737881 0.000000 0.000000 
2.414088 -2.020486 0.033622 -24.661827 33.538857 0.000000 0.000000 
2.442900 -2.075012 0.006095 -27.106991 40.734360 0.000000 0.000000 
2.418589 -2.502268 0.138684 -23.691681 40.931778 0.000000 0.000000 
2.462739 -2.597188 0.053834 -22.220604 40.861969 0.000000 0.000000 
2.401752 -2.855980 -0.025688 -19.869717 43.695889 0.000000 0.000000 
2.406420 -3.123926 -0.097873 -28.522240 38.808617 0.000000 0.000000 
2.453876 -3.535306 0.087653 -14.312233 46.291550 0.000000 0.000000 
2.483412 -3.515800 0.109037 -13.375797 46.364372 0.000000 0.000000 
2.513933 -3.614202 0.075086 -9.836952 48.249687 0.000000 0.000000 
2.436180 -3.954262 0.036862 -18.999268 41.993637 0.000000 0.000000 
2.452604 -4.139044 0.030643 -14.892338 42.479454 0.000000 0.000000 
2.473254 -4.186129 0.055421 -15.140011 43.696739 0.000000 0.000000 
2.432922 -4.471721 -0.081620 -17.797226 40.040558 0.000000 0.000000 
2.454748 -4.544362 -0.082149 -21.009861 40.260693 0.000000 0.000000 
2.467664 -4.602737 -0.074833 -20.140495 39.630180 0.000000 0.000000 
2.473212 -4.734744 -0.057537 -19.423340 35.926861 0.000000 0.000000 
2.452447 -5.061949 0.074931 -9.618855 42.934509 0.000000 0.000000 
2.475757 -5.157015 0.064970 -11.467247 42.720558 0.000000 0.000000 
2.405126 -5.338393 -0.159952 -12.199680 40.703350 0.000000 0.000000 
2.448475 -5.499460 0.002580 -1.710709 45.914921 0.000000 0.000000 
2.446387 -5.502035 0.035466 0.746281 53.971230 0.000000 0.000000 
2.433845 -5.508157 0.013471 -1.840057 45.275997 0.000000 0.000000 
2.472491 -6.251129 0.077179 -9.114414 42.203575 0.000000 0.000000 
2.482881 -6.359324 0.033537 -6.053207 44.568718 0.000000 0.000000 
2.483826 -6.469791 -0.130455 -7.592770 44.249805 0.000000 0.000000 
2.473297 -6.746587 0.054077 -6.929817 44.092484 0.000000 0.000000 
2.474714 -6.793744 -0.027835 -6.296051 41.906944 0.000000 0.000000 
2.418370 -7.059819 -0.124122 -8.982651 44.367275 0.000000 0.000000 
2.432349 -7.229882 -0.085776 -2.611282 44.124317 0.000000 0.000000 
2.436530 -7.231908 0.030719 -4.128201 43.745163 0.000000 0.000000 
2.284791 -7.532987 0.142669 -7.708466 38.437057 0.000000 0.000000 
2.364928 -7.515367 0.071819 -9.986252 38.742977 0.000000 0.000000 
2.382546 -7.658187 0.065856 -7.550095 38.832619 0.000000 0.000000 
2.313833 -7.929329 0.104051 -3.895332 40.888271 0.000000 0.000000 
2.272471 -8.233110 -0.198913 -10.345474 40.952141 0.000000 0.000000 
2.414392 -8.424599 0.163525 -8.581512 37.782036 0.000000 0.000000 
2.461753 -8.465359 0.351928 -10.566429 32.259727 0.000000 0.000000 
2.288355 -8.752918 0.022398 -1.906525 43.578049 0.000000 0.000000 
2.254010 -8.956097 0.003993 4.873833 45.655445 0.000000 0.000000 
2.244087 -8.959558 -0.018974 3.252792 46.754555 0.000000 0.000000 
2.184080 -9.420215 -0.066487 -1.775009 42.297215 0.000000 0.000000 
2.215958 -9.471952 0.053450 -5.056007 39.991592 0.000000 0.000000 
2.159117 -9.689947 -0.229028 -3.318825 38.814384 0.000000 0.000000 
2.153454 -9.803246 -0.327036 -4.375481 38.043800 0.000000 0.000000 
2.195309 -9.953282 -0.181920 -3.919777 40.018318 0.000000 0.000000 
2.304947 -10.120373 -0.274860 -2.849449 38.784279 0.000000 0.000000 
2.238564 -10.218948 0.279642 -2.504135 39.982559 0.000000 0.000000 
2.219748 -10.364068 0.113180 -4.094238 38.423637 0.000000 0.000000 
2.229366 -10.602258 -0.099299 -1.190048 41.392448 0.000000 0.000000 
2.276605 -10.615799 0.023828 -2.534546 40.030945 0.000000 0.000000 
2.193445 -11.049795 -0.277201 1.355774 43.871399 0.000000 0.000000 
2.147192 -11.111095 -0.248286 1.845161 43.089272 0.000000 0.000000 
2.124483 -11.602669 0.315914 -4.883545 38.167107 0.000000 0.000000 
2.284148 4.787650 -0.006082 -28.515209 23.296143 0.000000 0.000000 
2.415647 4.820138 -0.029225 -27.706585 25.285913 0.000000 0.000000 
2.504772 5.399360 -0.093097 -38.266304 18.534328 0.000000 0.000000 
2.339083 5.994085 -0.077106 -41.825840 16.167513 0.000000 0.000000 
2.326736 6.486995 -0.053646 -38.548725 18.578417 0.000000 0.000000 
2.292145 6.959378 0.037167 -10.928351 43.504326 0.000000 0.000000 
2.319099 6.984904 0.041295 -11.252411 44.614082 0.000000 0.000000 
2.385217 7.450316 -0.081311 -26.796501 29.953403 0.000000 0.000000 
2.291663 7.629302 -0.076483 -30.987938 26.796280 0.000000 0.000000 
2.288998 7.909687 -0.037646 -21.307716 32.656265 0.000000 0.000000 
2.372615 7.974927 -0.029668 -21.962852 34.655212 0.000000 0.000000 
2.410821 8.409843 -0.020198 -24.853249 28.179483 0.000000 0.000000 
2.275086 8.585744 -0.139405 -37.780376 22.391804 0.000000 0.000000 
2.268963 8.954725 0.017810 -8.475006 41.253700 0.000000 0.000000 
2.302130 9.001015 0.021646 -6.638893 42.013760 0.000000 0.000000 
2.326454 9.742305 -0.095589 -22.759026 24.576788 0.000000 0.000000 
-6.014544 -1.063776 -0.557911 -0.214966 50.494801 0.000000 0.000000 
-6.017280 -1.025706 -0.589260 4.967216 55.184132 0.000000 0.000000 
-6.069426 -1.030383 -0.608302 7.098457 57.925114 0.000000 0.000000 
-6.824450 0.021303 0.093850 1.354401 49.669182 0.000000 0.000000 
-6.938215 0.021121 0.143623 6.053501 54.929909 0.000000 0.000000 
-6.250006 -9.634109 4.372798 -11.359756 31.813412 0.000000 0.000000 
-6.245776 -10.734842 -2.728960 -12.130669 31.644585 0.000000 0.000000 
-6.815543 -13.866167 -1.076902 -15.442018 25.630287 0.000000 0.000000 
-6.358479 -16.730711 -2.166459 -10.021988 24.396931 0.000000 0.000000 
-18.257818 -2.022065 -0.502646 3.100449 42.421410 0.000000 0.000000 
-18.222645 -2.733232 0.058185 3.786224 41.500656 0.000000 0.000000 
-18.412161 -2.521977 -0.294567 3.266396 39.097359 0.000000 0.000000 
-18.682323 -2.071506 -0.313141 7.203650 43.959991 0.000000 0.000000 
-18.682377 -2.087731 -0.344274 7.531616 45.235867 0.000000 0.000000 
-18.739574 -2.746045 -1.776870 -12.984427 27.816273 0.000000 0.000000 
3.562838 -18.927341 0.388269 -11.414093 27.246801 0.000000 1.000000 
-6.677015 -18.686249 -1.403664 -9.507523 27.588543 0.000000 0.000000 
-19.261227 -5.790250 -3.767548 -15.845566 25.927151 0.000000 1.000000 
-19.316093 -5.817476 -3.630189 -12.109978 26.082165 0.000000 1.000000 
-19.462538 -10.985365 0.404240 -2.058754 29.899654 0.000000 0.000000 
-18.323296 -14.286480 -0.681098 16.081505 45.607586 0.000000 0.000000 
-18.409769 -14.331587 -0.769790 13.637718 44.203125 0.000000 0.000000 
-18.703476 -14.352178 -1.091617 -2.613777 32.051662 0.000000 0.000000 
-18.619141 -14.473117 -1.044841 1.602127 33.728592 0.000000 0.000000 
-23.677004 8.916975 -7.698116 -8.217735 23.150436 0.000000 1.000000 
-26.421179 -2.972781 -1.834455 -3.522522 29.857155 0.000000 0.000000 
-26.572565 -3.695625 11.480394 -10.093674 22.098827 0.000000 0.000000 
12.767427 -27.653862 -0.518476 -0.693230 27.347363 0.000000 0.000000 
-19.262518 -25.328697 -4.729395 -0.883537 25.710810 0.000000 0.000000 
12.952032 -28.936512 0.602316 0.172722 28.340942 0.000000 0.000000 
-20.999716 -25.067150 -5.375487 0.924149 27.609962 0.000000 0.000000 
-30.364471 9.902150 -6.985982 -6.780594 21.944294 0.000000 1.000000 
-30.052374 -13.830945 -4.932954 0.989845 26.065504 0.000000 1.000000 
12.148385 -31.103386 -1.660939 -3.932449 23.628595 0.000000 0.000000 
12.978975 -32.893158 -2.071529 -2.525513 24.287773 0.000000 0.000000 
-2.000407 -37.417465 8.896072 2.477066 29.985865 0.000000 1.000000 
12.172575 -39.835293 4.314528 1.528008 23.008726 0.000000 0.000000 
-5.827591 -49.039173 6.792240 4.747795 25.624302 0.000000 0.000000 
28.410313 -46.261539 1.480680 5.851578 18.166340 0.000000 0.000000 
-6.390852 -61.320354 -3.547271 3.740013 19.121670 0.000000 1.000000 
-7.072715 -67.374168 1.217618 0.925819 15.596792 0.000000 0.000000 
-89.891678 -57.515686 10.279855 8.543930 13.695850 0.000000 0.000000 
-106.905518 -3.843804 5.284903 7.711037 16.336468 0.000000 0.000000 
-107.010719 -3.450152 7.075127 10.322617 19.214104 0.000000 0.000000 
-107.278191 -1.237697 4.523431 14.836800 22.812447 0.000000 0.000000 
-107.285133 -1.897445 7.203581 15.020638 21.652779 0.000000 0.000000 
-107.415024 -5.358166 5.037074 9.635712 19.867422 0.000000 0.000000 
-107.498718 -5.694646 4.787970 10.438255 19.943579 0.000000 0.000000 
-107.440750 -8.773462 5.146969 8.310211 16.143085 0.000000 0.000000 
-115.478676 -1.236267 2.986354 11.445793 19.327141 0.000000 0.000000 
-115.466232 -2.923905 5.916398 8.958862 15.594234 0.000000 0.000000 
59.854733 -101.185516 4.823862 17.003075 17.824997 0.000000 0.000000 
53.603653 -104.820000 5.644432 16.372719 19.832148 0.000000 0.000000 
59.295891 -101.764008 4.571484 15.260124 15.874260 0.000000 0.000000 
67.673660 -107.084145 6.454350 20.582001 19.024351 0.000000 0.000000 
58.952709 -148.218658 5.581169 18.928093 17.796370 0.000000 0.000000 
11.941290 -3.158061 -0.025163 9.052940 48.305779 0.000000 0.000000 
11.933221 -3.204934 -0.053378 7.322746 45.065720 0.000000 0.000000 
12.371105 -3.080797 -3.289387 -7.185760 34.002548 1.000000 1.000000 
13.904757 -2.794435 0.612306 1.693451 40.777573 0.000000 0.000000 
14.046816 -2.769712 0.800951 -1.456345 36.246101 0.000000 0.000000 
15.851559 -0.908755 -0.612792 1.740715 39.122601 0.000000 0.000000 
15.900865 -0.907086 -0.605627 -0.937706 36.797787 0.000000 0.000000 
-6.912598 -14.625386 -1.511165 -1.362900 30.895977 0.000000 0.000000 
-6.067842 -15.712897 -2.485555 -8.820961 27.433983 0.000000 0.000000 
17.045843 0.410154 -0.666926 8.173012 44.125107 0.000000 0.000000 
17.161425 0.399461 -0.759672 4.933867 42.162758 0.000000 0.000000 
17.160614 0.453712 -0.647372 6.017303 42.409096 0.000000 0.000000 
-6.811064 -16.879053 -1.384906 -7.174454 27.863537 0.000000 0.000000 
-7.416498 -17.832878 -0.181544 -11.427032 24.015265 0.000000 0.000000 
16.983196 8.595680 0.333660 10.008133 39.135277 0.000000 0.000000 
17.028044 8.727856 0.475762 9.866135 38.770584 0.000000 0.000000 
-7.045363 -18.627453 -2.277879 -8.725006 25.964493 0.000000 0.000000 
-7.555772 -18.847763 -3.196365 -11.171356 28.873730 0.000000 0.000000 
20.731251 0.874476 -0.138504 -1.391937 33.240128 0.000000 1.000000 
18.515173 8.472651 -0.801841 3.623062 36.029755 0.000000 0.000000 
18.567598 9.756940 -0.144145 7.194031 41.631321 0.000000 0.000000 
-7.142080 -21.509937 -4.335365 -3.115440 29.072020 0.000000 1.000000 
4.298615 -23.302353 -4.181944 -11.908072 24.181385 0.000000 1.000000 
22.080309 9.216022 0.399042 6.883675 38.960567 0.000000 0.000000 
22.026026 9.568645 0.311222 5.147423 36.879440 0.000000 0.000000 
14.352813 -20.858170 1.476335 -3.916695 27.480122 0.000000 1.000000 
23.301018 9.833923 -4.613994 -2.166168 29.413212 0.000000 0.000000 
26.312038 8.980940 -0.192645 13.580673 38.334015 0.000000 0.000000 
26.457062 8.882273 -0.390858 11.399796 36.825130 0.000000 0.000000 
27.002436 7.655689 -4.288954 5.080475 30.613865 0.000000 0.000000 
28.628239 8.531794 -0.549713 14.312813 37.263435 0.000000 0.000000 
28.568659 8.754318 -0.162290 16.615807 39.266258 0.000000 0.000000 
28.808561 11.416389 0.040225 1.755165 28.811451 0.000000 0.000000 
28.877779 11.357798 -8.972771 3.666412 30.431730 0.000000 1.000000 
30.477026 8.210379 0.519922 8.407089 32.234642 0.000000 0.000000 
30.419214 8.398404 0.210506 9.789574 33.783890 0.000000 0.000000 
31.165627 7.314713 1.538434 -2.073647 24.139317 0.000000 0.000000 
32.575535 1.443792 1.497851 13.029907 38.931408 0.000000 0.000000 
32.691902 1.299372 1.103886 13.077019 40.452843 0.000000 0.000000 
32.385132 8.987453 -0.730719 17.157806 36.763271 0.000000 0.000000 
32.284988 9.313030 -0.704757 17.352013 38.913368 0.000000 0.000000 
32.383675 9.176854 -0.657021 20.288589 42.266727 0.000000 0.000000 
32.293446 -12.338151 4.389924 0.728485 25.308170 0.000000 1.000000 
29.829287 16.059631 13.944363 1.728561 26.829437 0.000000 1.000000 
34.209183 -8.534105 2.979379 -4.708183 22.717129 0.000000 0.000000 
34.138206 -9.044633 0.949710 -0.960640 24.250896 0.000000 0.000000 
13.247917 -33.447754 -5.983823 -0.786728 26.129778 0.000000 1.000000 
41.677040 -0.757852 14.437987 14.301537 36.053841 0.000000 0.000000 
39.401493 14.890417 0.238137 -4.654510 21.214211 0.000000 0.000000 
43.109226 -0.521806 1.317608 7.551140 30.331169 0.000000 0.000000 
43.265171 -0.450956 1.925597 7.185066 28.774220 0.000000 0.000000 
35.315708 -26.766590 -2.753874 -5.433220 19.621536 0.000000 1.000000 
43.597435 -9.811749 9.301852 -2.845840 22.781422 0.000000 1.000000 
43.574703 -10.160180 9.038287 0.800217 23.984093 0.000000 1.000000 
6.459544 -44.823517 8.069368 -0.653587 22.812223 0.000000 0.000000 
46.607090 7.928646 -2.378018 18.682396 33.672764 0.000000 0.000000 
46.642754 8.290091 -4.122181 19.680763 35.204205 0.000000 0.000000 
47.570030 7.037136 -1.677619 3.229645 25.571825 0.000000 0.000000 
50.258873 10.337912 -0.601532 8.954712 27.708933 0.000000 0.000000 
50.338402 9.983904 -0.784877 12.831573 32.629463 0.000000 0.000000 
50.337486 14.655935 -0.664438 2.687134 18.643557 0.000000 0.000000 
50.257938 14.959566 11.596886 2.137505 19.609167 0.000000 0.000000 
31.178860 -43.623405 4.530112 -0.311577 19.252560 0.000000 1.000000 
52.644463 8.628086 0.055225 13.290672 32.798210 0.000000 0.000000 
52.547680 9.141596 0.132615 16.361656 32.475639 0.000000 0.000000 
52.541393 9.437531 0.309185 18.742119 32.730007 0.000000 0.000000 
52.679535 8.729967 0.017449 15.968033 33.901123 0.000000 0.000000 
53.351803 10.731629 -0.282074 1.455544 19.258961 0.000000 0.000000 
53.719425 9.752405 -1.201974 1.119759 19.472258 0.000000 0.000000 
54.906261 7.118997 -0.272868 22.538857 37.924637 0.000000 0.000000 
54.989899 6.950317 -0.808992 19.923889 34.315132 0.000000 0.000000 
55.963806 9.189399 -1.436182 4.656197 20.776512 0.000000 0.000000 
56.906422 6.471294 -2.270316 20.066147 35.383614 0.000000 0.000000 
56.861732 6.875163 -1.833143 15.273720 29.380993 0.000000 0.000000 
56.779152 9.168281 0.136994 14.583763 27.733822 0.000000 0.000000 
56.749111 9.500104 2.519387 11.876221 26.484232 0.000000 0.000000 
58.050385 0.733215 0.069172 10.687279 29.040134 0.000000 1.000000 
58.031715 1.326958 1.428935 11.683167 28.532223 0.000000 1.000000 
56.263065 14.343007 10.360983 4.945084 19.452511 0.000000 0.000000 
56.236214 15.246890 3.488689 4.426735 19.249424 0.000000 0.000000 
56.380974 14.775252 3.025550 4.583838 20.151146 0.000000 0.000000 
58.232738 7.100851 -3.564089 6.346542 21.927876 0.000000 0.000000 
58.668625 7.216870 0.098028 6.241295 24.030302 0.000000 0.000000 
58.541508 8.703641 -0.830918 20.756065 33.422157 0.000000 0.000000 
58.725452 8.455516 -1.265221 20.905968 34.341961 0.000000 0.000000 
60.443127 9.597816 -0.134130 23.921646 36.609566 0.000000 0.000000 
60.354580 10.090078 0.186323 20.942719 33.651443 0.000000 0.000000 
61.772861 -8.883560 1.787287 -1.133064 18.497490 0.000000 0.000000 
61.971527 -9.196247 2.855341 8.029625 25.506367 0.000000 0.000000 
62.106136 -8.595955 3.394568 7.276793 24.505922 0.000000 0.000000 
62.056473 -10.557392 2.236789 4.933640 21.465435 0.000000 0.000000 
62.120262 -10.957191 2.996238 4.939734 22.502556 0.000000 0.000000 
62.692867 8.525722 -2.029952 12.359451 27.645388 0.000000 0.000000 
62.717400 8.633607 -2.142452 12.092087 27.881256 0.000000 1.000000 
57.570488 -31.691769 0.673927 13.655991 26.998070 0.000000 0.000000 
57.492779 -32.023300 2.079430 16.460556 28.050966 0.000000 0.000000 
57.565247 -32.120350 6.541541 15.818161 28.252716 0.000000 0.000000 
66.701157 -10.775553 -1.046392 11.184258 28.183117 0.000000 0.000000 
66.745338 -10.722746 0.266605 14.302055 29.980873 0.000000 0.000000 
5.560458 -68.144386 3.643070 1.515198 15.808704 0.000000 0.000000 
67.631386 -11.038591 6.363979 2.692635 17.801147 0.000000 0.000000 
68.069016 9.321728 -0.300561 6.397682 19.153093 0.000000 0.000000 
68.079018 9.389981 -1.834369 7.312782 20.077116 0.000000 0.000000 
67.825951 12.847643 1.807827 22.012825 31.889761 0.000000 0.000000 
67.934013 12.833423 1.416321 24.187218 34.954823 0.000000 0.000000 
70.343369 -10.194428 -5.169409 10.392326 24.901562 0.000000 0.000000 
70.409935 9.607294 -0.049580 10.978027 23.599899 0.000000 0.000000 
70.532272 9.402888 0.946665 5.941649 16.891829 0.000000 0.000000 
57.927151 -43.260201 5.614332 13.438217 26.261930 0.000000 0.000000 
72.567886 9.009122 -0.127874 28.879097 39.052006 0.000000 0.000000 
72.658134 8.752740 -0.305681 25.458900 34.935833 0.000000 0.000000 
74.779160 7.079148 -3.261190 12.376274 23.940197 0.000000 0.000000 
74.873352 7.020614 -2.997134 16.413750 27.083559 0.000000 0.000000 
74.733368 8.837331 -0.766499 8.175514 21.229322 0.000000 0.000000 
56.095890 -52.687317 0.851523 19.065277 30.403622 0.000000 0.000000 
-22.888336 -73.004669 -3.020785 9.372353 22.246601 0.000000 0.000000 
76.732666 8.288534 -1.590215 15.615524 26.823330 0.000000 0.000000 
8.433193 -77.170486 -2.075409 11.449944 24.744061 0.000000 0.000000 
76.825996 7.921777 -2.349245 14.473763 25.111942 0.000000 0.000000 
8.169129 -77.209251 -2.657442 15.347038 28.243755 0.000000 0.000000 
78.679863 8.318082 -1.959793 20.570572 30.262373 0.000000 0.000000 
78.875290 7.971064 -2.232036 19.014526 29.031944 0.000000 0.000000 
80.709755 7.551267 -2.994566 11.648064 21.958361 0.000000 0.000000 
80.681992 8.806616 -1.649106 14.360001 25.806553 0.000000 0.000000 
80.734253 8.609511 -1.260774 10.670441 22.538155 0.000000 0.000000 
82.374847 9.923374 -0.964956 5.169510 19.623320 0.000000 0.000000 
83.265976 -10.721017 9.594501 3.851868 17.160114 0.000000 0.000000 
-35.463520 -76.856331 2.085061 6.553558 15.763702 0.000000 0.000000 
84.455406 10.654479 -0.715017 10.179543 23.304321 0.000000 0.000000 
85.548676 -11.379322 7.784828 7.402908 19.497524 0.000000 0.000000 
86.302902 10.971971 2.087550 13.883034 21.998238 0.000000 0.000000 
86.373436 10.809789 2.077898 13.257362 20.657867 0.000000 0.000000 
57.745884 -67.773560 5.314427 18.222633 26.074856 0.000000 0.000000 
57.677055 -67.934509 4.937397 16.926842 24.443722 0.000000 0.000000 
58.270016 -67.584145 4.799428 16.160080 24.094046 0.000000 0.000000 
88.515274 10.332932 3.198326 13.887794 22.995775 0.000000 0.000000 
88.534027 10.210933 2.750623 17.637993 25.330179 0.000000 0.000000 
89.464127 -1.601640 -3.480210 4.053291 16.033960 0.000000 0.000000 
89.162888 -10.627389 8.682693 9.029045 22.027191 0.000000 0.000000 
89.257080 -10.047296 9.222830 6.476067 20.740376 0.000000 0.000000 
-28.427797 -85.529854 1.939156 7.779488 15.360939 0.000000 0.000000 
90.504524 9.676847 0.989863 21.814812 28.842314 0.000000 0.000000 
90.590866 10.208192 1.285510 24.965134 31.690424 0.000000 0.000000 
91.147507 -11.042261 8.437644 8.450912 24.221670 0.000000 0.000000 
91.117172 -11.754213 9.610664 6.022324 20.427267 0.000000 0.000000 
91.243355 -11.079648 8.768209 7.725914 22.351334 0.000000 0.000000 
91.169960 -11.778337 8.681827 9.123961 23.805487 0.000000 0.000000 
91.419548 -12.180354 13.413824 13.787895 24.527510 0.000000 0.000000 
91.479370 -12.399452 11.720051 8.520073 20.471245 0.000000 0.000000 
91.535782 -12.520666 15.460132 10.628990 22.256592 0.000000 0.000000 
91.872307 -12.142526 12.821995 9.476273 19.922600 0.000000 0.000000 
92.782410 8.017222 -0.946702 19.547752 27.884090 0.000000 0.000000 
92.812653 8.339548 -0.978455 18.683060 25.158903 0.000000 0.000000 
92.663223 -12.136836 12.532860 11.525887 19.665672 0.000000 0.000000 
92.653244 -12.982920 14.330081 9.757568 18.590313 0.000000 0.000000 
94.600433 8.876562 0.361805 7.521614 15.061703 0.000000 0.000000 
95.275230 -10.800153 7.813585 7.603897 17.956533 0.000000 0.000000 
96.362968 -12.021750 8.693402 9.855759 19.704327 0.000000 0.000000 
97.380104 -12.964667 6.377503 7.756821 16.912020 0.000000 0.000000 
98.740723 7.371912 -3.022844 8.172630 15.752251 0.000000 0.000000 
108.436012 -10.685262 8.142149 10.360023 16.926441 0.000000 0.000000 
107.694969 16.792969 0.449478 15.950485 21.544827 0.000000 0.000000 
113.534554 -8.637075 13.397953 12.528938 17.741646 0.000000 0.000000 
113.522697 -9.217727 14.132999 15.947052 20.880613 0.000000 0.000000 
113.630852 -8.285385 14.845076 9.833061 15.206785 0.000000 0.000000 
6.836989 -116.002220 -2.029186 7.744667 15.927681 0.000000 0.000000 
118.259682 2.062785 -1.661103 15.657578 21.194830 0.000000 0.000000 
118.255486 3.629375 1.394826 18.916275 23.807491 0.000000 0.000000 
118.517479 -0.622634 1.083547 12.047066 19.341198 0.000000 0.000000 
118.642090 8.127814 -7.417478 13.977936 18.639891 0.000000 0.000000 
118.806931 8.837189 -4.436388 13.138855 18.587015 0.000000 0.000000 
118.852791 8.646055 -6.124902 13.158463 18.625021 0.000000 0.000000 
119.914070 0.374397 -0.429836 7.775276 15.423323 0.000000 0.000000 
120.868622 7.699160 -0.920627 11.081230 14.561167 0.000000 0.000000 
124.639503 8.568862 -3.502794 11.597412 16.257647 0.000000 0.000000 
127.342072 17.218288 2.911325 19.903519 20.666162 0.000000 0.000000 
10.089161 -129.313644 0.537414 14.499214 17.855474 0.000000 0.000000 
7.116813 -130.702820 -2.635786 10.851151 14.000111 0.000000 0.000000 
7.666493 -131.906967 1.437970 10.095901 14.626083 0.000000 0.000000 
132.962891 -12.841413 4.967587 11.039818 15.564238 0.000000 0.000000 
8.066272 -134.359146 -0.002801 16.401482 18.848503 0.000000 0.000000 
134.423553 9.724698 -3.405493 13.292976 16.298092 0.000000 0.000000 
6.945623 -135.650284 0.124707 13.353790 17.704552 0.000000 0.000000 
136.709595 10.209958 -4.607150 14.688568 17.712566 0.000000 0.000000 
138.110443 13.422184 1.293762 19.962044 20.910624 0.000000 0.000000 
140.408432 11.390442 -1.969077 14.027550 14.507452 0.000000 0.000000 
8.559976 -142.124557 -7.040085 15.287315 17.135736 0.000000 0.000000 
142.226746 13.441404 1.456210 21.214203 22.029087 0.000000 0.000000 
8.026546 -143.384750 0.327395 23.123154 25.788450 0.000000 0.000000 
7.772807 -144.637787 -3.038070 22.077103 23.265537 0.000000 0.000000 
6.459567 -145.883850 -1.552743 13.579903 15.334558 0.000000 0.000000 
7.416523 -145.884171 -4.076543 18.867058 20.881216 0.000000 0.000000 
7.800762 -147.098938 -0.629138 25.491600 27.068977 0.000000 0.000000 
8.074753 -148.314590 -4.015123 21.580093 22.777782 0.000000 0.000000 
148.398972 13.367614 3.110954 18.679985 19.272125 0.000000 0.000000 
6.771346 -149.605957 -3.947130 17.608788 18.855492 0.000000 0.000000 
6.961952 -150.825333 -7.153746 13.175476 14.624876 0.000000 0.000000 
150.224335 12.282635 -0.507505 16.169914 16.066971 0.000000 0.000000 
150.478348 12.897337 7.472824 16.073547 16.136667 0.000000 0.000000 
4.774693 -159.143585 -2.111345 12.019386 15.629675 0.000000 0.000000 
164.083115 -14.791730 14.322897 15.856789 17.865953 0.000000 0.000000 
57.865536 -158.972794 3.894757 14.344551 15.642246 0.000000 0.000000 
8.483478 -173.338654 -6.758214 20.227821 19.910839 0.000000 0.000000 
193.321533 61.595318 5.811905 21.403145 14.942345 0.000000 0.000000 
194.895218 57.894875 15.565147 19.345459 13.516808 0.000000 0.000000 
-0.330145 8.828831 0.010193 -45.229164 16.228806 1.000000 1.000000 
-0.035728 10.106586 0.109203 -20.455681 32.235168 1.000000 1.000000 
3.012629 10.558451 0.062011 -31.539268 10.463924 1.000000 1.000000 
2.295100 12.322194 0.394343 -16.118683 32.672344 0.000000 0.000000 
2.025250 12.475866 -0.071156 -35.371529 14.948967 1.000000 1.000000 
2.221930 12.838957 -1.010490 -11.330482 35.257381 0.000000 0.000000 
2.198932 13.102367 -1.161196 -10.867599 33.395275 0.000000 0.000000 
2.278854 13.528875 -0.077294 -2.189697 37.907318 0.000000 0.000000 
2.363401 13.953099 -0.105621 -0.075050 41.362152 0.000000 0.000000 
2.128488 14.160890 -0.101668 -28.525734 13.092869 1.000000 1.000000 
2.482258 14.264416 0.096017 -31.467888 10.247292 1.000000 1.000000 
2.324698 14.383327 -0.155354 3.003792 43.367630 0.000000 0.000000 
2.313238 14.395084 -0.159705 0.221878 40.098476 0.000000 0.000000 
2.303445 14.495162 -0.148137 2.072617 41.302475 0.000000 0.000000 
2.351803 14.843144 -0.126072 -3.596085 35.282967 0.000000 0.000000 
2.269294 15.184261 0.131019 -9.696404 34.967369 0.000000 0.000000 
2.274176 15.287291 0.182797 -12.757950 36.313988 0.000000 0.000000 
2.534018 15.582277 -0.049498 -32.419975 12.027760 1.000000 1.000000 
2.319348 15.722286 0.334694 -6.645172 35.577770 0.000000 0.000000 
2.331852 15.832970 0.249205 -7.842270 32.017792 0.000000 0.000000 
2.055328 16.323587 -0.390222 -18.397652 24.546043 1.000000 1.000000 
2.345903 16.604256 -0.066214 -7.618790 35.148819 0.000000 0.000000 
2.325185 16.715824 -0.039551 -5.642937 34.469933 0.000000 0.000000 
2.200674 16.740067 0.208759 -18.213440 27.327137 0.000000 0.000000 
2.191492 17.239214 -0.080218 -17.950134 27.911579 0.000000 0.000000 
2.272336 17.514881 -0.169549 -3.697189 36.412949 0.000000 0.000000 
2.288660 17.535770 -0.087943 -3.043961 36.334187 0.000000 0.000000 
2.296699 17.951206 0.316435 -6.738388 30.398209 0.000000 0.000000 
2.403931 18.240055 -0.183153 -11.744774 26.712530 1.000000 1.000000 
2.341564 18.264633 0.345698 -3.910210 30.654764 0.000000 0.000000 
2.336110 18.361731 -1.346893 -5.772568 34.034912 0.000000 0.000000 
2.269152 18.699326 0.055962 -11.552567 26.893955 0.000000 0.000000 
2.143672 19.035873 -0.109488 -18.589394 19.879131 1.000000 1.000000 
2.244750 19.326466 0.291856 -8.763672 29.141256 0.000000 0.000000 
2.040797 19.479343 -0.000929 -21.244446 16.041695 1.000000 1.000000 
2.345218 19.498667 -0.315749 -27.111290 10.894840 1.000000 1.000000 
2.182604 19.742027 -0.060263 3.260948 39.923729 0.000000 0.000000 
2.233384 19.870687 0.180905 2.995461 38.680073 0.000000 0.000000 
2.186216 20.430696 0.359829 -4.112953 33.575935 0.000000 0.000000 
2.255136 20.450516 -0.111664 -1.225510 37.084038 1.000000 1.000000 
2.152776 20.576603 -0.545826 8.356323 46.167633 0.000000 0.000000 
2.218970 20.946304 -0.439688 -0.501747 33.619190 0.000000 0.000000 
2.192246 21.001022 -0.483278 5.387482 42.034687 0.000000 0.000000 
2.703087 23.546831 0.652827 -14.600357 27.944899 0.000000 1.000000 
-6.535095 22.904446 0.359974 -8.001732 26.773247 0.000000 0.000000 
-6.543634 23.083096 0.292094 -6.762688 29.687607 0.000000 0.000000 
10.662530 22.126991 2.119633 -5.936890 30.119181 0.000000 1.000000 
-6.890324 23.932821 0.157915 -26.976189 11.095722 1.000000 1.000000 
-6.924319 24.089954 0.325375 -8.322533 25.978430 1.000000 1.000000 
-7.354827 24.174026 1.084141 -12.858917 27.452295 0.000000 0.000000 
8.272955 24.161022 -5.946294 -15.211891 23.419540 0.000000 0.000000 
7.941944 24.421370 0.523757 -13.679358 23.703194 0.000000 0.000000 
19.415083 15.906761 -3.390472 3.369705 25.129829 0.000000 1.000000 
3.324203 26.542215 -0.225468 -14.087898 24.479120 0.000000 0.000000 
0.459724 26.964933 2.470611 -14.939606 26.052855 0.000000 0.000000 
-6.234761 26.318451 7.302571 -16.764793 23.972523 0.000000 0.000000 
18.502441 18.153240 -3.125920 -0.136177 22.436274 0.000000 0.000000 
6.786765 26.774052 6.875332 -18.676819 20.399471 0.000000 0.000000 
18.991817 18.864325 -1.929186 1.152344 23.953152 0.000000 0.000000 
-7.540611 27.203590 4.355382 -13.181519 23.688248 0.000000 0.000000 
-7.569331 27.280039 2.901980 -10.419647 26.008999 0.000000 0.000000 
16.937523 22.177643 10.656598 -3.778786 21.997952 0.000000 0.000000 
5.766428 28.202978 -0.784221 -20.864235 14.742863 1.000000 1.000000 
18.708302 20.564512 7.620977 -2.289413 20.876820 0.000000 0.000000 
-0.033591 29.336437 3.801543 -13.415909 23.393684 0.000000 0.000000 
5.927918 28.947815 -0.923437 -19.515144 12.700432 1.000000 1.000000 
11.968638 27.316658 4.210630 -13.040741 21.680569 0.000000 0.000000 
8.366988 29.316334 4.225929 -6.462654 27.419622 0.000000 0.000000 
8.548429 29.410540 2.894829 -13.780029 23.032152 0.000000 0.000000 
8.521041 29.446470 11.519645 -9.537468 25.517580 0.000000 0.000000 
-6.889847 30.190044 3.814666 -17.625458 23.285561 0.000000 1.000000 
-19.218245 23.737070 0.134426 -3.123047 23.479630 0.000000 1.000000 
6.041226 31.236897 4.985581 -11.669960 25.393677 0.000000 0.000000 
5.911418 31.314342 4.800404 -12.955298 23.892479 0.000000 0.000000 
-10.946433 30.178064 4.020463 -11.954491 24.165512 0.000000 0.000000 
6.880744 31.719887 2.262595 -14.406380 21.294725 1.000000 1.000000 
27.990837 11.204394 -7.595272 11.746140 21.772266 0.000000 1.000000 
7.001460 31.954369 -0.182032 -17.389565 23.136345 0.000000 0.000000 
6.953366 32.299301 2.256791 -1.221146 31.933353 0.000000 0.000000 
11.979137 30.575508 4.642341 -16.818268 19.624903 0.000000 0.000000 
6.991028 32.389542 2.287652 -1.691643 32.656216 0.000000 0.000000 
7.796564 32.524273 -3.856641 -17.309547 19.411575 0.000000 0.000000 
6.973840 33.093590 -7.863213 -12.008986 22.956884 0.000000 0.000000 
6.884083 33.231636 -8.085190 -14.848587 20.825224 0.000000 0.000000 
6.430724 33.813938 -0.955584 -20.080521 19.903107 0.000000 0.000000 
6.953301 33.739067 -0.926795 -3.104836 29.710867 0.000000 0.000000 
6.318896 33.989822 -0.598961 -18.956352 17.011805 0.000000 0.000000 
7.072911 33.842445 -0.692660 -7.541107 25.333254 0.000000 0.000000 
7.662943 34.461735 3.351970 -14.585129 22.381062 0.000000 0.000000 
7.132610 34.713860 3.544550 -10.939789 22.936466 0.000000 0.000000 
6.925354 35.067192 4.163197 -9.593887 23.970659 0.000000 0.000000 
5.875525 35.310539 4.645727 -10.423018 24.020866 0.000000 0.000000 
6.357519 35.304970 -6.542929 -18.198830 19.007206 0.000000 0.000000 
5.238068 35.544933 3.934282 -19.919693 20.364237 0.000000 0.000000 
7.454156 35.351471 5.180860 -5.068268 29.744322 0.000000 0.000000 
8.532180 35.121124 1.992245 -7.892555 28.152798 0.000000 0.000000 
7.134664 35.483250 3.179106 -6.291916 28.383186 0.000000 0.000000 
27.551813 21.519260 -0.734726 5.483559 22.865183 0.000000 0.000000 
6.430746 36.083096 4.087827 -8.836929 26.004791 0.000000 0.000000 
6.481988 36.332928 2.164197 -6.279015 27.519129 0.000000 0.000000 
6.576191 36.437542 2.497831 -11.295990 23.842466 0.000000 0.000000 
5.925805 36.664658 1.154631 -16.422623 20.981659 0.000000 0.000000 
6.566690 36.922550 2.048216 -14.074806 20.761892 0.000000 0.000000 
7.091475 36.998257 2.534377 -13.381256 22.623713 0.000000 0.000000 
28.523550 22.582689 13.778931 3.143738 19.904251 0.000000 0.000000 
30.800892 19.580589 -10.232509 5.289772 19.885300 0.000000 0.000000 
22.520777 30.343094 1.122547 -0.748528 20.642593 0.000000 0.000000 
23.039135 29.995825 1.266130 -3.302216 17.856079 0.000000 0.000000 
22.710819 30.481405 1.351845 -4.943077 21.006910 0.000000 0.000000 
22.044069 31.060972 0.474483 -0.280037 21.638294 0.000000 0.000000 
8.947019 38.164963 8.818025 -16.290077 18.766018 0.000000 0.000000 
6.830937 39.127594 -0.566633 -12.675026 19.921206 0.000000 0.000000 
22.980701 31.603447 0.776437 -5.103180 16.971739 1.000000 1.000000 
6.999972 39.369370 -0.475193 -12.682837 20.730972 0.000000 0.000000 
6.250456 39.616196 0.118362 -13.994728 19.448780 0.000000 0.000000 
6.910789 39.823074 -0.860480 -15.095131 16.675991 1.000000 1.000000 
21.819635 33.701374 3.917132 -9.987213 16.365690 0.000000 0.000000 
13.483784 38.502907 3.622830 -12.642975 18.639595 0.000000 0.000000 
5.961460 41.000835 0.640844 -19.069435 17.610912 0.000000 0.000000 
6.510507 41.051102 5.537180 -10.008080 20.899714 0.000000 0.000000 
6.366383 41.287365 1.196401 -14.913078 18.246395 0.000000 0.000000 
6.500774 41.399059 16.273111 -19.095703 16.288952 0.000000 0.000000 
7.477710 41.248428 -1.061087 -15.594185 17.851254 1.000000 1.000000 
7.769081 41.524471 3.825684 -12.742209 22.885883 0.000000 0.000000 
8.713525 41.364479 4.454838 -14.546570 19.244497 0.000000 0.000000 
7.612227 41.634846 -0.689120 -4.680069 24.308407 0.000000 0.000000 
7.521237 41.986134 -1.036236 -7.026482 24.448708 0.000000 0.000000 
10.831870 41.642914 4.795258 -13.778412 19.714161 0.000000 0.000000 
5.151844 42.831776 -0.579982 -7.236145 22.465153 0.000000 0.000000 
5.161371 42.841042 -0.383562 -9.206116 21.215736 0.000000 0.000000 
5.493140 43.128262 -0.552715 -14.280272 18.896122 0.000000 0.000000 
5.216565 43.579834 -0.559363 -9.083206 20.572193 0.000000 0.000000 
5.261503 43.595249 -0.555429 -14.871620 16.933672 0.000000 0.000000 
5.316478 43.608345 -0.410650 -6.623024 21.859426 0.000000 0.000000 
5.331581 43.683773 -0.242602 -12.212158 18.370914 0.000000 0.000000 
5.366377 43.707020 -0.497088 -8.364899 21.660076 0.000000 0.000000 
5.140103 44.053055 -0.243845 -15.082291 16.498327 0.000000 0.000000 
5.385909 44.047173 -0.559624 -18.026962 12.482231 1.000000 1.000000 
5.258240 44.130424 -0.788582 -12.122391 19.208050 0.000000 0.000000 
7.698369 43.791965 2.760367 -11.145180 21.164476 0.000000 0.000000 
4.862894 44.312859 -0.655694 -19.230530 15.059765 0.000000 0.000000 
7.526616 43.994328 2.281705 -6.526878 24.330460 0.000000 0.000000 
7.351317 44.270428 5.574758 -12.555800 18.669514 0.000000 0.000000 
5.540366 44.904194 -0.238751 -15.362892 14.422989 1.000000 1.000000 
14.856534 42.595875 -3.688703 -14.742668 16.579649 0.000000 0.000000 
12.454470 43.765026 3.717074 -15.277580 16.019236 0.000000 0.000000 
12.545840 43.857025 3.993117 -14.318091 16.223276 0.000000 0.000000 
12.251202 44.461533 3.628848 -14.815712 17.365383 0.000000 0.000000 
6.301055 46.191223 5.711380 -19.406288 14.584589 0.000000 0.000000 
6.432299 46.328938 0.357329 -18.239906 14.243629 0.000000 0.000000 
8.004846 46.259029 6.268041 -15.598457 18.278400 0.000000 0.000000 
8.079190 46.306488 7.558728 -19.656921 16.770937 0.000000 0.000000 
6.924456 46.511257 6.349873 -10.942482 21.022129 0.000000 0.000000 
6.889301 46.913555 6.818759 -12.554276 19.915627 0.000000 0.000000 
6.953190 47.102798 6.388407 -11.035477 18.898996 0.000000 0.000000 
6.947638 47.241196 5.809780 -12.889351 19.142778 0.000000 0.000000 
36.760971 28.113657 1.220176 8.262840 20.842497 0.000000 0.000000 
7.279512 47.305504 5.701516 -15.848358 15.373587 0.000000 0.000000 
7.780616 47.245991 5.399983 -7.099014 24.254496 0.000000 0.000000 
35.017056 31.639000 1.254726 16.947296 27.270983 0.000000 0.000000 
35.177338 31.812523 1.388830 15.364876 25.832058 0.000000 0.000000 
15.777641 45.954197 -3.926016 -7.528748 20.332205 0.000000 0.000000 
34.849743 32.317104 1.060773 9.881195 20.609198 0.000000 0.000000 
15.843069 46.129791 0.438130 -11.689673 17.161676 0.000000 0.000000 
8.757337 48.372845 -6.854850 -14.364090 18.671515 0.000000 0.000000 
7.292522 49.077450 6.036354 -12.584938 17.431715 0.000000 0.000000 
8.211816 49.252918 -7.746943 -13.497612 17.433096 0.000000 0.000000 
7.323272 49.459446 4.957054 -8.446899 19.742840 0.000000 0.000000 
7.672434 49.422016 4.591539 -7.762108 20.690422 0.000000 0.000000 
9.233931 49.163120 -7.041760 -19.403107 14.652943 0.000000 0.000000 
8.216204 49.424389 4.308296 -11.449875 16.161552 0.000000 0.000000 
8.013537 49.475491 5.442874 -15.200127 14.063824 0.000000 0.000000 
8.393198 50.024143 5.558382 -11.916245 18.109600 0.000000 0.000000 
8.293334 50.208588 -7.086699 -16.566925 13.840168 0.000000 0.000000 
7.279595 50.850288 6.358843 -14.139313 15.276907 0.000000 0.000000 
7.381242 51.039909 -8.014129 -12.640358 16.476755 0.000000 0.000000 
6.983898 51.135853 5.341713 -14.933136 20.220226 0.000000 0.000000 
7.163065 51.202572 4.824749 -20.111816 11.595150 0.000000 0.000000 
7.750043 51.190228 -7.147600 -9.666374 17.411976 0.000000 0.000000 
7.768356 51.187096 -6.755652 -11.621437 15.739307 0.000000 0.000000 
7.864744 51.182705 -7.193546 -2.692596 23.447372 0.000000 0.000000 
7.814871 51.513348 6.832698 -20.530418 8.327003 1.000000 1.000000 
8.127851 51.558586 -4.277879 -16.616348 14.696217 0.000000 0.000000 
7.624781 51.831112 6.007010 -18.091179 15.512167 0.000000 0.000000 
7.932753 51.868816 -7.354858 -13.558762 13.213169 1.000000 1.000000 
7.896189 52.048149 6.911585 -17.220299 15.465042 0.000000 0.000000 
12.040735 51.237343 3.102590 -17.348724 15.637529 0.000000 0.000000 
13.437554 51.235226 4.563054 -15.225708 15.859089 0.000000 0.000000 
8.296228 52.420570 5.698008 -16.316910 16.252022 0.000000 0.000000 
12.228999 51.629314 4.312474 -9.483902 19.118889 0.000000 0.000000 
11.375867 51.931591 3.658617 -11.145308 17.517843 0.000000 0.000000 
12.030414 52.066734 3.306633 -10.958571 19.333382 0.000000 0.000000 
6.784812 53.100842 5.647849 -13.092171 17.612049 0.000000 0.000000 
8.321366 53.194633 -6.060999 -14.522789 15.970589 0.000000 0.000000 
8.033917 53.307320 5.337059 -6.596428 21.320879 0.000000 0.000000 
7.228773 53.448063 3.530378 -14.440414 17.844507 0.000000 0.000000 
8.128258 53.337578 5.495584 -8.180695 19.138090 0.000000 0.000000 
8.228909 53.535809 5.326414 -7.135719 20.443203 0.000000 0.000000 
7.007136 53.790920 5.825073 -18.204628 9.194889 1.000000 1.000000 
7.313869 53.792786 3.914130 -8.808662 18.887127 0.000000 0.000000 
7.009345 53.925110 3.382251 -2.918083 26.451633 0.000000 0.000000 
6.760447 53.970154 -6.563005 -8.468933 23.320047 0.000000 0.000000 
14.292078 52.614162 4.380532 -6.975716 24.601570 0.000000 0.000000 
7.288961 54.201752 3.802074 -1.544434 23.183819 0.000000 0.000000 
6.488879 54.433716 -7.865479 -11.346725 19.256453 0.000000 0.000000 
6.373564 54.481674 -6.706981 -11.571655 17.955374 0.000000 0.000000 
7.230653 54.506916 2.127007 -11.768242 15.900208 0.000000 0.000000 
7.110816 54.739899 2.465290 -15.278580 16.432613 0.000000 0.000000 
8.652928 54.549473 3.917084 -14.597404 17.544058 0.000000 0.000000 
8.025935 54.678204 4.050767 -7.576645 20.131241 0.000000 0.000000 
7.669208 54.873535 3.601538 -17.294762 11.248318 1.000000 1.000000 
7.318177 54.960674 4.446980 -1.590446 23.631685 0.000000 0.000000 
7.253373 54.997276 3.726392 -5.502876 21.105158 0.000000 0.000000 
7.233094 55.198669 -6.201773 -7.756889 19.913939 0.000000 0.000000 
7.313935 55.196449 -5.867332 -8.536324 18.727152 0.000000 0.000000 
7.531024 55.588623 -6.457217 -3.404892 21.452682 0.000000 0.000000 
10.304000 55.132187 2.902537 -16.438515 15.761070 0.000000 0.000000 
8.592120 55.477482 3.590332 -7.953094 18.079512 0.000000 0.000000 
6.319224 55.868656 4.224529 -11.289062 18.713394 0.000000 0.000000 
6.170797 55.886909 4.537485 -14.156441 15.721064 0.000000 0.000000 
6.343755 55.907539 4.429815 -12.876373 16.805374 0.000000 0.000000 
43.745125 32.832237 2.113906 7.799438 13.420967 1.000000 1.000000 
7.353886 55.853218 3.062944 -9.194572 18.138414 0.000000 0.000000 
6.794697 56.132259 4.490100 -7.620979 19.872845 0.000000 0.000000 
7.219038 56.087593 4.214068 -9.675735 18.797190 0.000000 0.000000 
44.001751 33.639874 2.050654 17.167603 21.845760 0.000000 0.000000 
44.427612 33.021343 1.973649 20.275627 24.484783 0.000000 0.000000 
44.644676 32.689316 1.123704 21.128395 25.240395 0.000000 0.000000 
45.070950 32.067177 -1.640603 16.845238 22.446613 0.000000 0.000000 
43.364761 34.696228 1.010956 7.063667 15.866755 0.000000 0.000000 
44.882717 32.683784 2.069023 4.057976 14.603556 0.000000 0.000000 
6.914905 57.019554 5.314470 -14.635345 17.214462 0.000000 0.000000 
6.785138 57.178741 5.053509 -10.871315 19.037909 0.000000 0.000000 
6.847017 57.319553 4.150683 -9.868271 18.588591 0.000000 0.000000 
7.712245 57.274624 6.874871 -17.897964 13.697266 0.000000 0.000000 
6.667294 57.462849 5.921515 -16.820419 15.061357 0.000000 0.000000 
6.900724 57.491543 1.409720 -13.251877 16.829149 0.000000 0.000000 
5.778979 57.672947 9.657478 -13.199989 15.669014 1.000000 1.000000 
6.857553 57.874153 4.889479 -4.044991 21.649246 0.000000 0.000000 
6.142169 58.128101 10.792027 -13.834105 12.203583 1.000000 1.000000 
6.791006 58.064037 5.824922 -5.211525 20.096693 0.000000 0.000000 
6.282757 58.184772 5.273819 -7.999725 20.301779 0.000000 0.000000 
7.761840 58.177467 6.898697 -8.237381 17.654930 0.000000 0.000000 
6.148596 58.407070 7.186070 -15.399315 14.855410 0.000000 0.000000 
5.923422 58.797611 10.499969 -10.770041 15.869089 0.000000 0.000000 
6.214787 58.808975 10.110367 -3.415062 22.684420 0.000000 0.000000 
7.162807 58.719013 4.343731 -18.426582 13.288628 0.000000 0.000000 
6.156909 58.931820 10.191972 -5.248917 21.381470 0.000000 0.000000 
7.657334 58.977028 6.479304 -11.192061 14.304733 0.000000 0.000000 
8.216967 58.988453 4.784858 -15.630684 13.797117 0.000000 0.000000 
7.409201 59.129753 4.860257 -10.060043 15.369102 0.000000 0.000000 
8.015515 59.460979 8.570326 -7.949242 16.177729 0.000000 0.000000 
7.474934 59.557606 1.955012 -8.633324 16.572264 0.000000 0.000000 
7.805948 59.528461 7.905591 -6.860687 15.862827 0.000000 0.000000 
7.471995 59.613651 8.195302 -7.527794 18.032936 0.000000 0.000000 
7.269718 59.889568 5.927492 -17.493172 8.487080 1.000000 1.000000 
8.280764 59.861320 17.757730 -14.021378 14.939655 0.000000 0.000000 
8.469841 59.883625 18.609779 -17.327606 11.330666 0.000000 0.000000 
8.110276 59.965538 5.641994 -11.140167 13.610678 0.000000 0.000000 
7.903778 60.345387 8.273028 -9.749207 16.597141 0.000000 0.000000 
7.102262 60.457790 7.631864 -8.177368 17.412718 0.000000 0.000000 
6.250146 60.639278 7.480060 -15.796205 12.142094 0.000000 0.000000 
-7.395633 60.623032 -0.980569 -25.088219 4.694954 1.000000 1.000000 
6.320343 61.005718 7.473102 -9.881111 15.642138 0.000000 0.000000 
6.514217 61.025059 7.321136 -12.149414 13.275331 0.000000 0.000000 
6.153677 61.118324 7.205340 -16.280418 12.674004 0.000000 0.000000 
-7.619007 61.146118 -1.318473 0.094025 23.726204 0.000000 0.000000 
-7.571957 61.162868 -1.151605 -0.876434 23.125340 0.000000 0.000000 
-7.574904 61.263702 -1.188719 2.234650 26.778049 0.000000 0.000000 
-7.663888 61.252964 -1.242263 -5.228828 19.910507 0.000000 0.000000 
6.996877 61.732082 7.516789 -18.106659 11.972431 0.000000 0.000000 
6.400125 61.835171 7.488352 -15.256180 13.630354 0.000000 0.000000 
8.258606 61.633949 7.291077 -16.114159 11.398407 0.000000 0.000000 
6.507439 61.974091 7.567081 -15.036995 13.534189 0.000000 0.000000 
-8.097164 61.852314 -1.103209 -15.008659 13.135742 0.000000 0.000000 
-8.310222 62.013306 -1.189847 -16.424156 11.794460 0.000000 0.000000 
-8.231491 62.041962 -1.239747 -17.677063 11.830730 0.000000 0.000000 
30.517042 54.147804 -5.122027 -13.532875 9.206429 0.000000 0.000000 
-7.783998 62.355240 -1.087385 -13.995209 12.255013 1.000000 1.000000 
-18.872458 60.413666 10.259746 -16.974289 10.195312 0.000000 0.000000 
27.558310 56.910431 10.625651 -14.896896 7.635311 0.000000 0.000000 
27.302378 57.161621 10.998684 -8.749962 11.660160 0.000000 0.000000 
27.022327 57.327190 4.941517 -12.432570 10.433601 0.000000 0.000000 
15.667309 62.530365 3.455368 -15.211052 10.544159 0.000000 0.000000 
7.338902 64.266785 -1.358975 -21.249352 8.649094 0.000000 0.000000 
8.042377 64.200546 -0.016569 -11.922791 13.123955 0.000000 0.000000 
7.808741 64.281616 -0.792262 -14.527130 11.991829 0.000000 0.000000 
8.735402 64.178123 1.250777 -19.385345 8.590919 0.000000 0.000000 
-29.730175 57.535648 9.260091 -10.395073 12.494179 0.000000 0.000000 
20.061512 61.910690 1.312626 -16.653641 10.417130 0.000000 0.000000 
21.274513 61.849705 -4.267090 -11.596291 14.760334 0.000000 0.000000 
-11.587644 64.559669 -0.350019 -8.684273 20.477757 0.000000 0.000000 
26.539686 59.808289 -4.919306 -9.597305 10.696644 1.000000 1.000000 
26.796928 60.235703 -4.931193 0.669357 20.428482 0.000000 0.000000 
21.145527 62.636906 1.286918 -15.977486 8.137848 1.000000 1.000000 
8.193498 65.919861 -0.967306 -15.160133 10.200268 1.000000 1.000000 
26.827009 60.427525 -5.288390 -8.950340 13.120193 0.000000 0.000000 
16.387671 64.805145 -5.741133 -19.516396 8.333614 0.000000 0.000000 
15.695148 65.046188 1.521351 -14.949655 9.905628 0.000000 0.000000 
8.143865 66.876678 -1.391981 -10.442009 14.471325 0.000000 0.000000 
8.407623 67.175941 -1.114450 -10.980865 14.449318 0.000000 0.000000 
-13.027967 66.577789 0.176869 -15.662477 8.913292 1.000000 1.000000 
8.020674 67.635193 -1.821610 -17.204552 7.457756 1.000000 1.000000 
-13.126234 67.223328 -0.073447 -13.665680 10.553078 0.000000 0.000000 
-12.779331 67.307449 1.721332 -9.929588 13.622343 0.000000 0.000000 
-12.866482 67.351318 0.952097 -10.719109 14.209623 0.000000 0.000000 
22.363420 65.041428 1.861013 -14.238388 8.480465 0.000000 0.000000 
22.181278 65.109985 0.873984 -12.104721 10.354935 0.000000 0.000000 
43.482925 53.106373 2.553431 -1.152908 13.695116 0.000000 0.000000 
45.315224 51.999435 3.020059 9.231346 16.930334 0.000000 0.000000 
45.062904 52.252209 3.462453 3.780762 12.758038 0.000000 0.000000 
45.180161 52.324371 2.955806 8.275574 16.093296 0.000000 0.000000 
8.451753 69.646034 1.015804 -1.720459 20.342691 0.000000 0.000000 
8.326382 69.867264 1.394295 -13.068497 12.366394 0.000000 0.000000 
8.440170 69.866470 1.064140 1.779884 24.043007 0.000000 0.000000 
9.002003 70.140587 -3.934243 -8.611351 14.632587 0.000000 0.000000 
47.191151 52.001396 -4.331767 9.124947 20.322811 0.000000 0.000000 
8.563871 70.930840 0.939825 -6.964050 14.620275 1.000000 1.000000 
-62.304329 30.353199 5.251641 7.160240 12.414719 0.000000 1.000000 
47.431393 52.849724 -4.681630 1.011406 12.175732 0.000000 0.000000 
8.887125 71.565613 2.864080 -9.060013 15.839447 0.000000 0.000000 
47.703468 52.861015 -3.886751 2.971848 16.210613 1.000000 1.000000 
-36.426960 61.953827 3.582513 3.040619 20.078745 0.000000 0.000000 
-35.868206 62.315964 3.489254 0.698524 16.689598 0.000000 0.000000 
-36.237835 62.208763 3.955816 2.015854 18.280659 0.000000 0.000000 
-35.958401 62.388596 3.732622 -1.064941 16.039135 0.000000 0.000000 
29.374632 65.991119 8.345960 -15.080894 9.714779 0.000000 1.000000 
9.574605 72.503365 2.921468 -13.365379 10.915443 0.000000 0.000000 
9.802924 72.510269 3.007389 -4.908096 17.255571 0.000000 0.000000 
9.707307 72.701889 3.360406 -9.411819 14.720743 0.000000 0.000000 
-29.241472 67.036575 2.876670 -5.886597 14.003836 0.000000 0.000000 
-30.615129 66.803848 3.119189 -6.857010 13.602060 0.000000 0.000000 
-29.902554 67.158600 3.582264 0.198540 18.323763 0.000000 0.000000 
-30.108252 67.132980 3.092479 -1.843567 16.424841 0.000000 0.000000 
-29.698021 67.382301 3.452243 2.016258 20.441151 0.000000 0.000000 
-28.373743 68.142387 2.859592 -1.734344 18.868801 0.000000 0.000000 
-29.533581 67.686996 2.744223 -10.043022 9.537514 1.000000 1.000000 
-29.152245 67.973595 2.994431 0.516251 20.611898 0.000000 0.000000 
-30.967609 67.358459 4.314118 -2.591118 16.271889 0.000000 0.000000 
-30.071281 68.065865 5.204323 -0.497337 18.735050 0.000000 0.000000 
-30.151638 68.028587 4.975396 3.272392 22.336283 0.000000 0.000000 
-29.463549 68.689621 -8.515686 -2.191338 17.445013 0.000000 0.000000 
-31.765736 67.641418 4.961507 -4.286476 15.651409 0.000000 0.000000 
-30.057795 68.547798 -10.070882 -2.274391 17.480799 0.000000 0.000000 
-9.964792 75.332825 5.231935 -4.892265 20.581078 0.000000 0.000000 
-10.201896 75.481003 4.176346 -2.721252 19.991095 0.000000 0.000000 
-9.798594 75.620689 4.426221 -2.702843 20.104120 0.000000 0.000000 
-22.882013 72.638115 6.248218 -6.714592 16.069366 0.000000 0.000000 
-23.186214 72.646446 6.410714 -1.425850 18.274754 0.000000 0.000000 
-23.192247 72.655243 6.331483 -4.126793 17.442457 0.000000 0.000000 
-10.348639 75.949356 5.523362 -12.591690 13.387569 0.000000 0.000000 
-23.126165 72.922485 -9.236591 -8.589592 13.096657 0.000000 0.000000 
8.946377 76.326363 0.105584 -10.687355 15.382341 0.000000 0.000000 
9.060087 76.327789 1.996869 -8.575706 16.465996 0.000000 0.000000 
9.262070 76.403694 1.547705 -7.557053 17.026310 0.000000 0.000000 
8.338958 76.586334 2.522874 -5.272232 19.067354 0.000000 0.000000 
-22.222429 73.782646 5.616546 -7.721405 15.228302 0.000000 0.000000 
-28.350821 71.653961 3.317456 -9.424492 14.928499 0.000000 0.000000 
-10.977405 76.896935 4.824783 -4.274643 17.671368 0.000000 0.000000 
-22.723726 74.674080 10.545916 1.301361 21.017427 0.000000 0.000000 
-22.848646 74.949310 10.651810 0.541603 18.818529 0.000000 0.000000 
55.576183 54.122963 1.615179 2.739510 5.659981 1.000000 1.000000 
-22.845531 75.381363 10.706772 -3.390747 16.989983 1.000000 1.000000 
27.152287 73.977318 7.270300 -13.978546 9.951344 0.000000 0.000000 
55.803368 54.726322 2.210501 10.459969 15.469889 0.000000 0.000000 
56.590088 53.904541 2.459262 4.620674 9.067135 0.000000 0.000000 
57.670837 52.726818 4.093614 5.589249 16.784538 0.000000 0.000000 
55.929329 54.744263 1.607811 10.914207 15.590252 0.000000 0.000000 
57.885399 53.022015 3.656597 2.144386 13.898643 0.000000 0.000000 
57.682087 53.299931 3.456938 4.630325 16.419935 0.000000 0.000000 
58.833069 52.448967 -5.030862 15.842415 17.969608 0.000000 0.000000 
58.726421 52.671642 -4.565557 9.091208 15.662180 0.000000 0.000000 
58.041313 53.585735 4.114740 1.168381 7.614044 0.000000 0.000000 
58.982716 52.553108 3.859113 15.977623 21.505356 0.000000 0.000000 
60.878761 51.046051 -4.347350 0.570717 10.292946 0.000000 0.000000 
67.994904 40.630398 -0.052393 4.629082 10.087433 0.000000 0.000000 
-34.837532 73.395828 10.673976 -10.332718 11.118114 0.000000 0.000000 
-22.481312 78.393784 5.341419 -7.299850 14.553129 0.000000 0.000000 
-37.508343 72.278595 4.447620 -6.382965 13.220768 0.000000 0.000000 
-21.407784 79.530670 5.195361 -8.498566 15.519562 0.000000 0.000000 
-36.685020 73.445419 6.299472 -4.691422 14.190832 0.000000 0.000000 
-28.985756 77.044945 2.839968 -7.342751 13.346869 0.000000 0.000000 
-28.404011 77.658447 3.084305 -5.227699 15.355947 0.000000 0.000000 
-28.751066 77.797371 3.122577 -2.390617 17.822624 0.000000 0.000000 
-38.413528 73.472038 7.038139 3.443329 19.653481 0.000000 0.000000 
-28.287594 78.742638 5.533539 -7.759377 13.048309 0.000000 0.000000 
-28.979921 79.297791 7.272977 -2.718636 18.451786 0.000000 0.000000 
-33.657574 77.363419 7.868740 -3.340004 16.302158 0.000000 0.000000 
-32.351097 78.085915 8.584525 -5.207657 14.886921 0.000000 0.000000 
-26.485601 81.063568 8.246964 -8.151657 16.224813 0.000000 0.000000 
-28.485352 80.399734 5.539899 -5.441399 14.508846 0.000000 0.000000 
-27.578167 80.736015 6.063064 -1.327019 17.598644 0.000000 0.000000 
43.911610 72.778610 2.348723 0.893646 16.217520 0.000000 0.000000 
-40.097565 75.917725 10.197631 -1.260765 16.532698 0.000000 0.000000 
-27.426071 81.707008 2.284280 -7.890373 14.501451 0.000000 0.000000 
-30.462513 81.018150 9.931815 -4.695938 15.258884 0.000000 0.000000 
-28.815329 81.668198 8.812558 -4.020538 17.687346 0.000000 0.000000 
-29.838745 81.531502 8.668674 -1.483208 20.036423 0.000000 0.000000 
53.045506 68.252098 -6.594767 7.384323 17.214489 0.000000 0.000000 
51.958492 69.483704 3.186614 7.061066 17.152248 0.000000 0.000000 
-31.112476 82.166298 10.951649 -7.029709 14.323616 0.000000 0.000000 
41.948353 77.937843 4.147338 1.747025 15.558083 0.000000 0.000000 
43.254604 77.313187 3.829295 -3.855072 11.933662 0.000000 0.000000 
43.316666 77.577377 3.885931 1.642746 16.579262 0.000000 0.000000 
-32.586456 82.949158 13.405409 0.563919 18.337456 0.000000 0.000000 
-33.226299 82.819374 14.425544 -8.910812 11.920296 0.000000 0.000000 
-32.973820 82.935081 14.425774 -5.075294 13.435099 0.000000 0.000000 
-33.210636 82.881790 15.065009 -5.781174 12.446323 0.000000 0.000000 
21.762995 87.359474 3.942994 -1.342476 17.172136 0.000000 0.000000 
21.561855 87.438515 3.921735 -9.231583 10.093815 0.000000 0.000000 
21.516243 87.481972 4.060800 -7.038124 12.915375 0.000000 0.000000 
44.727322 78.371796 3.168530 -3.066048 13.773233 0.000000 0.000000 
77.393044 44.218124 -1.849408 8.932770 9.557381 0.000000 0.000000 
-35.347095 83.755463 13.692471 -8.998688 9.578381 0.000000 0.000000 
-29.633003 86.309799 12.700885 -12.144661 9.912273 1.000000 1.000000 
-31.603699 85.696335 11.640800 -11.668442 9.343304 0.000000 0.000000 
11.009965 91.541809 2.534590 -15.055023 8.418274 0.000000 0.000000 
-51.509174 75.938065 9.584335 -5.434647 7.967102 0.000000 1.000000 
-21.597227 90.189957 6.906283 -12.093300 10.564793 0.000000 0.000000 
-22.371765 90.014122 6.448340 -9.566887 11.666515 0.000000 0.000000 
-21.748375 90.226669 6.728327 -9.161385 12.705482 0.000000 0.000000 
-22.719685 90.287201 6.601062 -6.739510 12.929657 0.000000 0.000000 
-36.375240 85.534721 10.914600 -9.929497 9.551682 0.000000 1.000000 
-22.726446 90.409592 6.459107 -13.964073 9.112896 0.000000 0.000000 
-22.277990 90.825653 6.595792 -11.964943 8.423420 1.000000 1.000000 
-21.991337 91.011078 7.824367 -6.032143 14.500435 0.000000 0.000000 
-22.664425 90.870247 6.613130 -8.231613 11.465275 0.000000 0.000000 
-23.800848 92.323303 5.989445 -13.504349 7.294750 0.000000 1.000000 
-14.500713 96.749794 5.132553 -8.094971 9.410515 0.000000 0.000000 
-14.325577 96.978325 3.567916 -11.150368 10.061489 0.000000 0.000000 
-14.650360 97.299744 3.572332 -7.452431 12.295414 0.000000 0.000000 
-15.470302 97.198372 3.531639 -4.288757 15.013781 0.000000 0.000000 
-15.333903 97.234901 3.336818 -3.959877 14.803267 0.000000 0.000000 
-15.387181 97.231865 3.659528 1.692009 19.168148 0.000000 0.000000 
-15.358680 97.358612 3.583258 3.110100 19.534122 0.000000 0.000000 
-22.106106 96.884659 -2.748978 -9.306351 8.704960 0.000000 0.000000 
-22.199129 97.176842 -3.155799 -11.661461 9.084949 0.000000 0.000000 
-30.768326 96.063248 7.089880 -12.049286 6.710186 0.000000 0.000000 
-31.505316 96.284447 13.814722 -9.725014 9.347797 0.000000 0.000000 
-32.762539 96.105949 11.519308 -3.183800 10.249973 0.000000 0.000000 
-32.821575 96.287697 12.774542 -6.826485 8.712803 0.000000 0.000000 
-32.309982 96.483154 11.535183 -6.686478 8.788177 0.000000 0.000000 
-32.858929 96.732735 11.891341 -8.641304 9.872196 0.000000 0.000000 
-32.908077 96.828857 13.465531 -4.718941 11.193523 0.000000 0.000000 
-31.971668 98.341751 11.689673 -10.256424 7.910820 0.000000 0.000000 
-31.871908 98.530540 11.044386 -6.103760 10.696812 0.000000 0.000000 
-32.083687 98.721687 10.692089 -5.937088 11.547897 0.000000 0.000000 
-30.387402 99.347939 11.343256 -8.244766 9.809933 0.000000 0.000000 
-30.071016 99.495972 10.515994 -11.221190 6.479527 0.000000 0.000000 
-30.050251 99.730995 9.902108 -11.520065 7.220169 0.000000 0.000000 
-28.801401 100.310196 12.710735 -13.704971 8.023777 0.000000 0.000000 
-30.862122 99.719994 11.446920 -8.888855 8.875072 0.000000 0.000000 
-88.353500 52.303600 -0.091296 9.708862 7.354893 0.000000 0.000000 
-31.459812 99.632317 10.044987 -5.616150 9.317757 0.000000 0.000000 
-31.156487 99.853569 10.593597 -4.853096 10.205505 0.000000 0.000000 
-33.889046 99.430954 12.972019 -13.363112 6.672104 0.000000 0.000000 
-31.067934 100.553650 11.206275 -11.643616 7.827740 0.000000 0.000000 
-32.642796 100.073288 12.560077 -6.599327 9.656940 0.000000 0.000000 
34.198387 100.392319 2.037914 -9.496613 7.190392 0.000000 1.000000 
-32.693336 103.596252 12.000622 -10.944412 5.509335 0.000000 1.000000 
52.208488 97.442604 5.330523 -3.759483 9.626270 0.000000 0.000000 
50.809437 98.222496 4.982641 -3.585373 11.068272 0.000000 0.000000 
50.393005 99.128143 5.456216 -4.126640 9.022743 0.000000 0.000000 
-21.527788 110.337364 4.925128 -13.834395 5.852543 0.000000 0.000000 
39.037045 107.711403 3.229909 -14.296471 4.222130 0.000000 0.000000 
37.389317 108.328247 3.749030 -3.286987 10.002350 0.000000 0.000000 
37.005653 108.548164 3.852057 -6.706688 7.311600 0.000000 0.000000 
36.895050 108.620949 1.815586 -9.130562 5.213493 0.000000 0.000000 
35.174740 109.646576 1.043115 -10.211693 5.382809 0.000000 0.000000 
35.402397 109.812607 1.891670 -7.805283 6.943607 0.000000 0.000000 
35.057106 110.169701 2.792850 -9.388168 5.770550 0.000000 0.000000 
34.859737 110.606857 2.139592 -10.463280 5.037304 0.000000 0.000000 
33.989979 110.897728 1.980525 -10.156776 4.284889 0.000000 0.000000 
-7.308145 117.553902 -4.693722 -10.436516 6.434002 0.000000 1.000000 
-9.230104 117.510735 -5.698341 -12.193283 8.267632 0.000000 1.000000 
-22.785810 115.826591 6.065651 -10.108269 7.375637 0.000000 0.000000 
44.737690 110.690277 1.975951 -8.593864 6.621796 0.000000 0.000000 
43.163528 111.392220 1.954480 -6.145386 6.219276 0.000000 0.000000 
42.433765 112.069244 0.789332 -7.172180 8.306381 0.000000 0.000000 
-21.838364 118.040710 7.546866 -8.866295 7.849583 0.000000 0.000000 
-23.160326 117.957382 9.038495 2.417046 14.978407 0.000000 0.000000 
-24.177523 117.849533 9.869538 -9.197739 6.472416 0.000000 0.000000 
-22.607185 118.210045 0.990667 -11.370102 5.869198 0.000000 0.000000 
-23.095514 118.218559 9.328977 2.186607 15.817440 0.000000 0.000000 
40.510769 113.622009 4.524863 -9.300346 7.065617 0.000000 0.000000 
-33.441013 116.302849 9.587968 -10.954666 5.625462 0.000000 0.000000 
40.346386 114.069336 0.677384 -8.871910 6.370209 0.000000 0.000000 
-42.364861 113.493034 6.076015 -12.513107 4.943428 0.000000 0.000000 
-23.418835 119.207916 9.520630 -3.001556 10.238682 1.000000 1.000000 
35.443424 116.813469 1.079876 -12.176956 5.223289 0.000000 0.000000 
-30.127508 118.658012 -2.956084 -8.788834 7.778862 0.000000 0.000000 
-7.121437 123.366524 -5.413871 -8.200096 8.897266 0.000000 1.000000 
-7.328407 123.505074 -5.487574 -9.464447 7.052402 0.000000 0.000000 
-7.448966 123.516174 -5.450445 -10.393883 6.895985 0.000000 0.000000 
-32.491825 119.508736 10.218698 -7.966759 8.114998 0.000000 0.000000 
-31.819172 120.565445 13.471447 -3.356209 9.777794 0.000000 0.000000 
-32.730652 120.357048 12.655236 -9.321426 8.497601 0.000000 0.000000 
42.126713 117.755592 2.849857 -8.397385 6.541912 0.000000 0.000000 
-35.097305 120.587151 13.193358 -6.135536 9.918896 0.000000 0.000000 
36.411320 120.227516 2.494949 -9.482262 4.211327 1.000000 1.000000 
-34.358974 121.216858 13.182222 -2.279900 10.563896 0.000000 0.000000 
34.540737 121.342552 3.442685 -9.086342 7.203945 0.000000 0.000000 
38.275082 120.449089 3.181281 -10.201897 5.988270 0.000000 0.000000 
36.548328 121.462700 2.754484 -6.477661 7.937141 0.000000 0.000000 
37.245628 121.317177 1.177300 -4.843811 7.991337 0.000000 0.000000 
-33.640038 122.765190 12.765992 -6.144768 7.454437 0.000000 0.000000 
37.950634 121.983017 1.357681 -11.570868 4.041946 0.000000 1.000000 
-20.975258 126.318741 -7.769196 -5.441689 8.928074 1.000000 1.000000 
-33.639927 124.144653 14.753101 -6.732117 7.491905 0.000000 0.000000 
-20.681789 127.562637 -8.234597 -13.254463 4.669739 1.000000 1.000000 
-21.780668 127.489868 4.399339 0.679565 13.775166 0.000000 0.000000 
-22.460405 127.569878 3.472568 -4.361748 9.663059 0.000000 0.000000 
-21.736549 127.829285 4.358334 -1.173485 11.454388 0.000000 0.000000 
-21.749544 127.865349 3.427860 -1.280106 11.900043 0.000000 0.000000 
-21.815660 128.149048 3.957650 -0.448540 13.205576 0.000000 0.000000 
-20.870768 128.473602 -9.299906 -2.332115 10.617580 0.000000 0.000000 
-21.280798 128.427704 -10.275773 -0.036690 13.607435 0.000000 0.000000 
-21.284788 128.611084 -3.591166 8.758850 19.560770 1.000000 1.000000 
-21.648361 128.619507 4.652723 -5.395500 8.578785 0.000000 0.000000 
-22.487112 128.722641 3.643897 -12.117920 4.541355 1.000000 1.000000 
-21.426956 129.173065 4.957489 -7.831802 7.118103 0.000000 0.000000 
-21.348799 129.578629 -3.709175 11.428551 23.329597 0.000000 0.000000 
-21.837118 129.557693 3.764068 -4.694382 10.956257 1.000000 0.000000 
-21.608072 129.845535 -3.123104 13.728065 23.663582 0.000000 0.000000 
-21.890202 129.985168 3.712120 -1.349426 14.601439 0.000000 0.000000 
-21.666388 130.250107 -3.532001 7.584030 18.483585 1.000000 1.000000 
-21.705635 130.291504 0.402592 -2.104439 8.297794 1.000000 1.000000 
107.076057 74.517563 9.928476 16.770645 15.097342 0.000000 1.000000 
-23.638653 130.335419 5.196772 -8.164131 7.963173 0.000000 0.000000 
-23.349775 130.451904 4.670824 -7.693581 7.849964 0.000000 0.000000 
-22.638351 130.732712 -2.536782 10.695732 22.717552 1.000000 1.000000 
-21.162321 131.077728 1.599368 -2.761917 10.156387 1.000000 1.000000 
-22.427645 131.351318 -2.373852 15.284805 24.860888 0.000000 0.000000 
-22.428812 131.356049 -2.580416 17.965706 27.854172 0.000000 0.000000 
-22.375484 131.511932 -2.233998 16.997444 27.512020 0.000000 0.000000 
-19.906469 132.359833 3.522219 2.089241 20.061438 0.000000 0.000000 
-21.792297 132.222717 3.420499 7.479050 20.615236 0.000000 0.000000 
-21.113764 132.448547 -10.229717 6.127945 20.510887 0.000000 0.000000 
-19.518015 132.893616 -9.582929 3.987991 20.003914 0.000000 0.000000 
-20.548544 133.140228 4.994245 3.683449 15.646162 0.000000 0.000000 
-20.236759 133.274536 3.982758 5.813370 17.480757 0.000000 0.000000 
-21.337725 133.137390 1.801356 -2.463318 10.179459 0.000000 0.000000 
-20.548834 133.816895 -9.755146 2.586548 17.008551 1.000000 1.000000 
-21.839331 133.657135 5.615479 -7.117981 7.654148 0.000000 0.000000 
6.805196 135.585938 -6.192862 -2.835579 12.401409 1.000000 1.000000 
41.654411 129.450012 4.843595 -4.560143 8.378777 0.000000 0.000000 
6.516767 136.228058 -6.201839 5.122887 19.086245 0.000000 1.000000 
-22.075174 134.549011 3.724095 1.711555 17.694857 0.000000 0.000000 
6.837523 136.314392 -5.950266 3.641174 18.309500 0.000000 0.000000 
-22.764982 134.683624 -1.898046 -8.065163 5.224606 1.000000 1.000000 
-22.387066 134.946625 3.399137 -3.234245 9.244640 0.000000 0.000000 
-21.185452 135.172577 -9.303864 -10.919121 8.837605 0.000000 0.000000 
-66.691811 119.174095 2.526320 -7.986595 4.290932 0.000000 1.000000 
-22.422699 135.215363 -3.487310 -9.306412 3.826221 1.000000 1.000000 
40.989136 130.743378 2.834245 -6.461853 5.767681 0.000000 0.000000 
-22.832909 135.381439 -1.929870 -11.458626 3.680099 1.000000 1.000000 
40.916534 130.980911 2.814610 -7.332932 5.822937 0.000000 1.000000 
-22.524145 135.899780 -5.405826 -1.564964 11.546516 0.000000 0.000000 
-22.747448 135.957764 -1.957917 0.945251 12.587509 0.000000 0.000000 
40.724697 131.598282 3.533125 -1.222343 10.758308 0.000000 0.000000 
-23.253033 136.363708 -1.763893 -13.051262 2.924438 0.000000 0.000000 
-22.793201 136.723816 -1.854367 -2.595734 9.085148 0.000000 0.000000 
-22.402708 136.803223 -1.646651 -6.073402 6.107304 0.000000 0.000000 
-22.661440 136.859039 -4.507051 -6.314667 6.389763 0.000000 0.000000 
-22.783449 137.179138 -1.562157 -6.488853 7.382812 0.000000 0.000000 
-22.926432 137.273682 -0.598689 -5.175987 6.857548 0.000000 0.000000 
-22.409103 137.562561 -2.690422 -10.611609 3.698150 0.000000 0.000000 
-22.443398 137.590088 -1.389316 -5.654213 7.591679 0.000000 0.000000 
-8.584203 140.583313 -5.039467 -10.779793 6.299271 0.000000 0.000000 
-21.031767 139.667633 -1.552350 -11.398216 6.392197 0.000000 0.000000 
-23.201200 139.423889 -2.472734 -5.747452 6.277668 0.000000 0.000000 
-21.306313 139.733124 -0.944432 -6.561691 6.447254 0.000000 0.000000 
-22.522247 139.878387 -3.356209 1.198196 11.461666 0.000000 0.000000 
-23.637300 139.694214 4.892066 -0.588608 9.809109 0.000000 0.000000 
-22.264380 139.982727 -1.974820 -1.738640 11.195274 0.000000 0.000000 
-23.303141 140.226379 3.031321 -2.482124 8.897175 0.000000 0.000000 
-23.816336 140.389557 2.521866 -5.418488 6.440037 0.000000 0.000000 
-23.241964 140.502258 -4.235410 -5.850220 6.030407 1.000000 1.000000 
-23.651421 140.533508 1.106969 -9.032684 6.531841 0.000000 0.000000 
-22.459105 140.742004 2.503568 -8.024170 7.958073 0.000000 0.000000 
-23.211994 140.797363 3.127738 -12.603287 6.399509 0.000000 0.000000 
-23.385719 140.916168 3.173358 -9.110680 6.116634 1.000000 1.000000 
-23.562084 140.972137 4.994726 -2.521172 9.208572 0.000000 0.000000 
-23.594664 141.247009 4.741360 -8.919197 4.658844 0.000000 0.000000 
-23.546001 141.447662 5.035500 -7.686142 4.991444 0.000000 0.000000 
-24.135872 141.720978 -8.756714 -7.921532 4.830017 0.000000 0.000000 
-23.450933 142.061371 3.846134 -6.675186 6.185017 0.000000 0.000000 
-23.658762 143.607056 -1.884024 -12.108130 3.666168 0.000000 0.000000 
-21.947830 145.683258 7.775818 -9.449272 6.544064 0.000000 0.000000 
-22.230925 145.680176 7.628954 -8.535225 7.146553 0.000000 0.000000 
-23.363111 146.687286 4.365141 -8.600883 4.762768 0.000000 0.000000 
-24.688385 146.546204 3.434042 -0.703163 9.788372 0.000000 0.000000 
-23.782360 146.762451 -10.592241 0.064598 11.052048 0.000000 0.000000 
-22.470219 147.100800 3.777548 -7.471359 6.398697 0.000000 0.000000 
-24.154755 147.024414 5.136653 -3.818542 6.706409 0.000000 0.000000 
-24.779058 147.253845 2.380347 -6.516739 6.103798 1.000000 1.000000 
-23.677963 147.555206 -4.411077 5.972672 17.883778 0.000000 0.000000 
-24.739584 147.412720 9.108901 4.663826 15.960217 0.000000 0.000000 
-24.661774 147.450714 7.530913 2.121864 12.334965 0.000000 0.000000 
-24.583855 147.842072 2.535624 -3.569984 8.153492 0.000000 0.000000 
-24.923660 148.105896 8.029531 0.923187 11.715118 1.000000 1.000000 
-35.498028 148.701874 11.313246 -9.310303 5.473530 0.000000 0.000000 
-34.490723 149.280273 12.796278 -3.743004 8.203514 0.000000 0.000000 
-34.670654 149.731934 11.306352 -3.208122 7.988026 0.000000 0.000000 
-34.750797 149.737274 11.768718 -1.755775 8.039501 0.000000 0.000000 
-34.648834 149.809998 11.615234 -2.512207 7.801487 0.000000 0.000000 
-35.336102 149.883728 10.930351 -4.646538 6.894936 0.000000 0.000000 
-22.696894 152.544159 -1.704834 -10.408569 4.389748 0.000000 0.000000 
-24.918175 152.712646 2.648044 -6.795235 4.641232 0.000000 0.000000 
-22.096033 153.271729 -9.688100 -6.148811 9.457798 0.000000 0.000000 
-25.536676 152.909058 2.537362 -0.541031 8.940533 0.000000 0.000000 
-22.717997 153.805115 -1.636054 -4.189796 7.213791 0.000000 0.000000 
-23.455971 153.803619 -2.087724 -5.033157 8.344093 0.000000 0.000000 
-28.812719 153.089325 9.334542 -5.750031 6.121223 0.000000 0.000000 
-29.343185 153.000366 10.675404 -6.087242 7.036304 0.000000 0.000000 
-28.590040 153.749420 6.646358 -6.321846 5.837822 0.000000 0.000000 
-25.363729 154.435242 6.649253 -7.263840 5.311321 0.000000 0.000000 
-28.988218 154.233521 5.193607 -5.815651 4.508251 0.000000 0.000000 
-28.421419 154.385681 6.314845 -3.886406 6.216476 0.000000 0.000000 
-24.453257 155.309082 -2.590111 -7.831474 5.860657 0.000000 0.000000 
-23.210487 155.537598 -0.677113 -5.052879 5.522911 0.000000 0.000000 
-31.530592 154.427246 11.394629 -2.421997 8.861610 0.000000 0.000000 
-30.973536 154.799042 8.704901 -5.935837 8.362652 0.000000 0.000000 
-33.180912 154.825867 11.352496 -3.848351 8.311253 0.000000 0.000000 
-32.011795 155.101105 12.277450 -5.215240 7.433197 0.000000 0.000000 
-33.454609 154.827667 12.704945 -3.614227 6.238663 0.000000 0.000000 
-33.219402 154.934631 13.796214 -6.088921 5.853962 0.000000 0.000000 
-31.622704 155.324768 11.345703 -4.509323 7.171318 0.000000 0.000000 
-32.533222 155.541077 10.819434 -4.748436 7.217010 0.000000 0.000000 
-24.612705 157.521576 -3.037888 -0.271919 9.866112 0.000000 0.000000 
-23.997313 157.640869 -1.936879 -0.913498 10.719913 0.000000 0.000000 
-24.310894 157.608429 -2.095817 4.436089 13.245825 0.000000 0.000000 
-24.766291 157.841095 -1.984873 -2.225487 8.622101 0.000000 0.000000 
-26.490448 158.008636 -2.177842 2.559340 11.514011 0.000000 0.000000 
-25.710808 158.142303 -1.604433 0.791809 11.061916 0.000000 0.000000 
-26.277079 158.113953 -2.757118 -6.365234 5.726978 0.000000 0.000000 
-26.801064 158.411682 -1.785167 -1.448952 9.912991 0.000000 0.000000 
-24.912720 159.035156 -0.030459 -1.771088 9.021633 0.000000 0.000000 
-25.346756 159.028442 -0.914243 -3.055206 7.232800 0.000000 0.000000 
-25.715073 158.979584 -1.584281 -2.240738 8.993065 0.000000 0.000000 
-26.127382 158.966156 -3.117154 -2.911690 10.110245 0.000000 0.000000 
-24.989576 159.260925 -1.450086 2.389832 12.371998 1.000000 1.000000 
-26.115904 159.400726 -9.193290 -5.859268 7.215237 0.000000 0.000000 
-25.783960 159.692352 -1.916878 -2.398743 9.350002 0.000000 0.000000 
-26.272715 159.630737 -1.104510 6.632294 16.885664 0.000000 0.000000 
-25.786480 159.760681 -0.377771 3.783072 11.233826 0.000000 0.000000 
-25.435942 159.956696 1.017555 6.485985 16.183706 0.000000 0.000000 
-24.426805 160.508148 -2.847337 -7.740524 3.251476 1.000000 1.000000 
-24.556599 160.538910 6.107650 -4.175362 7.022408 0.000000 0.000000 
-23.358376 160.843384 5.406677 -4.716263 7.061958 0.000000 0.000000 
-23.823761 160.804810 -0.020978 2.024117 9.591721 0.000000 0.000000 
-23.874146 161.083954 3.489365 -4.653259 5.737610 0.000000 0.000000 
-24.918612 161.095306 0.804890 -1.340637 7.676941 1.000000 1.000000 
-23.534639 161.514160 8.303723 -1.684540 9.041245 0.000000 0.000000 
-24.113199 161.474792 -1.576532 -5.538506 8.433125 0.000000 0.000000 
43.714336 157.242462 10.557102 -4.136177 10.787983 0.000000 0.000000 
44.512135 157.105957 7.934500 -6.775307 5.765835 0.000000 0.000000 
-23.280312 162.054871 1.062970 -8.506973 5.142456 0.000000 0.000000 
-25.172237 162.095154 -1.589876 -0.957329 8.157970 0.000000 0.000000 
-25.480425 162.086670 -3.266813 0.125603 8.655270 0.000000 0.000000 
-24.706974 162.237152 -1.504165 0.419258 8.730362 0.000000 0.000000 
-24.225973 163.045929 -1.605682 -9.512421 5.851990 0.000000 0.000000 
-22.023170 163.686188 -1.100628 -11.144394 3.218059 0.000000 0.000000 
-24.422462 163.524780 -1.501498 -10.436934 2.646938 0.000000 0.000000 
-24.901554 163.552643 0.605037 -8.696716 3.279678 1.000000 1.000000 
-31.640186 163.470428 8.606837 -8.209778 4.908005 0.000000 0.000000 
-31.922852 163.415558 7.850478 -8.120827 4.599991 0.000000 0.000000 
-27.324623 164.931854 -2.613088 -6.119553 4.314423 0.000000 0.000000 
-24.491657 166.081635 0.186047 -3.233551 5.883686 0.000000 0.000000 
-24.719580 166.259369 -11.001526 -2.401245 6.375465 0.000000 0.000000 
-23.613691 166.465027 5.351144 -0.532341 8.444969 1.000000 1.000000 
-25.514576 166.506470 -2.059324 -2.223404 7.275223 0.000000 0.000000 
-25.303032 166.650940 0.868638 -8.207863 3.086700 0.000000 0.000000 
-25.261547 166.676178 -4.623347 -7.995705 3.561950 0.000000 0.000000 
-26.059673 166.679382 0.162887 -1.224052 6.874432 0.000000 0.000000 
-24.507076 167.537720 5.980915 2.152840 15.802607 0.000000 0.000000 
-24.129711 167.715729 4.122085 7.280907 14.987495 0.000000 0.000000 
-23.557772 167.828857 0.920381 6.298203 14.266281 0.000000 0.000000 
-25.606110 168.317902 -2.296265 -4.897118 5.718250 0.000000 0.000000 
-23.891432 168.595428 -1.741152 -7.610527 4.435490 0.000000 0.000000 
-24.860889 168.618469 -2.000370 -5.048859 3.836365 1.000000 1.000000 
-24.437561 168.871033 -3.301278 -0.500832 9.249149 0.000000 0.000000 
-24.599901 168.875610 -2.524851 -3.701210 5.617733 0.000000 0.000000 
-24.733534 169.244202 -1.824064 -5.655548 4.918964 0.000000 0.000000 
-25.154627 169.243408 -1.122428 -7.528221 4.471317 0.000000 0.000000 
-25.112411 169.886749 -3.463135 -2.384285 7.417763 0.000000 0.000000 
-23.879150 170.148285 2.075747 0.517822 8.611519 0.000000 0.000000 
-24.885477 170.091522 4.617369 -4.583290 5.267162 0.000000 0.000000 
-25.181501 170.179688 4.367813 -2.726463 7.234657 0.000000 0.000000 
-24.182161 170.845886 6.819324 -6.715698 5.973396 0.000000 0.000000 
-25.202208 171.369446 -3.373974 0.847389 9.562729 0.000000 0.000000 
-23.544228 171.690369 0.940946 -5.926369 3.885769 0.000000 0.000000 
-24.083200 171.850830 5.931911 2.968307 10.147511 0.000000 0.000000 
-25.341627 171.684387 -3.966297 -5.095978 5.124844 0.000000 0.000000 
-24.718424 171.809479 5.368332 3.485161 11.248371 0.000000 0.000000 
-25.765438 171.735443 3.824553 -2.700012 6.905907 0.000000 0.000000 
-25.922850 172.071747 4.466369 -6.781090 5.993938 0.000000 0.000000 
-23.129120 172.750366 -0.420996 -3.785049 7.448875 0.000000 0.000000 
-24.632248 172.538605 -1.688060 -4.428696 7.729042 0.000000 0.000000 
-24.965654 172.916077 5.439379 -2.067413 5.804668 0.000000 0.000000 
-29.282299 172.463745 -0.245090 -6.488564 4.482517 0.000000 0.000000 
-23.416451 173.761658 -4.920178 -7.181160 6.035366 0.000000 0.000000 
-25.931467 173.701630 5.009702 -4.166779 5.969032 0.000000 0.000000 
-24.699566 174.499908 -11.191620 -6.353256 4.579029 0.000000 0.000000 
-25.375452 174.540710 5.700789 -0.896454 6.799091 0.000000 0.000000 
-24.030184 174.783386 -3.429439 -4.510017 4.201347 0.000000 0.000000 
-23.670332 175.021179 -1.788048 -10.364944 2.554130 0.000000 0.000000 
-24.772179 174.934235 -2.747974 -8.371872 3.007797 0.000000 0.000000 
-24.335058 175.059814 -2.613981 -8.421585 3.071728 0.000000 0.000000 
-25.509621 174.922424 0.698560 -7.427696 2.915500 1.000000 1.000000 
-23.707134 175.634705 -4.242076 -10.097061 2.138328 0.000000 0.000000 
-25.701254 175.518768 -3.949531 -6.458221 3.501510 0.000000 0.000000 
-25.713482 175.649170 -3.214134 -3.210625 6.179901 0.000000 0.000000 
-25.240360 176.172913 -3.316470 -9.801605 3.352878 0.000000 0.000000 
-24.476894 177.008942 -3.339879 -7.258820 3.179306 0.000000 0.000000 
-25.572012 177.097504 -2.875162 -3.996094 5.635498 1.000000 1.000000 
-25.647089 177.671661 -3.455522 3.729561 11.308270 0.000000 0.000000 
-24.302631 177.871521 -1.235804 -4.989372 3.806183 0.000000 0.000000 
-25.368740 177.862518 -2.614285 1.782654 10.484615 0.000000 0.000000 
-24.289724 179.899719 -2.459736 -1.705971 7.892288 1.000000 1.000000 
-24.423384 180.318604 -2.600594 4.048531 11.045364 0.000000 0.000000 
-24.779402 180.313049 -2.997463 1.640358 8.914558 0.000000 0.000000 
-24.254465 180.646057 -3.045026 5.561790 13.994724 0.000000 0.000000 
-24.825531 180.700348 -2.400255 -7.987610 4.263264 0.000000 0.000000 
-21.704567 181.342346 -0.120749 -7.927063 4.428619 0.000000 0.000000 
-24.934359 181.537659 -2.931905 -5.563049 4.687786 0.000000 0.000000 
-24.887541 181.792450 -0.483754 -0.236168 6.552208 0.000000 0.000000 
-24.305059 181.987946 -2.601904 -2.036148 6.824913 0.000000 0.000000 
-24.650139 182.119537 -2.404912 -9.786850 3.079750 0.000000 0.000000 
-26.102665 182.217926 2.305700 -7.297020 3.496788 0.000000 0.000000 
-26.785534 182.480682 0.152566 -9.539665 2.760929 0.000000 0.000000 
-24.810167 184.628632 -5.104425 -5.634232 3.257862 0.000000 0.000000 
-24.987112 185.415894 6.464670 -5.460342 4.042747 0.000000 0.000000 
-26.863470 185.966400 6.537004 -4.775902 4.463745 0.000000 0.000000 
-26.244644 186.069885 -10.858435 1.516747 8.973854 0.000000 0.000000 
-25.404634 186.518280 4.572010 -4.872704 4.134388 0.000000 0.000000 
-26.695559 186.483948 5.292024 -1.557381 6.260471 0.000000 0.000000 
-25.559679 186.927612 -2.951287 -5.389709 2.959545 1.000000 1.000000 
-25.812933 186.943695 -9.705148 -1.461983 7.064007 0.000000 0.000000 
-27.466791 186.986389 5.762552 -3.277092 4.186371 0.000000 0.000000 
-26.348654 187.555084 -3.098273 -7.090454 2.930450 0.000000 0.000000 
-27.373714 188.032074 2.676381 -5.160011 3.878666 0.000000 0.000000 
-26.291275 193.227844 -2.868688 -5.469597 3.090038 0.000000 0.000000 
-34.434593 194.824860 7.868328 -6.703415 5.728359 0.000000 0.000000 
-34.412155 194.959351 6.017969 -4.358093 6.882965 0.000000 0.000000 
-32.314198 198.349609 -3.392248 -3.583557 3.986419 0.000000 0.000000 
-30.514467 199.397705 6.164278 -4.396324 4.787399 0.000000 0.000000 
-30.677181 199.430328 7.918990 -4.968178 4.870163 0.000000 0.000000 
-36.150208 199.212524 14.097146 -0.928001 5.293556 0.000000 0.000000 
-36.976261 199.106567 11.991748 -0.653694 5.489605 0.000000 0.000000 
-36.340866 199.286560 14.438740 3.605766 8.450497 0.000000 0.000000 
-32.317219 205.457184 -3.683498 -1.575500 5.286076 0.000000 0.000000 
-32.118153 205.688995 -4.525299 -3.189453 3.468429 0.000000 0.000000 
-29.346546 207.446320 0.169355 -6.306038 2.899101 0.000000 0.000000 
-29.975273 217.710632 7.218935 -1.404289 4.040318 0.000000 0.000000 
-30.081030 217.719727 5.370065 -0.338280 4.990078 0.000000 0.000000 
-34.847553 248.009613 -3.834974 0.709389 4.943378 0.000000 0.000000 
