ply
format ascii 1.0
comment Created by CloudCompare v2.14.beta (Feb  3 2026)
comment Created 2026-05-11T18:21:22
obj_info Generated by CloudCompare!
element vertex 1416
property float x
property float y
property float z
property float rcs
property float snr
property float v
property float label
end_header
-27.467817 -33.028267 -15.855514 -0.996979 22.027508 0.000000 1.000000 
6.330089 -36.601238 -13.508364 -4.744888 21.608181 0.000000 1.000000 
11.995192 -38.592003 -10.887676 -2.584122 24.765768 0.000000 1.000000 
44.547920 -0.130626 -10.781490 -1.460991 24.864977 0.000000 1.000000 
16.191143 -42.633541 -10.822564 -5.232605 19.279154 0.000000 1.000000 
44.259102 10.172778 -12.731892 3.629021 22.291040 0.000000 1.000000 
42.600143 19.576622 -9.144374 0.162247 22.226704 0.000000 1.000000 
53.308071 10.966563 -15.096240 1.025894 18.068825 0.000000 1.000000 
56.660187 10.647842 -15.789440 13.027252 26.731283 0.000000 1.000000 
56.528797 16.540474 -8.985273 7.593918 22.774096 0.000000 1.000000 
62.229946 7.221497 -20.841152 4.732460 22.818817 0.000000 1.000000 
61.651039 11.980070 -11.619571 5.007866 18.913696 0.000000 1.000000 
57.680279 -31.713188 -12.164715 15.723602 27.961571 0.000000 1.000000 
7.185283 -67.836884 -13.140860 0.198349 16.458918 0.000000 1.000000 
54.894428 -53.920280 -12.584075 13.126129 25.963335 0.000000 1.000000 
92.029991 -11.761228 -14.546168 8.113960 18.782032 0.000000 1.000000 
113.418701 -7.295743 -18.775162 6.862267 17.169687 0.000000 1.000000 
114.589432 -7.260950 -20.150185 12.417122 17.725540 0.000000 1.000000 
-10.376269 26.214180 -9.090256 -13.079123 24.884748 0.000000 1.000000 
7.771090 28.869619 -7.495615 -13.437897 24.248825 0.000000 1.000000 
8.161984 28.893328 -7.078912 -17.895470 21.365330 0.000000 1.000000 
7.155628 31.446592 -7.169709 -14.559937 23.799847 0.000000 1.000000 
7.315340 32.578453 -7.608153 -16.079498 21.672337 0.000000 1.000000 
7.042583 39.797417 -9.538004 -19.284599 15.315460 1.000000 1.000000 
8.698616 41.353535 -14.192736 -14.402328 18.231722 0.000000 1.000000 
12.889240 45.553326 -15.819027 -14.891769 16.233938 0.000000 1.000000 
8.249668 54.812546 -18.260189 -9.568230 19.823528 0.000000 1.000000 
7.967715 60.230927 -21.683308 -15.080910 10.943951 1.000000 1.000000 
7.508766 62.211899 -23.883795 -19.712151 8.783283 0.000000 1.000000 
-22.674814 62.154957 -26.156065 -13.736557 11.391357 1.000000 1.000000 
-30.717567 59.996925 -22.555605 -6.165962 16.665644 0.000000 1.000000 
-22.588423 74.264244 -28.869074 -11.576607 10.248146 0.000000 1.000000 
-10.144307 77.920479 -1.401380 -17.425468 5.576222 1.000000 1.000000 
-30.203854 72.700218 -31.435099 -8.928986 10.378788 0.000000 1.000000 
-30.983837 77.005211 -24.579535 -6.522568 14.660685 0.000000 1.000000 
-39.772602 74.730782 -23.747862 -0.934891 16.104265 0.000000 1.000000 
-31.802855 78.981224 -30.179197 -7.695267 14.526709 0.000000 1.000000 
42.943954 76.426254 -31.959713 -8.403992 10.348454 0.000000 1.000000 
42.610405 77.388046 -33.518864 1.416435 14.603106 0.000000 1.000000 
43.517616 77.752029 -35.858727 -3.361725 13.877789 0.000000 1.000000 
-29.601578 85.448792 -12.911484 -14.283943 8.333248 0.000000 1.000000 
-36.665813 84.255424 -14.685530 -14.082068 7.871560 0.000000 1.000000 
-32.637920 88.524368 -14.762939 -11.261931 8.575382 0.000000 1.000000 
-32.832275 88.452957 -28.609190 -11.652083 7.224846 0.000000 1.000000 
-13.977284 102.253822 -32.335781 -15.403458 7.863064 0.000000 1.000000 
-32.216732 98.306488 -33.358513 -9.047470 8.718700 0.000000 1.000000 
-32.051434 98.393951 -13.419393 -10.274788 9.779182 0.000000 1.000000 
-31.539270 99.830544 -15.395668 -5.107948 10.060356 0.000000 1.000000 
-32.223297 99.733063 -14.646111 -11.388870 8.569206 0.000000 1.000000 
-31.620962 100.130951 -13.359997 -2.271477 10.311764 0.000000 1.000000 
46.987965 101.786255 -18.460007 -5.648895 8.192390 0.000000 1.000000 
-31.552353 108.989815 -45.897617 -10.132248 7.117703 0.000000 1.000000 
45.270473 110.447601 -32.372700 -7.783997 6.871640 0.000000 1.000000 
-32.335796 117.197662 -34.534706 -9.542068 7.063969 0.000000 1.000000 
-42.973225 116.492790 -34.433430 -9.388695 6.666443 0.000000 1.000000 
41.684544 117.906334 -47.275749 -7.039787 8.317207 0.000000 1.000000 
-23.554712 130.239075 -31.849009 -2.638374 9.158524 0.000000 1.000000 
-25.037868 148.172913 -19.384655 -8.617149 5.079545 0.000000 1.000000 
79.676033 131.023056 -24.379145 -2.016151 5.168206 0.000000 1.000000 
-26.970541 188.956360 -14.277364 -4.396599 4.365468 1.000000 1.000000 
-25.463833 189.348145 -13.833332 0.346222 8.292793 0.000000 1.000000 
-1.602662 192.315155 -7.225656 -0.075729 9.577576 1.000000 1.000000 
-1.819704 192.588806 -7.686553 -2.602264 7.322606 1.000000 1.000000 
-1.544406 193.012085 -7.012454 -3.019188 6.585412 1.000000 1.000000 
55.572392 -53.023495 20.369053 14.490463 25.238926 0.000000 1.000000 
55.853214 -52.940025 20.163240 16.284828 28.393547 0.000000 1.000000 
92.577896 -12.828293 36.007099 9.685135 18.623955 0.000000 1.000000 
113.841431 -10.418445 21.634363 11.545609 17.446732 0.000000 1.000000 
113.961601 -9.650633 21.626326 11.916008 18.029474 0.000000 1.000000 
5.047377 -116.090523 23.241243 8.615654 17.591204 0.000000 1.000000 
118.245796 11.313541 27.329798 11.745804 17.743807 0.000000 1.000000 
134.447723 9.795207 36.078617 14.471535 16.223551 0.000000 1.000000 
69.372849 -118.409874 24.706152 13.199745 17.876148 0.000000 1.000000 
-12.881060 67.798386 25.934101 -18.258255 10.566845 0.000000 1.000000 
-24.389809 73.144356 21.038269 -6.237953 17.130306 0.000000 1.000000 
-32.642712 77.452423 23.233143 -7.866417 12.529736 0.000000 1.000000 
-32.880436 77.671349 22.998783 -4.517273 14.734850 0.000000 1.000000 
43.179970 74.689148 24.114681 -2.190636 14.328392 0.000000 1.000000 
-34.285908 81.311813 24.221167 -4.546249 13.192358 0.000000 1.000000 
41.985329 77.891418 26.637434 -0.592560 15.331877 0.000000 1.000000 
-27.565258 84.843163 35.687607 -7.797058 13.900408 0.000000 1.000000 
16.881466 90.831696 37.839916 -14.152832 9.943207 0.000000 1.000000 
4.135541 94.936913 22.347578 -17.927063 6.941823 0.000000 1.000000 
-32.012585 96.585846 38.083576 -8.651587 8.399586 0.000000 1.000000 
-31.652208 99.764069 19.785635 -11.736252 6.882782 0.000000 1.000000 
-19.896847 108.723389 43.801998 -15.221046 5.721917 0.000000 1.000000 
36.054661 120.230888 20.468315 -7.694504 9.121693 0.000000 1.000000 
-35.127041 120.992996 40.392548 -6.835640 7.402310 0.000000 1.000000 
59.925137 120.121132 43.411114 6.032997 13.337240 0.000000 1.000000 
-24.839546 148.105713 45.827991 -5.739960 5.592431 0.000000 1.000000 
41.580181 154.507355 31.400782 -5.573578 7.182282 0.000000 1.000000 
17.556517 -17.173115 -7.976930 -6.390099 26.532318 0.000000 1.000000 
26.474262 -1.991109 -6.600206 -5.907753 28.588184 0.000000 1.000000 
25.278044 -14.840446 -6.600071 -0.211716 29.225809 0.000000 1.000000 
28.949865 7.732183 -5.145825 3.176193 28.328751 0.000000 1.000000 
-1.871958 -55.669754 12.200727 9.375542 32.035072 0.000000 1.000000 
68.123543 9.368980 -6.113296 5.333351 18.444139 0.000000 1.000000 
70.252144 -9.731262 -5.979708 8.940498 23.080494 0.000000 1.000000 
70.321236 -10.362112 -5.400939 9.615944 25.427122 0.000000 1.000000 
70.228485 -11.475034 -7.970885 6.202072 20.888147 0.000000 1.000000 
70.299461 -11.595048 -7.725888 3.868004 20.608208 0.000000 1.000000 
5.966801 -150.860245 -9.873210 15.094795 15.551163 0.000000 1.000000 
-10.494020 30.432577 11.598614 -15.934929 21.546793 0.000000 1.000000 
-16.253740 29.074934 9.084197 -7.177597 23.423859 0.000000 1.000000 
14.699647 54.378704 20.855167 -14.659599 12.927370 0.000000 1.000000 
7.641404 57.419235 -10.023432 -10.603226 16.160093 0.000000 1.000000 
27.308384 57.151855 18.331169 -12.476509 9.949623 0.000000 1.000000 
27.088903 57.456200 19.010521 -8.885283 13.369841 0.000000 1.000000 
20.455820 61.804970 -9.183140 -17.846939 9.312077 0.000000 1.000000 
20.478041 62.017380 -7.391649 -5.769333 18.533812 0.000000 1.000000 
26.414913 59.869740 -5.302835 -8.870995 11.154915 1.000000 1.000000 
26.831207 60.405804 -6.340273 -6.193764 13.669273 0.000000 1.000000 
26.909111 60.425369 -4.807102 -0.362556 19.388252 0.000000 1.000000 
-10.836192 76.191742 -12.061429 -8.325417 17.886074 0.000000 1.000000 
32.717682 69.491241 -7.675333 -4.527405 15.441278 0.000000 1.000000 
-32.552696 69.623177 -9.066573 -7.208626 15.407543 0.000000 1.000000 
-11.130493 76.898926 -9.506453 -8.334694 15.805676 0.000000 1.000000 
-11.412232 76.911934 -11.515497 -6.641914 18.125002 0.000000 1.000000 
-30.955153 76.951256 -14.198482 -2.719604 17.952122 0.000000 1.000000 
-37.683426 74.829094 -8.275499 -2.414749 15.190880 0.000000 1.000000 
53.035984 68.263550 -6.860707 8.610931 17.870079 0.000000 1.000000 
46.952248 101.640656 -9.260286 -8.092148 7.454445 0.000000 1.000000 
37.656757 108.129036 -9.594749 -9.271156 6.122975 0.000000 1.000000 
-21.360453 128.598145 -3.844969 10.707657 21.250328 1.000000 1.000000 
-21.494074 130.279526 -3.515303 9.442856 20.280724 1.000000 1.000000 
-22.090502 130.227386 -3.495033 1.000000 5.543046 1.000000 1.000000 
-22.586699 130.741882 -2.745053 10.454140 22.557289 1.000000 1.000000 
-20.269608 133.860657 -10.189918 2.898743 16.746601 1.000000 1.000000 
-26.239216 156.307434 -4.323758 1.000000 3.162388 1.000000 1.000000 
-6.258348 50.147827 -3.187458 0.718018 25.110382 1.000000 1.000000 
-7.200816 50.289478 -3.212905 -4.101685 17.173733 1.000000 1.000000 
7.172825 135.566376 -5.328623 -1.223412 13.218132 1.000000 1.000000 
2.203810 -8.661526 0.014670 -21.901398 21.865713 1.000000 1.000000 
2.030590 12.472767 -0.063242 -34.937050 14.682919 1.000000 1.000000 
2.045588 12.801195 -0.095052 -36.084290 12.194427 1.000000 1.000000 
2.125478 14.166660 -0.118267 -28.294556 12.405426 1.000000 1.000000 
2.189152 14.636886 -0.081347 -36.065186 7.991906 1.000000 1.000000 
2.053545 16.323883 -0.342671 -18.237358 24.953833 1.000000 1.000000 
-0.383620 -6.056339 -0.169596 -6.567440 44.864117 0.000000 0.000000 
-0.472229 -6.094222 -0.420677 -9.923393 40.041092 0.000000 0.000000 
-0.307261 -6.123410 1.418464 -9.447403 44.106827 0.000000 0.000000 
0.187740 -6.211535 -0.327208 -1.835609 47.506851 0.000000 0.000000 
0.046358 -6.205180 -0.186675 -6.537624 44.182510 0.000000 0.000000 
0.305315 -6.292921 -0.294320 -4.974308 44.926838 0.000000 0.000000 
-0.039365 10.106424 0.106079 -20.407482 32.476952 1.000000 0.000000 
-0.851971 11.143517 -0.026499 -12.515594 32.587475 0.000000 0.000000 
0.052842 12.109000 -0.029873 -12.193007 36.502380 0.000000 0.000000 
-0.514699 12.377020 0.023934 -11.786690 36.876644 1.000000 0.000000 
-3.413790 17.918036 1.432793 -31.170982 11.921013 1.000000 0.000000 
-3.709340 18.518427 0.399330 8.594154 43.758293 0.000000 0.000000 
-3.834530 18.730755 0.277153 9.025719 41.905739 0.000000 0.000000 
-3.694843 18.927799 -0.191465 2.554947 37.893223 0.000000 0.000000 
-4.862215 20.941975 -0.591922 3.598091 38.957905 0.000000 0.000000 
-4.913962 20.933952 -0.732449 2.375893 37.046268 0.000000 0.000000 
0.213028 22.206797 -0.831880 2.460686 32.800220 1.000000 0.000000 
-5.061030 21.625084 -0.688588 0.620758 35.792168 1.000000 0.000000 
0.190163 22.524231 -0.870327 -0.925560 29.768299 0.000000 0.000000 
0.093502 22.545084 -0.871713 -3.674728 26.337933 0.000000 0.000000 
0.282233 22.864986 -0.829688 19.461258 47.998047 0.000000 0.000000 
0.255635 22.980761 -0.848531 18.039009 47.963047 0.000000 0.000000 
0.053348 23.258326 -0.732730 -6.030190 26.010925 0.000000 0.000000 
0.072773 23.629730 -0.859561 -10.182167 23.394337 1.000000 0.000000 
-21.264189 -1.725096 0.032038 -9.795166 26.550041 0.000000 0.000000 
-18.037071 -12.104130 -3.991345 -7.975708 25.512272 0.000000 0.000000 
-19.380842 -11.142039 0.461133 -1.430717 30.558277 0.000000 0.000000 
-19.057928 -12.120754 -0.517471 -4.144897 31.416082 0.000000 0.000000 
-21.493345 -14.407411 1.266712 -6.817291 22.808439 0.000000 0.000000 
-26.816109 -2.668115 2.812910 -9.949821 23.385952 0.000000 0.000000 
-26.702232 -12.751756 1.445443 1.027405 27.935297 0.000000 0.000000 
-21.205793 -21.424824 3.699830 -3.428421 26.799210 0.000000 0.000000 
-24.176989 -20.591763 2.846677 -5.185898 23.467335 0.000000 0.000000 
-31.432371 -1.008291 10.950634 -7.135597 27.304245 0.000000 0.000000 
-29.931931 -14.096599 2.193213 -4.089516 22.925739 0.000000 0.000000 
-20.005009 -30.733719 1.215034 1.701286 25.743692 0.000000 0.000000 
-37.804314 -4.587153 12.417351 -6.100235 23.254520 0.000000 0.000000 
-20.065041 -33.305710 2.844352 -1.475288 24.098885 0.000000 0.000000 
-20.262526 -33.378036 3.717656 -3.880135 19.961113 0.000000 0.000000 
-38.475750 -6.111643 1.831624 -4.863846 21.224205 0.000000 0.000000 
-38.468842 -7.907823 2.012765 -3.246193 22.271507 0.000000 0.000000 
-38.799782 -7.286395 2.160396 2.013649 25.400507 0.000000 0.000000 
-20.240158 -34.650536 3.022081 1.289307 24.534702 0.000000 0.000000 
-38.462612 -19.840813 1.472348 4.452118 26.112078 0.000000 0.000000 
-38.441780 -20.196724 2.181683 8.368248 29.618872 0.000000 0.000000 
-45.544415 -4.285812 4.529719 -0.695076 21.166615 0.000000 0.000000 
-45.700020 -3.369551 3.578711 -2.324242 22.251343 0.000000 0.000000 
-47.692566 -3.555081 3.772140 -2.347466 19.758455 0.000000 0.000000 
-48.094944 -4.596237 3.062634 -5.481224 18.325436 0.000000 0.000000 
-21.677496 -39.943626 -6.419461 5.112419 23.787596 0.000000 0.000000 
-21.273041 -57.221836 3.290156 5.610016 20.516289 0.000000 0.000000 
-22.221893 71.980728 6.433861 -2.678589 20.609610 0.000000 0.000000 
-22.920832 71.798492 5.785807 -0.058578 20.064001 0.000000 0.000000 
-22.047995 72.118797 7.962497 -2.033791 21.730368 0.000000 0.000000 
-23.304926 72.159721 4.888487 -6.722351 16.844627 0.000000 0.000000 
-23.559704 72.347748 3.211563 -2.715271 19.875759 0.000000 0.000000 
-23.241827 72.621529 3.683818 -7.839035 17.230396 0.000000 0.000000 
-22.481762 73.329674 5.355995 -7.775352 16.624445 0.000000 0.000000 
-21.289213 74.185173 5.901793 -9.470894 14.677372 0.000000 0.000000 
-23.488827 74.385208 10.823380 -9.371460 11.795807 0.000000 0.000000 
-22.656502 74.701973 10.669211 1.769516 21.165220 0.000000 0.000000 
-22.833963 74.948326 10.650913 1.337776 19.113420 0.000000 0.000000 
-22.163836 75.184021 9.257960 -13.640938 10.891991 0.000000 0.000000 
-22.650997 75.044327 10.854067 -2.344711 16.221859 0.000000 0.000000 
-22.513924 78.403290 5.248373 -8.610420 13.617476 0.000000 0.000000 
-21.053736 79.516930 7.090043 -10.158409 13.905792 0.000000 0.000000 
-6.640393 116.448814 -5.183361 -16.489166 5.256356 0.000000 0.000000 
-7.162165 116.448647 -3.542690 -12.192000 5.720154 0.000000 0.000000 
-7.057260 116.703705 -3.770080 -13.256264 6.197213 0.000000 0.000000 
-6.926056 117.669846 -5.457557 -14.426468 6.836689 0.000000 0.000000 
-6.610623 123.373444 -4.486332 -9.974060 8.083946 0.000000 0.000000 
-7.249108 123.361992 -5.742665 -8.231483 9.839565 0.000000 0.000000 
-7.489711 123.364105 -5.366498 -9.605820 8.688335 0.000000 0.000000 
22.607580 30.286232 0.964395 0.427254 21.201607 0.000000 0.000000 
23.128654 29.922104 1.331166 -6.955711 17.551464 0.000000 0.000000 
22.653412 30.533216 1.163271 -3.240669 22.223278 0.000000 0.000000 
-6.016341 -0.985399 -0.580273 -0.924515 50.193619 0.000000 0.000000 
-6.018055 -1.018021 -0.593044 4.841225 54.956936 0.000000 0.000000 
-6.069798 -1.017294 -0.620589 6.682247 57.089569 0.000000 0.000000 
-6.831292 -0.013997 0.158154 1.152367 49.729828 0.000000 0.000000 
-6.940478 0.005430 0.170235 6.354424 55.347542 0.000000 0.000000 
-6.868035 1.906912 -0.811925 -13.771420 40.433865 0.000000 0.000000 
-6.525115 -6.667017 -0.172825 -13.348990 36.114891 0.000000 0.000000 
-6.403809 -10.355525 1.570210 -9.117798 33.710590 0.000000 0.000000 
-6.171231 -10.844215 -2.872839 -15.248680 28.853609 0.000000 0.000000 
-6.561338 -10.766546 0.175342 -13.193976 29.535864 0.000000 0.000000 
-6.898250 -10.840956 0.102237 -12.534514 32.241394 0.000000 0.000000 
-6.947180 -11.006358 -0.190672 -12.753960 32.728886 0.000000 0.000000 
-6.744027 -11.209991 1.238438 -10.892097 28.687359 0.000000 0.000000 
-6.624709 -11.565434 -0.427821 -15.193672 27.775818 0.000000 0.000000 
-6.701982 -11.635195 1.094052 -9.379242 31.398083 0.000000 0.000000 
-6.795960 -11.632613 0.286067 -10.765602 28.629284 0.000000 0.000000 
-6.796370 -11.692518 0.801214 -9.952644 28.915886 0.000000 0.000000 
-6.630491 -11.859257 0.046740 -12.592842 28.594364 0.000000 0.000000 
-6.780339 -11.994407 -0.059027 -14.092102 28.417395 0.000000 0.000000 
-6.634394 -12.125371 0.006245 -15.098228 26.560413 0.000000 0.000000 
-6.497391 -12.352963 -0.870688 -11.047089 29.184238 0.000000 0.000000 
-6.320420 -12.495203 -2.815627 -9.864449 29.158119 0.000000 0.000000 
-6.221652 -12.793872 0.327848 -11.074615 33.136940 0.000000 0.000000 
-6.298503 -12.764588 -0.055571 -5.327423 34.360031 0.000000 0.000000 
-6.534374 -12.912208 0.749620 -8.449028 32.059624 0.000000 0.000000 
-6.621693 -13.015009 0.820581 -11.405861 28.368387 0.000000 0.000000 
-6.720085 -13.049218 2.512334 -12.407135 27.219341 0.000000 0.000000 
-6.818510 -13.035649 -1.233870 -11.495543 26.990593 0.000000 0.000000 
-6.301476 -13.526553 -0.436094 -10.952393 29.341660 0.000000 0.000000 
-6.399670 -13.737554 -0.249450 -14.450188 27.457348 0.000000 0.000000 
-6.653867 -13.888950 -0.572993 -12.761650 25.009579 0.000000 0.000000 
-6.381690 -14.997116 0.237276 -10.579933 26.502769 0.000000 0.000000 
-6.415746 -15.019744 0.329392 -8.908562 27.957111 0.000000 0.000000 
-6.655514 -15.141936 0.364379 -13.739182 23.487526 0.000000 0.000000 
-6.380466 -15.410636 0.603366 -8.044495 29.428194 0.000000 0.000000 
-6.324440 -15.551898 0.656249 -7.612373 28.288691 0.000000 0.000000 
-6.936179 -15.625422 1.347357 -5.116905 30.141090 0.000000 0.000000 
-6.971095 -15.614100 1.245841 -6.007721 30.777340 0.000000 0.000000 
-6.219787 -16.341942 -2.701704 -11.154747 24.268002 0.000000 0.000000 
-6.101566 -16.841740 -0.317798 -13.864853 23.257378 0.000000 0.000000 
-6.087902 -16.888504 -0.753625 -10.277443 26.418919 0.000000 0.000000 
-6.732758 -17.050049 -0.187660 -9.045975 24.734730 0.000000 0.000000 
-6.639763 -17.184296 -0.276333 -10.089790 24.726692 0.000000 0.000000 
-6.780039 -18.643890 3.296610 -6.031006 29.262241 0.000000 0.000000 
-6.780473 -18.751419 -0.762554 -4.604568 30.988028 0.000000 0.000000 
-6.262459 -19.038757 0.860744 -6.437798 29.045265 0.000000 0.000000 
-6.208035 -19.306419 -0.721885 -9.168251 28.764084 0.000000 0.000000 
-6.130607 -19.337650 -1.211248 -8.913635 24.932270 0.000000 0.000000 
-6.563656 -20.097717 -0.320920 -10.764870 24.239138 0.000000 0.000000 
-6.447998 -20.175060 0.359201 -15.708908 22.191381 0.000000 0.000000 
-6.285255 -20.566265 -1.143634 -7.966431 25.220030 0.000000 0.000000 
-6.781070 -24.324627 -2.056010 -10.362511 25.526693 0.000000 0.000000 
-5.880029 -26.663105 -0.330084 -8.768974 23.864796 0.000000 0.000000 
-7.601027 -45.057766 1.060915 -1.899582 19.381998 0.000000 0.000000 
-5.557838 -48.912842 5.713910 -4.074661 20.651512 0.000000 0.000000 
-6.859619 -13.394322 -0.428858 -3.479118 30.117418 0.000000 0.000000 
-6.361528 -14.921502 0.146324 -8.752823 28.534834 0.000000 0.000000 
-6.361551 -15.230507 -0.431489 -6.802109 28.811949 0.000000 0.000000 
-6.434635 -16.171658 1.697267 -5.994072 30.831837 0.000000 0.000000 
-6.657069 -16.896770 -0.106628 -4.496620 29.383947 0.000000 0.000000 
-7.186716 -16.696205 -0.700334 -3.225410 29.050505 0.000000 0.000000 
-6.503253 -17.200268 -0.792080 -6.883797 26.906925 0.000000 0.000000 
-6.370416 -18.295826 0.337469 -14.181725 22.817486 0.000000 0.000000 
-7.812551 -18.130898 -0.132153 -2.178772 30.708874 0.000000 0.000000 
-7.670817 -18.297668 0.909740 -1.117485 32.028698 0.000000 0.000000 
-7.899024 -18.655617 -3.795361 -12.059265 26.975687 0.000000 0.000000 
-7.211586 -19.708637 0.009453 -3.644226 29.396046 0.000000 0.000000 
-7.120163 -21.508881 -0.124506 -0.735672 31.261074 0.000000 0.000000 
-7.047155 -21.605053 0.309526 -1.569283 30.729252 0.000000 0.000000 
-6.972288 -24.537491 1.112966 -0.025391 31.213511 0.000000 0.000000 
7.717780 -15.267270 3.349479 -7.833878 25.287905 0.000000 0.000000 
7.193339 -5.234289 0.018745 3.577309 46.781616 0.000000 0.000000 
7.307798 -5.325073 -0.012320 5.052643 49.939026 0.000000 0.000000 
8.705483 -4.001006 -0.920549 -0.245453 40.277020 0.000000 0.000000 
8.759811 -3.889179 -0.430740 -3.690994 37.952202 0.000000 0.000000 
7.321415 -8.487672 -1.380970 7.177193 47.620193 0.000000 0.000000 
7.378779 -8.623076 -1.744789 2.874725 43.147400 0.000000 0.000000 
8.335201 -27.034191 2.293766 -5.557236 23.337347 0.000000 0.000000 
10.003788 -38.787483 -4.944582 0.139771 23.209442 0.000000 0.000000 
9.775089 -39.833675 1.201377 1.174057 24.507477 0.000000 0.000000 
11.243762 -40.116810 -5.737933 3.884720 24.899443 0.000000 0.000000 
10.859867 -40.675655 0.293414 1.801247 24.865067 0.000000 0.000000 
9.383609 -41.137665 0.057793 1.300423 23.904121 0.000000 0.000000 
7.045211 -33.975452 -0.770332 -2.447243 22.882845 0.000000 0.000000 
7.305594 -34.224800 0.114090 1.619492 28.173428 0.000000 0.000000 
7.127460 -35.158470 -0.538079 0.566971 28.820026 0.000000 0.000000 
7.613650 -35.124870 0.454681 1.921295 29.324520 0.000000 0.000000 
7.159460 -36.406124 -0.333321 -4.511734 22.491634 0.000000 0.000000 
10.699580 -38.821812 3.024043 -5.698601 22.004215 0.000000 0.000000 
8.493207 -40.317017 -2.387656 4.013458 26.454620 0.000000 0.000000 
8.323863 -47.849136 12.560594 4.314262 25.855206 0.000000 0.000000 
10.328275 -54.964245 3.401032 12.315025 33.299324 0.000000 0.000000 
13.915641 -2.715011 0.743886 0.862274 41.328377 0.000000 0.000000 
14.051443 -2.718338 0.615105 -2.586693 36.587776 0.000000 0.000000 
13.054906 -7.104240 2.509693 -9.697121 30.733616 0.000000 0.000000 
20.714046 1.076629 0.007359 -1.377670 33.237411 0.000000 0.000000 
27.578203 0.201423 0.575539 3.957031 36.554600 0.000000 0.000000 
27.588861 0.203203 0.520621 2.509155 32.639534 0.000000 0.000000 
29.393497 0.015076 -1.597125 -3.358994 26.503159 0.000000 0.000000 
38.815266 -0.679508 0.334578 11.079430 34.515270 0.000000 0.000000 
38.869247 -0.790119 0.225022 8.978676 33.730362 0.000000 0.000000 
40.132507 -1.176861 -1.468510 -1.142784 22.303806 0.000000 0.000000 
16.899399 8.736449 0.721666 10.090675 39.069229 0.000000 0.000000 
18.800350 7.910237 5.578357 -0.986137 34.892914 0.000000 0.000000 
18.363997 9.780629 0.020131 9.594154 42.210888 0.000000 0.000000 
18.411108 10.019328 -0.060570 8.259193 41.564011 0.000000 0.000000 
19.822950 8.772126 5.823793 -8.736732 25.066448 0.000000 0.000000 
21.914597 9.557981 0.709474 4.710548 37.964348 0.000000 0.000000 
21.935823 9.740968 1.077370 1.319481 33.205418 0.000000 0.000000 
21.681059 10.244530 0.708279 5.669456 36.336052 0.000000 0.000000 
26.376532 8.811183 0.003596 12.615318 37.763142 0.000000 0.000000 
26.498672 8.746778 -0.446484 11.969154 37.121384 0.000000 0.000000 
28.055115 8.167630 5.290882 1.295494 27.028179 0.000000 0.000000 
28.595911 8.629426 -0.374426 14.274063 36.975372 0.000000 0.000000 
28.567032 8.756632 -0.246551 16.886620 39.090954 0.000000 0.000000 
30.456585 8.275143 -0.648676 8.852287 33.401344 0.000000 0.000000 
30.507694 8.109367 -0.587858 9.546371 33.198853 0.000000 0.000000 
32.374535 9.023680 -0.649190 16.621429 36.656334 0.000000 0.000000 
32.299278 9.267591 -0.775397 16.969185 38.694458 0.000000 0.000000 
32.381367 9.184073 -0.734069 20.145523 42.098866 0.000000 0.000000 
34.451481 8.837216 -1.262989 15.378036 36.629135 0.000000 0.000000 
34.534206 8.934419 -0.988252 14.833710 35.135941 0.000000 0.000000 
6.086569 -68.749977 5.447137 3.937416 19.292770 0.000000 0.000000 
2.525544 -7.675582 -0.180874 -2.331032 42.793808 0.000000 0.000000 
2.521955 -7.701466 -0.229466 -0.120193 43.517242 0.000000 0.000000 
2.221724 -8.111277 -0.001273 -7.169098 38.731506 0.000000 0.000000 
2.381274 -8.085800 0.003632 -2.821800 42.493271 0.000000 0.000000 
2.626452 -8.152211 -0.025511 -4.446533 42.098610 0.000000 0.000000 
2.564545 -8.881701 0.068189 -3.560043 40.402260 0.000000 0.000000 
2.594888 -8.916125 0.032997 -3.075584 41.151581 0.000000 0.000000 
2.303114 -9.263886 0.025217 -6.865402 36.139366 0.000000 0.000000 
2.413309 -9.476694 0.128906 0.848877 41.858231 0.000000 0.000000 
2.405414 -9.514496 0.089485 3.579086 45.375870 0.000000 0.000000 
2.444923 -10.238695 -0.196738 -4.299706 39.075417 0.000000 0.000000 
2.531261 -10.209453 -0.054800 -3.981522 40.456814 0.000000 0.000000 
2.298905 -10.532177 -0.037047 -2.631058 40.142818 0.000000 0.000000 
2.261068 -10.551844 -0.141545 -5.022011 35.701469 0.000000 0.000000 
2.077793 -10.814380 -0.451280 -4.120888 36.746792 0.000000 0.000000 
2.143100 -10.853743 -0.268239 -3.679115 36.572811 0.000000 0.000000 
2.171822 -10.998684 -0.344340 -6.804070 34.315857 0.000000 0.000000 
2.346186 -0.966778 0.035591 -13.828636 51.028305 0.000000 0.000000 
2.492952 -0.974575 0.035238 -13.576710 55.630554 0.000000 0.000000 
2.413878 -2.023795 0.020216 -25.199368 33.603165 0.000000 0.000000 
2.441729 -2.076878 -0.000940 -27.020733 41.104118 0.000000 0.000000 
2.418251 -2.502468 0.135867 -23.598457 40.862381 0.000000 0.000000 
2.461557 -2.599167 0.050704 -22.014843 41.525200 0.000000 0.000000 
2.402342 -2.855991 -0.026506 -19.936710 43.594734 0.000000 0.000000 
2.406802 -3.124350 -0.095393 -28.353172 38.699364 0.000000 0.000000 
2.501040 -3.538979 0.113440 -13.308703 45.880127 0.000000 0.000000 
2.510309 -3.617929 0.073842 -9.802399 47.751823 0.000000 0.000000 
2.450063 -3.946235 0.052515 -17.986927 42.166595 0.000000 0.000000 
2.454275 -4.137429 0.029457 -14.228905 41.899014 0.000000 0.000000 
2.474883 -4.184354 0.060334 -14.512024 44.238354 0.000000 0.000000 
2.433378 -4.469757 -0.076504 -16.904446 40.362400 0.000000 0.000000 
2.449863 -4.529730 -0.094117 -20.219536 39.751564 0.000000 0.000000 
2.463660 -4.604888 -0.102117 -19.795479 39.249863 0.000000 0.000000 
2.473666 -4.735499 -0.048972 -19.665569 36.121033 0.000000 0.000000 
2.454814 -5.061059 0.069064 -9.439991 43.150299 0.000000 0.000000 
2.475590 -5.159135 0.069807 -11.285412 42.447380 0.000000 0.000000 
2.395805 -5.347634 -0.186848 -12.402367 40.191673 0.000000 0.000000 
2.444110 -5.501313 -0.004202 -1.709976 45.357246 0.000000 0.000000 
2.442544 -5.503520 0.025529 0.686760 54.819599 0.000000 0.000000 
2.485067 -6.246313 0.160864 -9.037605 42.160931 0.000000 0.000000 
2.482205 -6.359775 0.046069 -5.584045 44.353203 0.000000 0.000000 
2.488521 -6.468835 -0.142884 -7.174606 44.850266 0.000000 0.000000 
2.475446 -6.745239 0.094487 -6.927521 43.924313 0.000000 0.000000 
2.471777 -6.794666 -0.015016 -6.250938 41.770164 0.000000 0.000000 
2.426425 -7.063659 -0.113987 -9.043709 44.584099 0.000000 0.000000 
2.435483 -7.228981 -0.074817 -2.857010 43.836246 0.000000 0.000000 
2.446649 -7.229486 0.078662 -4.396400 43.760956 0.000000 0.000000 
2.372938 -7.512514 0.072410 -10.169899 39.008057 0.000000 0.000000 
2.284264 -7.537233 0.071275 -7.915710 38.712437 0.000000 0.000000 
2.369536 -7.661687 0.054366 -7.855576 38.900658 0.000000 0.000000 
2.325531 -7.939250 0.069455 -2.516144 42.361664 0.000000 0.000000 
2.287310 -8.121585 -0.165353 -9.561728 39.880722 0.000000 0.000000 
2.294156 -8.256016 -0.483439 -12.868796 36.196526 0.000000 0.000000 
2.209908 -8.766642 -0.131529 -0.995674 43.944695 0.000000 0.000000 
2.255930 -8.955689 0.003434 4.720436 45.657787 0.000000 0.000000 
2.252968 -8.957839 -0.004563 3.220291 46.510166 0.000000 0.000000 
2.159424 -9.427353 -0.078782 -0.922417 42.703552 0.000000 0.000000 
2.246063 -9.466605 0.105366 -4.367233 40.352215 0.000000 0.000000 
2.178188 -9.686561 -0.292770 -3.849892 37.642933 0.000000 0.000000 
2.193325 -9.794742 -0.281697 -4.692749 37.278618 0.000000 0.000000 
2.185947 -9.955571 -0.192515 -4.168007 39.882927 0.000000 0.000000 
2.279146 -10.129467 -0.343977 -2.712807 37.950947 0.000000 0.000000 
2.169567 -10.231751 0.114146 -3.341370 38.806938 0.000000 0.000000 
2.192058 -10.366412 -0.016515 -5.199707 37.820515 0.000000 0.000000 
2.226623 -10.599154 -0.106138 -1.240814 41.806473 0.000000 0.000000 
2.255348 -10.617819 -0.044793 -2.283211 39.797653 0.000000 0.000000 
2.130753 -11.058969 -0.378308 1.498901 43.219685 0.000000 0.000000 
2.150807 -11.110378 -0.220217 1.562721 42.941162 0.000000 0.000000 
2.147448 -11.601127 0.227558 -6.253479 36.640076 0.000000 0.000000 
2.254646 4.774644 -0.015999 -28.348385 24.247433 0.000000 0.000000 
2.418362 4.814325 -0.036107 -27.669823 25.983545 0.000000 0.000000 
2.332996 5.967659 -0.070379 -39.567604 18.837435 0.000000 0.000000 
2.455922 6.538237 -0.072216 -38.955700 21.179272 0.000000 0.000000 
2.291718 6.959659 0.036983 -10.954062 43.723801 0.000000 0.000000 
2.318408 6.985250 0.040963 -11.230494 44.784920 0.000000 0.000000 
2.384463 7.449654 -0.081321 -26.768738 30.257233 0.000000 0.000000 
2.290711 7.624498 -0.076983 -30.860344 27.199286 0.000000 0.000000 
2.287964 7.908140 -0.038301 -21.255516 33.078178 0.000000 0.000000 
2.372644 7.975069 -0.032436 -21.898239 35.035114 0.000000 0.000000 
2.413198 8.407891 -0.020162 -24.752911 28.603367 0.000000 0.000000 
2.275326 8.593017 -0.140580 -37.757183 22.579018 0.000000 0.000000 
2.269018 8.957834 0.016806 -8.534798 41.221905 0.000000 0.000000 
2.301427 9.001375 0.021095 -6.632706 42.556099 0.000000 0.000000 
2.322247 9.736833 -0.098231 -22.808975 24.740622 0.000000 0.000000 
58.038513 1.054907 0.281809 8.426392 27.334597 0.000000 0.000000 
58.048801 0.832471 0.269914 14.133667 29.962532 0.000000 0.000000 
64.051682 -9.562779 2.024316 6.185722 22.791674 0.000000 0.000000 
64.025017 -9.761667 2.049583 3.982147 20.974308 0.000000 0.000000 
-6.752354 -13.895820 4.391336 -13.232048 25.446358 0.000000 0.000000 
-18.256332 -2.000156 -0.518546 3.086082 42.532761 0.000000 0.000000 
-18.411705 -2.528229 -0.305646 3.025902 39.003757 0.000000 0.000000 
-18.677904 -2.132094 -0.236508 6.801971 44.086929 0.000000 0.000000 
-18.679356 -2.133137 -0.250758 7.223740 45.578278 0.000000 0.000000 
-20.360661 -0.871870 -1.050411 4.702385 40.622368 0.000000 0.000000 
-20.360847 -0.877316 -0.989755 4.170746 40.079399 0.000000 0.000000 
-18.692465 -11.409736 1.928021 2.833282 35.503647 0.000000 0.000000 
-18.724913 -11.450171 2.011868 1.419037 34.064690 0.000000 0.000000 
-18.725422 -11.473688 2.384815 -4.126396 31.874819 0.000000 0.000000 
-19.266090 -11.345953 0.852193 -0.670929 32.185257 0.000000 0.000000 
-19.713266 -11.427772 1.379320 -1.682983 32.345005 0.000000 0.000000 
-19.721138 -11.510350 1.442678 -0.077347 34.613945 0.000000 0.000000 
-18.300940 -14.316044 -0.648067 15.501328 45.054939 0.000000 0.000000 
-18.399086 -14.344644 -0.804529 13.694328 43.874550 0.000000 0.000000 
-18.532578 -14.574506 -0.818496 1.827850 32.417866 0.000000 0.000000 
-18.599070 -14.491851 -0.784473 -2.063332 32.179379 0.000000 0.000000 
-17.919039 -15.840138 -1.305575 -4.084969 28.261747 0.000000 0.000000 
-17.882053 -15.901258 -0.868810 -4.250465 29.074404 0.000000 0.000000 
-6.847955 -23.007736 4.521258 -3.359390 29.957127 0.000000 0.000000 
-23.862156 -0.063058 -5.871017 -9.871779 25.644455 0.000000 1.000000 
-1.511134 -25.016220 -2.510504 -14.150200 22.010220 0.000000 1.000000 
10.722885 -24.996292 -1.158950 -4.194374 24.763269 0.000000 1.000000 
-6.591689 -27.659218 10.984663 -7.542572 23.151369 0.000000 0.000000 
-29.348751 -7.950644 -5.092595 -1.667465 27.931692 0.000000 1.000000 
14.378172 -26.806396 -1.284775 0.086075 25.516310 0.000000 0.000000 
11.915268 -29.407967 -0.818186 2.332489 29.215702 0.000000 0.000000 
13.822296 -28.487514 0.123819 2.030975 28.967646 0.000000 0.000000 
13.422461 -28.959545 -1.152471 -0.213829 26.179235 0.000000 0.000000 
14.076838 -28.708618 -2.543958 -1.594658 24.157103 0.000000 0.000000 
14.803359 -29.347065 2.414632 0.314812 25.118343 0.000000 0.000000 
11.666251 -31.290886 -1.360870 -2.556778 23.213512 0.000000 1.000000 
2.375410 -34.514397 6.719805 -4.870842 24.505606 0.000000 1.000000 
-35.127487 0.198727 2.336811 0.293495 26.777794 0.000000 0.000000 
-35.235294 0.224511 1.161692 -3.078743 24.222185 0.000000 0.000000 
-35.240005 0.230068 1.900515 -2.367752 23.794376 0.000000 0.000000 
-19.533630 -30.295963 2.768689 0.616089 26.658829 0.000000 0.000000 
-35.521065 -5.416311 3.856563 -0.162582 26.856182 0.000000 0.000000 
-19.724203 -30.750927 2.087347 -0.725754 24.272369 0.000000 0.000000 
-20.246975 -30.658970 11.600248 0.302032 23.235722 0.000000 0.000000 
-36.948395 -2.759841 1.828578 1.194504 27.652056 0.000000 0.000000 
-37.270527 -4.379842 0.494533 -2.457298 24.408419 0.000000 0.000000 
-38.597782 -2.719272 2.921867 -4.166374 23.182121 0.000000 0.000000 
-38.788635 -1.957991 2.392751 -2.190521 25.249268 0.000000 0.000000 
-40.403606 0.996683 2.022971 -4.028519 21.199280 0.000000 0.000000 
-40.446785 1.081591 2.083905 -1.254486 23.617990 0.000000 0.000000 
-40.681534 1.414588 1.548280 5.291687 28.661528 0.000000 0.000000 
-40.791130 1.389625 2.403830 5.716866 29.881479 0.000000 0.000000 
19.092073 -35.957901 1.626679 0.849480 19.488596 1.000000 0.000000 
1.893930 -41.591072 6.296827 -0.048065 23.816723 0.000000 0.000000 
3.498768 -41.690468 7.022951 -5.060867 21.390457 0.000000 0.000000 
-42.649315 3.401975 2.139775 4.384659 27.328175 0.000000 0.000000 
-42.610912 4.114480 1.866901 1.094421 24.226471 0.000000 0.000000 
17.134026 -42.359547 -4.236059 -0.882118 20.026358 0.000000 0.000000 
24.165455 -39.522480 2.066926 15.295677 30.261438 0.000000 0.000000 
21.296579 -44.660988 0.907427 -4.759499 18.178761 0.000000 0.000000 
24.616207 -48.748573 4.528616 2.268181 19.308105 0.000000 1.000000 
-5.661712 -55.210850 2.608387 6.456711 25.098358 0.000000 0.000000 
-6.299862 -55.212620 1.959829 4.505402 22.068865 0.000000 0.000000 
-11.996115 -80.908478 1.982885 11.770699 23.466213 1.000000 0.000000 
-12.530384 -81.167969 1.742131 12.171700 25.144012 1.000000 0.000000 
-11.496670 -84.719513 2.392944 5.691360 16.504200 1.000000 0.000000 
-11.444444 -85.041168 2.058048 10.346962 20.220848 1.000000 0.000000 
-11.557791 -86.174522 2.264560 8.873459 19.477446 1.000000 0.000000 
-13.852702 -90.344765 2.665383 13.315979 21.352346 1.000000 0.000000 
-14.058769 -90.494522 2.598959 13.623535 22.915260 1.000000 0.000000 
-106.894806 -3.512931 6.362972 8.098358 16.262524 0.000000 0.000000 
-107.015610 -3.236758 6.572536 10.044525 19.168640 0.000000 0.000000 
-107.279259 -1.296434 5.155488 14.640610 22.138954 0.000000 0.000000 
-107.284790 -0.801247 6.959883 14.190971 22.036818 0.000000 0.000000 
-107.411095 -5.441779 5.249182 9.018539 20.084297 0.000000 0.000000 
-107.517395 -5.754965 4.659880 9.351547 19.049841 0.000000 0.000000 
-107.412415 -9.212410 1.783008 6.733864 15.092026 0.000000 0.000000 
-115.473511 -2.201848 7.068725 11.470055 19.326759 0.000000 0.000000 
-115.477066 -2.203243 6.058089 9.565460 15.891613 0.000000 0.000000 
56.558895 -103.133461 3.387048 10.641983 11.513630 0.000000 0.000000 
56.440708 -103.308678 10.582244 18.096092 18.171724 0.000000 0.000000 
56.631290 -103.305176 6.731563 16.426071 16.377733 0.000000 0.000000 
68.048378 -106.839211 5.729827 23.065697 18.667524 0.000000 0.000000 
60.876240 -147.410233 8.433072 19.365875 17.665983 0.000000 0.000000 
6.980746 -4.040147 -2.217596 5.836849 50.206036 0.000000 1.000000 
7.278465 -8.403847 -4.057875 0.682564 39.994808 0.000000 0.000000 
11.440940 -3.687605 2.871111 -4.203613 37.247200 0.000000 0.000000 
1.980079 -12.272112 -0.226135 -8.718863 33.787609 0.000000 0.000000 
11.938222 -3.173139 -0.000692 9.081329 48.101250 0.000000 0.000000 
11.938791 -3.176995 0.064552 7.609657 45.770336 0.000000 0.000000 
8.939507 -8.949795 4.823831 -8.530304 33.018013 0.000000 0.000000 
2.893450 -12.580867 0.133317 -10.433464 33.805634 0.000000 0.000000 
4.049881 -12.381181 2.695814 -10.219048 33.353378 0.000000 1.000000 
13.047765 3.295576 0.238541 -9.493567 30.254240 0.000000 1.000000 
12.581106 6.553574 4.185856 -2.497528 32.398178 0.000000 1.000000 
14.912452 2.990469 -0.930545 -8.659332 30.419092 0.000000 1.000000 
15.851347 -0.817981 -0.322937 0.984871 38.865482 0.000000 0.000000 
15.901675 -0.785915 -0.391591 -0.485756 37.281136 0.000000 0.000000 
15.747536 -4.199321 -1.313668 -10.727692 28.065531 0.000000 1.000000 
17.047983 0.398893 -0.641053 8.080162 44.588974 0.000000 0.000000 
17.174805 0.380565 -0.744888 5.152611 42.707634 0.000000 0.000000 
-7.327160 -15.766707 7.204998 -4.614929 30.138363 0.000000 0.000000 
16.911627 8.923123 0.592359 10.164452 39.310928 0.000000 0.000000 
18.015961 -9.717754 6.551883 -1.430855 32.486855 0.000000 0.000000 
21.223549 -2.563011 -1.053057 -7.086205 27.844280 0.000000 1.000000 
21.343298 -5.089873 -2.496000 1.751846 37.179710 0.000000 0.000000 
21.423605 -6.424533 1.896185 -8.742119 28.039539 0.000000 0.000000 
15.700023 -18.588280 3.978900 -9.583664 26.733185 0.000000 0.000000 
24.761274 -14.959492 2.271079 3.263924 31.628208 0.000000 0.000000 
24.951206 -14.640471 2.767696 1.907951 30.713779 0.000000 0.000000 
24.787077 -15.000978 2.068940 -0.797218 28.995975 0.000000 0.000000 
25.905680 -14.802885 0.100214 -2.117455 24.991402 0.000000 0.000000 
27.081146 -13.010365 2.191503 -0.989449 26.779110 0.000000 0.000000 
23.570211 -21.614994 0.823533 4.128014 30.022171 0.000000 0.000000 
23.700718 -21.561119 0.800398 4.932106 32.355522 0.000000 0.000000 
31.052341 7.359461 9.474824 -5.096901 24.330750 0.000000 0.000000 
4.018715 -32.303867 4.109548 -5.404427 25.314962 0.000000 0.000000 
32.578045 1.420509 1.448555 12.953430 38.118336 0.000000 0.000000 
32.696011 1.263484 0.983271 13.466850 40.825630 0.000000 0.000000 
29.162004 13.935644 0.453493 4.611038 33.364548 0.000000 1.000000 
29.238718 15.017435 0.369682 6.705322 30.413549 1.000000 1.000000 
34.038273 -6.028275 -0.235646 -3.112213 25.485754 0.000000 0.000000 
34.472980 -6.196908 10.663940 -5.204727 25.225317 0.000000 0.000000 
6.414069 -36.596256 -0.839825 -2.025429 22.620726 0.000000 0.000000 
33.202122 16.541996 1.291837 3.879646 25.694859 0.000000 0.000000 
32.769676 17.527576 1.557498 -0.763588 23.274069 0.000000 0.000000 
38.587830 7.853889 -0.744368 6.797569 27.851732 0.000000 0.000000 
38.623928 7.885604 -0.436320 9.984291 29.727997 0.000000 0.000000 
38.832016 7.753333 -1.191805 5.331047 28.887884 0.000000 0.000000 
3.451056 -41.499962 6.183783 -4.737442 21.703909 0.000000 0.000000 
38.061462 15.341922 2.260682 -0.303284 22.314892 0.000000 0.000000 
41.670261 -0.186637 0.514016 14.172318 35.884815 0.000000 0.000000 
41.672745 -0.301479 1.466279 15.461678 36.577572 0.000000 0.000000 
38.187038 15.979169 -0.129906 2.425766 25.565336 0.000000 0.000000 
6.754170 -41.931744 1.655886 -0.067726 22.914551 0.000000 0.000000 
43.118111 -0.361838 1.781155 6.074730 28.935413 0.000000 0.000000 
43.251392 -0.427682 1.853792 5.868973 27.432211 0.000000 0.000000 
42.618069 8.808505 -1.211810 17.187325 35.017063 0.000000 0.000000 
42.651897 8.845998 -1.279660 15.591003 33.708588 0.000000 0.000000 
44.383301 9.714148 0.249256 8.635315 27.272871 0.000000 0.000000 
46.611931 7.921276 -2.136795 18.530846 33.315868 0.000000 0.000000 
46.658207 8.217633 -4.322525 19.632721 35.398212 0.000000 0.000000 
36.350761 -34.095795 11.063464 -3.301773 18.147638 0.000000 1.000000 
46.604076 16.764305 1.136357 15.620338 32.612564 0.000000 0.000000 
46.757435 16.453449 0.684470 14.720650 31.098816 0.000000 0.000000 
47.487041 15.494006 -1.878753 5.879959 25.753906 0.000000 0.000000 
47.339363 15.926738 0.602665 3.508652 22.700407 0.000000 0.000000 
47.881687 -17.003654 2.380515 -0.312721 18.964703 0.000000 1.000000 
50.457760 9.421799 -0.349184 10.793991 28.011391 0.000000 0.000000 
50.394325 9.728025 -0.292851 13.847420 32.780758 0.000000 0.000000 
50.402660 14.499140 -2.048661 3.566101 19.429611 0.000000 0.000000 
50.290760 14.917194 -1.026080 5.370529 21.129982 0.000000 0.000000 
50.137112 16.000809 2.068608 -0.330521 18.247097 0.000000 1.000000 
52.656204 8.623377 0.030058 13.463631 32.956478 0.000000 0.000000 
52.556103 9.167772 0.113562 16.199478 32.251213 0.000000 0.000000 
52.559006 9.345222 0.074484 18.891304 33.108696 0.000000 0.000000 
52.682808 8.715764 -0.019504 15.658569 34.105980 0.000000 0.000000 
53.614555 10.140739 -1.831583 2.648613 19.719425 0.000000 0.000000 
54.908234 7.103382 -0.257143 22.640999 37.999912 0.000000 0.000000 
54.959908 7.159018 -0.593072 19.871941 34.484123 0.000000 0.000000 
24.730303 -51.457348 2.501917 1.417625 22.708921 0.000000 1.000000 
56.176128 7.808140 13.798253 2.181396 22.271280 0.000000 0.000000 
56.944157 6.175409 -2.739840 19.622742 34.894852 0.000000 0.000000 
57.081932 5.336853 13.494263 12.933723 28.865440 0.000000 0.000000 
56.679882 9.692127 1.499453 15.673050 27.975197 0.000000 0.000000 
56.628735 10.092529 -0.143203 12.537186 26.692827 0.000000 0.000000 
55.724560 16.730206 -0.930539 8.156380 21.711042 0.000000 0.000000 
58.555836 8.613322 -1.274320 20.785355 33.354774 0.000000 0.000000 
58.684246 8.708685 -1.071455 21.039970 34.441448 0.000000 0.000000 
59.538460 11.738035 -2.940584 2.723709 18.011459 0.000000 0.000000 
60.447025 9.575780 -0.446162 23.911819 36.546600 0.000000 0.000000 
60.409309 9.790446 -0.330387 20.118103 33.200104 0.000000 0.000000 
61.927219 -9.522267 2.618105 7.776375 24.653446 0.000000 0.000000 
62.020889 -9.251339 3.000319 10.510315 25.956724 0.000000 0.000000 
62.023457 -10.676275 2.524951 5.700836 22.453997 0.000000 0.000000 
62.099476 -11.057002 2.367760 5.845276 22.714338 0.000000 0.000000 
62.720081 8.348204 -2.047744 11.812424 27.375156 0.000000 0.000000 
62.723759 8.573559 -2.280941 11.667534 27.600925 0.000000 0.000000 
63.482872 12.409369 3.075924 3.600143 18.767941 0.000000 1.000000 
57.660782 -31.515591 1.582091 13.259323 27.627022 0.000000 0.000000 
57.635826 -31.755760 2.967119 15.998421 27.873707 0.000000 0.000000 
57.524063 -32.202763 5.535043 17.302742 29.518932 0.000000 0.000000 
66.355827 -10.821564 1.206271 2.893829 18.936985 0.000000 0.000000 
66.264099 10.268415 0.586135 4.951958 20.070684 0.000000 1.000000 
66.722443 -10.649038 -1.651128 11.021896 28.238707 0.000000 0.000000 
66.741417 -10.764535 -0.359012 14.260201 29.493496 0.000000 0.000000 
67.543640 -11.594287 5.238879 1.975708 18.332865 0.000000 0.000000 
67.919510 10.403956 -1.567248 4.397179 18.564594 0.000000 0.000000 
67.727341 13.317572 2.471976 23.111595 32.570290 0.000000 0.000000 
67.909966 12.950044 1.801699 24.614098 35.201359 0.000000 0.000000 
69.784615 -9.990653 6.431818 5.554161 19.324181 0.000000 0.000000 
69.978668 -9.223539 8.509650 4.342438 18.860107 0.000000 0.000000 
70.407829 9.622993 0.391302 10.343231 24.263447 0.000000 0.000000 
70.435051 9.495731 0.764263 11.526169 22.152264 0.000000 0.000000 
57.716930 -43.297470 3.351675 7.405113 22.599955 0.000000 0.000000 
57.857368 -43.357903 5.057065 13.623993 26.716709 0.000000 0.000000 
72.551796 9.125053 -0.110764 29.378746 39.076038 0.000000 0.000000 
72.643257 8.863894 -0.152265 26.060539 34.803402 0.000000 0.000000 
74.811653 6.862072 -2.671307 12.276070 23.654680 0.000000 0.000000 
74.889938 6.862570 -3.351302 16.227242 26.909088 0.000000 0.000000 
74.852959 7.915820 -3.716226 9.422188 22.177101 0.000000 0.000000 
76.740715 8.224750 -0.938099 15.208954 26.448748 0.000000 0.000000 
76.869415 7.505625 -2.140722 14.193871 25.138636 0.000000 0.000000 
8.240208 -77.186386 -0.985933 11.260445 25.586670 0.000000 0.000000 
8.008991 -77.225357 -1.669179 14.956047 28.053333 0.000000 0.000000 
78.659332 8.525592 -1.765746 20.353317 30.546383 0.000000 0.000000 
78.872025 7.993239 -2.488095 18.785828 28.726933 0.000000 0.000000 
80.613770 8.251691 -2.805464 12.280113 22.501282 0.000000 0.000000 
80.637527 9.167097 -1.056397 15.015564 26.562126 0.000000 0.000000 
80.665886 9.411551 -0.500860 11.816437 22.730577 0.000000 0.000000 
83.411102 -9.409586 11.206189 4.075668 17.350769 0.000000 0.000000 
55.875278 -64.056892 4.963131 11.188820 18.638010 0.000000 0.000000 
-33.241970 -77.874146 5.803537 4.073448 14.893530 0.000000 0.000000 
84.483513 10.440029 -1.847992 9.937706 23.140656 0.000000 0.000000 
86.230507 11.476110 2.559761 13.664261 21.830996 0.000000 0.000000 
86.342979 11.073041 1.592512 14.103081 21.182289 0.000000 0.000000 
57.583614 -67.911949 4.736057 18.493095 25.659903 0.000000 0.000000 
58.271599 -67.586693 4.945561 16.260490 24.147415 0.000000 0.000000 
88.609749 9.552719 3.232641 13.157051 22.254419 0.000000 0.000000 
88.558823 10.004181 2.127280 17.242050 24.818527 0.000000 0.000000 
89.459595 -1.000270 -1.705146 5.464012 16.567448 0.000000 0.000000 
89.312149 -9.503895 10.006262 6.979813 21.657616 0.000000 0.000000 
90.469254 9.968925 1.713277 21.873146 28.603212 0.000000 0.000000 
90.586052 10.257045 1.447801 24.895973 31.695473 0.000000 0.000000 
91.165588 -10.999248 8.289258 7.990654 22.291842 0.000000 0.000000 
91.185921 -11.586123 7.898455 7.654556 21.848682 0.000000 0.000000 
91.105270 -12.291914 8.470111 9.127075 23.631916 0.000000 0.000000 
91.307518 -12.416388 8.937388 8.139717 18.882988 0.000000 0.000000 
91.330872 -12.766820 9.774679 12.891953 23.316088 0.000000 0.000000 
91.368080 -12.621244 13.616281 13.920692 24.354954 0.000000 0.000000 
91.434753 -12.810670 11.064892 8.880066 20.617640 0.000000 0.000000 
91.546143 -12.461150 15.355745 11.143669 23.104723 0.000000 0.000000 
91.870956 -12.336469 11.594780 9.644508 19.123007 0.000000 0.000000 
92.785027 7.998492 -1.073601 19.175476 27.524416 0.000000 0.000000 
92.829079 8.113663 -1.497430 17.170418 24.659121 0.000000 0.000000 
92.736099 -12.283945 12.504708 7.743309 17.945238 0.000000 0.000000 
95.297066 -10.619146 8.975868 8.058525 17.333483 0.000000 0.000000 
96.379158 -11.471068 8.320502 7.687614 19.573959 0.000000 0.000000 
96.370888 -11.964916 8.493173 8.944817 19.617790 0.000000 0.000000 
108.531631 -9.573951 9.358023 10.912346 17.341888 0.000000 0.000000 
107.800224 16.142361 -0.040725 16.068466 21.445259 0.000000 0.000000 
112.702057 8.918221 0.653369 6.747734 13.867496 0.000000 0.000000 
113.501976 -9.013869 13.356477 12.205269 17.072824 0.000000 0.000000 
113.546364 -8.884562 15.301899 15.861832 20.396158 0.000000 0.000000 
114.461716 -7.853669 11.421419 14.567482 18.635164 0.000000 0.000000 
6.482586 -115.969658 -3.575214 9.295868 16.138683 0.000000 0.000000 
7.699668 -115.959633 0.068378 6.797356 13.893682 0.000000 0.000000 
55.780071 -103.478317 -1.388184 14.145088 20.146526 0.000000 0.000000 
55.268669 -103.754082 -1.495205 13.734406 20.183083 0.000000 0.000000 
118.247757 2.602187 -3.749372 15.620125 20.790731 0.000000 0.000000 
118.280884 2.917561 1.963584 18.067032 21.577036 0.000000 0.000000 
118.473091 2.292370 5.820811 10.999359 19.492754 0.000000 0.000000 
5.443264 -118.894630 1.180320 4.698357 14.418028 0.000000 0.000000 
118.626915 8.306822 -4.047844 14.197067 18.635601 0.000000 0.000000 
118.856552 8.106043 -6.474681 12.443115 18.740036 0.000000 0.000000 
118.831001 8.925936 -4.814914 13.886414 18.836433 0.000000 0.000000 
119.902054 1.349353 0.020480 8.568977 16.002125 0.000000 0.000000 
120.385864 0.463822 -1.755675 11.170357 14.645761 0.000000 0.000000 
127.373566 16.995770 4.527153 20.415466 21.530964 0.000000 0.000000 
9.639756 -129.333481 -1.028013 14.101456 17.269918 0.000000 0.000000 
7.529784 -130.681305 -3.164870 11.309753 14.567627 0.000000 0.000000 
7.240115 -131.932938 -1.258576 9.898758 14.389780 0.000000 0.000000 
7.953640 -134.364197 0.848835 16.132851 18.470139 0.000000 0.000000 
6.873538 -135.651581 -1.283782 13.222656 17.795910 0.000000 0.000000 
136.586685 11.632412 -4.023242 15.931717 17.616070 0.000000 0.000000 
138.217117 12.364427 -0.765276 19.559883 21.105106 0.000000 0.000000 
140.448334 10.837893 0.642671 15.479408 15.935524 0.000000 0.000000 
8.492781 -142.127213 -3.208712 14.146744 16.238564 0.000000 0.000000 
142.294556 12.749790 0.901552 20.895584 21.864004 0.000000 0.000000 
8.085792 -143.381760 0.354328 22.881943 25.419270 0.000000 0.000000 
8.046467 -143.855408 -0.502948 10.247536 14.062595 0.000000 0.000000 
7.528526 -144.647949 -2.702897 21.921036 23.090418 0.000000 0.000000 
7.162942 -145.828278 -1.505173 12.693634 15.635748 0.000000 0.000000 
7.536483 -145.876846 -3.488636 19.248634 21.496466 0.000000 0.000000 
146.365707 13.035240 6.957552 21.519035 22.095554 0.000000 0.000000 
7.863826 -147.096100 -1.103128 25.071388 26.848682 0.000000 0.000000 
8.296433 -148.302612 -3.866140 21.334839 22.715370 0.000000 0.000000 
148.421387 13.122906 2.656229 18.157104 18.200863 0.000000 0.000000 
6.615412 -149.610168 -3.623705 18.243752 19.934603 0.000000 0.000000 
150.121216 13.418912 -2.520262 14.133751 15.189486 0.000000 0.000000 
150.517715 12.454189 6.750394 16.089767 15.786165 0.000000 0.000000 
8.371662 -151.171783 -3.577206 12.004158 14.852678 0.000000 0.000000 
152.500961 13.121727 0.534077 14.127800 14.201166 0.000000 0.000000 
163.976089 -15.985567 12.529867 15.806129 18.812580 0.000000 0.000000 
57.806015 -158.989670 6.948588 13.803276 15.382671 0.000000 0.000000 
7.634923 -173.372192 -6.607649 21.066704 20.153469 0.000000 0.000000 
176.099716 64.964745 19.114737 34.160652 26.910519 0.000000 0.000000 
186.079926 62.556732 19.949457 22.255219 15.930784 0.000000 0.000000 
192.557831 63.889648 7.249628 18.010010 13.014030 0.000000 0.000000 
3.035690 10.610650 0.059293 -30.669212 10.495178 1.000000 1.000000 
2.296598 12.324819 0.393192 -15.839882 32.814796 0.000000 0.000000 
2.214604 12.840312 -1.014183 -11.357254 35.013306 0.000000 0.000000 
2.199620 13.102068 -1.159543 -10.712784 33.392509 0.000000 0.000000 
2.276476 13.529396 -0.076612 -2.193115 37.994698 0.000000 0.000000 
2.360688 13.953628 -0.107903 -0.102066 40.937229 0.000000 0.000000 
2.475554 14.266007 0.072720 -31.435921 10.162113 1.000000 1.000000 
2.322889 14.383634 -0.157118 3.046638 43.385307 0.000000 0.000000 
2.311996 14.395261 -0.160726 0.256454 39.629768 0.000000 0.000000 
2.301272 14.495377 -0.149630 2.094704 40.846764 0.000000 0.000000 
2.350754 14.843359 -0.125794 -3.679382 35.204651 0.000000 0.000000 
2.267199 15.183851 0.142372 -10.017838 35.137611 0.000000 0.000000 
2.269460 15.287686 0.177345 -13.055481 36.134758 0.000000 0.000000 
2.319660 15.722178 0.339682 -6.665787 35.296459 0.000000 0.000000 
2.331660 15.817453 0.270908 -7.989296 31.869694 0.000000 0.000000 
2.254813 16.179100 -0.200273 -15.848885 33.068298 0.000000 0.000000 
2.340416 16.605305 -0.044797 -7.519867 35.446236 0.000000 0.000000 
2.330920 16.713936 -0.034218 -5.539314 34.808548 0.000000 0.000000 
2.202856 16.739695 0.230199 -17.865433 26.993334 0.000000 0.000000 
2.201971 17.223362 -0.056613 -18.228401 27.863415 0.000000 0.000000 
2.268527 17.515095 -0.169349 -3.665672 36.496002 0.000000 0.000000 
2.288615 17.535500 -0.090703 -3.114517 36.552929 0.000000 0.000000 
2.312429 17.948637 0.293067 -6.660248 30.717699 0.000000 0.000000 
2.401650 18.237434 -0.182171 -11.637062 27.001175 1.000000 1.000000 
2.346034 18.263390 0.336723 -4.023170 30.152779 0.000000 0.000000 
2.337697 18.361656 -1.346343 -5.855446 33.943275 0.000000 0.000000 
2.264424 18.700048 0.032914 -11.430771 26.844713 0.000000 0.000000 
2.028675 19.480652 0.019490 -20.781494 15.962049 1.000000 1.000000 
2.397863 19.490736 -0.214180 -28.424583 10.984390 1.000000 1.000000 
2.176431 19.741852 -0.064411 3.141403 40.027756 0.000000 0.000000 
2.214008 19.872196 0.192052 2.771393 39.198353 0.000000 0.000000 
2.175405 20.431726 0.360558 -3.926819 32.976105 0.000000 0.000000 
2.248304 20.451448 -0.112453 -1.239883 36.998535 1.000000 1.000000 
2.149446 20.576958 -0.546455 8.318954 45.728497 0.000000 0.000000 
2.188746 21.001471 -0.485525 5.477249 41.593658 0.000000 0.000000 
2.221102 21.002083 -0.449366 -0.601318 34.028965 0.000000 0.000000 
2.464414 21.298046 -0.164015 -31.862892 9.847202 1.000000 1.000000 
2.703369 23.547173 0.656292 -13.890213 28.547392 0.000000 0.000000 
-6.527480 22.906761 0.250691 -8.825516 26.028885 0.000000 0.000000 
-6.565035 23.075693 0.372600 -5.712662 30.316746 0.000000 0.000000 
-7.359829 24.172670 0.544701 -14.818985 26.474823 0.000000 0.000000 
7.770294 24.938005 -1.311182 -12.213135 25.957935 0.000000 0.000000 
3.312911 26.552774 -0.339678 -12.672829 24.884777 0.000000 0.000000 
7.226496 25.811476 0.109827 -8.878693 27.332924 0.000000 0.000000 
-6.213705 26.315775 4.192772 -17.146812 24.298647 0.000000 0.000000 
-6.270357 26.334614 4.690644 -14.544525 24.627497 0.000000 0.000000 
-7.381639 26.907373 1.477140 -16.333664 24.241789 0.000000 0.000000 
7.469028 27.680021 2.849332 -11.316925 24.253462 0.000000 0.000000 
7.559355 27.750027 3.394802 -12.732506 26.059763 0.000000 0.000000 
8.000661 29.156906 7.035527 -16.897034 21.493172 0.000000 0.000000 
-23.728701 16.267944 7.949561 7.386909 23.967201 0.000000 0.000000 
8.689614 29.206944 4.541060 -8.547813 28.047579 0.000000 0.000000 
-0.341446 30.828783 -1.110307 -14.363045 25.390785 0.000000 1.000000 
8.534629 29.701378 3.099938 -13.454903 22.926380 0.000000 0.000000 
-13.949293 27.730682 0.178039 -11.938254 22.489693 0.000000 0.000000 
9.011403 30.502123 11.379162 -18.110565 19.811680 0.000000 0.000000 
6.675010 31.550903 10.994860 -20.036003 20.755238 0.000000 0.000000 
6.871002 31.727154 2.281098 -14.880417 21.082699 1.000000 1.000000 
6.940161 32.302254 2.297377 -0.767235 32.563980 0.000000 0.000000 
7.046638 32.376831 2.402724 -0.749229 33.337307 0.000000 0.000000 
6.691197 32.474461 7.533405 -14.957848 22.969645 0.000000 0.000000 
6.669250 32.715599 -0.776385 -17.341484 17.163494 1.000000 1.000000 
6.359059 32.997269 4.460026 -13.283821 23.091286 0.000000 0.000000 
6.919055 33.746872 -0.794096 -1.055786 31.965733 0.000000 0.000000 
6.929780 33.878994 -0.924713 -3.745583 30.024658 0.000000 0.000000 
6.296338 34.299583 7.338639 -14.710464 20.537607 0.000000 0.000000 
15.429502 30.876785 0.957416 -2.247459 28.305368 0.000000 0.000000 
6.185399 34.584061 -1.004248 -11.725243 25.368273 0.000000 0.000000 
7.485884 34.487541 3.428672 -12.812201 22.613743 0.000000 0.000000 
7.683427 34.633240 3.648022 -14.833511 20.378963 0.000000 0.000000 
7.745064 34.627483 3.659661 -13.317085 20.551302 0.000000 0.000000 
7.775990 34.864876 3.472956 -13.899712 22.233326 0.000000 0.000000 
6.256319 35.338856 0.542163 -17.805641 18.181410 0.000000 0.000000 
6.627747 35.301918 -0.735323 -18.312149 19.229782 0.000000 0.000000 
8.613927 35.098923 2.038211 -7.147629 28.576624 0.000000 0.000000 
6.939566 35.525169 3.956423 -9.010506 26.904186 0.000000 0.000000 
6.487816 35.967648 -0.447506 -11.123131 23.610022 0.000000 0.000000 
15.552558 32.778793 0.811899 -6.280952 24.448652 0.000000 0.000000 
6.340297 36.101894 11.903944 -6.410797 27.048508 0.000000 0.000000 
6.293842 36.370987 1.575397 -4.933372 27.924549 0.000000 0.000000 
6.635695 36.432098 2.826859 -8.233231 25.123280 0.000000 0.000000 
7.124573 36.433376 -0.089760 -13.741928 21.687599 0.000000 0.000000 
6.208276 36.939423 -0.354841 -13.555283 22.345419 0.000000 0.000000 
6.969903 36.839203 3.000221 -13.890244 22.782652 0.000000 0.000000 
7.031448 37.010830 3.707336 -9.463257 23.843260 0.000000 0.000000 
6.549522 37.625053 0.280697 -16.465202 17.725731 0.000000 0.000000 
-20.323862 32.905090 -5.102795 -5.707375 21.002634 0.000000 1.000000 
7.001765 39.077679 -0.170253 -15.110176 19.830177 0.000000 0.000000 
7.251451 39.309036 -0.205667 -16.687408 19.158871 0.000000 0.000000 
21.277876 34.042923 2.451321 -11.976729 16.320635 0.000000 0.000000 
33.926933 18.701830 0.191285 6.760849 20.271055 0.000000 0.000000 
6.131679 40.940742 10.107443 -17.874809 18.920229 0.000000 0.000000 
7.241208 41.294662 -1.129133 -14.387825 18.250381 1.000000 1.000000 
9.094326 41.192169 3.697402 -15.239861 18.019836 0.000000 0.000000 
8.406329 41.390190 4.621467 -12.516388 21.216652 0.000000 0.000000 
6.938945 41.769360 -1.327005 -7.810066 23.220695 0.000000 0.000000 
7.411163 41.789654 -1.095917 -9.771828 22.174444 0.000000 0.000000 
7.401409 42.009605 -0.911137 -7.642265 24.622602 0.000000 0.000000 
4.582110 42.897881 -0.402972 -17.312340 17.468525 0.000000 0.000000 
5.238814 42.822372 -0.593359 -6.755493 22.420910 0.000000 0.000000 
5.192719 42.836998 -0.581142 -9.092476 21.046646 0.000000 0.000000 
5.532091 43.108070 -0.577280 -14.261032 18.429199 0.000000 0.000000 
10.267328 42.275063 5.813987 -15.749268 16.924358 0.000000 0.000000 
12.074601 41.797649 11.729002 -15.850578 15.188929 0.000000 0.000000 
5.192849 43.581234 -0.577130 -7.601181 21.099319 0.000000 0.000000 
5.194345 43.624863 -0.524851 -15.444565 17.324881 0.000000 0.000000 
5.276143 43.621574 -0.493649 -6.342636 22.422150 0.000000 0.000000 
5.262691 43.693218 -0.348779 -12.201317 18.704908 0.000000 0.000000 
5.334007 43.708874 -0.551926 -7.676582 22.498943 0.000000 0.000000 
5.119167 44.055977 -0.137437 -14.563896 16.667788 0.000000 0.000000 
5.455582 44.044834 -0.655147 -18.426270 12.825798 1.000000 1.000000 
5.325992 44.122707 -0.720589 -13.155449 19.181105 0.000000 0.000000 
7.547400 43.816254 2.742951 -9.871712 22.087227 0.000000 0.000000 
7.909655 43.920513 3.315001 -2.434563 27.725773 0.000000 0.000000 
7.458389 44.151318 4.985677 -12.232765 19.821054 0.000000 0.000000 
8.032974 44.070179 3.530678 -6.970749 23.635315 0.000000 0.000000 
7.533307 44.244633 5.633492 -8.880951 21.125143 0.000000 0.000000 
5.461310 44.914726 -0.550846 -13.403557 15.619444 1.000000 1.000000 
36.964642 22.706480 0.052948 3.510468 16.447632 0.000000 0.000000 
6.872937 44.812336 1.250919 -16.879120 16.700689 0.000000 0.000000 
6.963653 44.889145 11.342876 -10.903824 20.097330 0.000000 0.000000 
7.479842 44.991970 5.830859 -13.196609 15.617031 1.000000 1.000000 
13.591572 43.512062 0.947156 -12.649307 17.176792 0.000000 0.000000 
7.689886 45.548691 -6.032810 -11.621100 17.918179 0.000000 0.000000 
12.410282 44.704918 1.920314 -18.867752 13.860508 0.000000 1.000000 
6.404444 46.274872 5.984711 -14.246872 17.456041 0.000000 0.000000 
6.972534 46.431828 6.453125 -10.993988 21.022413 0.000000 0.000000 
6.978179 46.499699 6.133083 -13.994576 17.339060 0.000000 0.000000 
6.463027 46.989594 5.777759 -12.669456 18.022993 0.000000 0.000000 
7.351668 47.298279 5.594748 -14.176932 16.164715 0.000000 0.000000 
7.870680 47.229012 5.388216 -4.973579 23.604645 0.000000 0.000000 
7.186814 47.353027 6.305760 -10.567757 20.350828 0.000000 0.000000 
36.642517 28.456097 1.177061 5.734215 18.069084 0.000000 0.000000 
8.042110 47.622681 4.399550 -10.011780 20.587549 0.000000 0.000000 
8.186486 47.609840 3.978486 -11.260428 20.955389 0.000000 0.000000 
35.038177 31.612965 1.202787 16.919846 26.562580 0.000000 0.000000 
34.757454 32.176418 0.787312 7.260796 18.959839 0.000000 0.000000 
35.038910 31.880562 1.067023 10.464767 21.821274 0.000000 0.000000 
35.205231 31.776350 1.406211 14.387001 25.382593 0.000000 0.000000 
8.611056 47.981457 -1.609200 -9.732353 20.635773 0.000000 0.000000 
-7.133720 48.328712 -0.914466 -12.503227 14.572405 1.000000 1.000000 
-6.772943 48.391911 -0.024814 -17.697792 7.932171 1.000000 1.000000 
38.897697 27.008251 5.674914 5.298309 18.506495 0.000000 0.000000 
8.144043 48.644867 -6.675649 -10.525154 16.848007 0.000000 0.000000 
-7.471421 48.788261 -0.979916 -19.875320 8.327286 1.000000 1.000000 
-7.191541 48.922623 -0.937115 7.955078 31.389687 1.000000 1.000000 
-6.835275 48.970108 -0.543928 -17.901062 9.514771 1.000000 1.000000 
7.448973 49.056324 4.653215 -8.370193 20.210112 0.000000 0.000000 
9.639557 48.671185 4.194001 -13.689781 16.615519 0.000000 0.000000 
-6.111666 49.346130 -0.603714 -12.507483 15.184254 1.000000 1.000000 
-6.459339 49.392414 -0.698578 -9.567122 15.294941 1.000000 1.000000 
7.548789 49.231705 4.968969 -7.522629 16.722986 0.000000 0.000000 
7.482419 49.284420 4.698302 -10.847565 18.998920 0.000000 0.000000 
-7.267707 49.401962 -0.871497 -5.059067 22.169439 1.000000 1.000000 
-6.917764 49.475018 -0.781074 -1.985924 21.967739 1.000000 1.000000 
8.091483 49.333538 6.538343 -11.717079 13.381613 0.000000 0.000000 
-6.968038 49.533447 -0.903099 -6.696312 18.904398 1.000000 1.000000 
8.187798 49.353821 3.995046 -8.789436 16.169554 0.000000 0.000000 
-7.188998 49.525749 -0.784680 10.316223 34.822021 1.000000 0.000000 
-6.979895 49.561279 -1.052520 3.250244 27.732758 1.000000 1.000000 
-6.576210 49.626034 -1.216549 -16.146431 9.606346 1.000000 1.000000 
-7.509136 49.502041 -0.983678 5.104858 27.976791 1.000000 1.000000 
-7.049986 49.580379 -0.893495 -18.347931 6.692852 1.000000 1.000000 
-6.926436 49.628426 -1.016355 -18.680901 7.591919 1.000000 1.000000 
8.360614 49.400574 4.896591 -12.198364 12.350883 0.000000 0.000000 
8.443576 49.389015 -6.005007 -9.067389 13.867159 0.000000 0.000000 
-6.405094 49.727524 -0.892832 0.952972 25.299376 1.000000 0.000000 
-6.368463 49.747978 -0.933059 -5.699860 16.947561 1.000000 1.000000 
-7.574643 49.579887 -1.035091 -9.640121 15.150116 1.000000 1.000000 
-6.340234 49.795113 -0.801688 0.475014 22.556309 1.000000 0.000000 
-6.049093 49.868427 0.192559 -16.549698 8.540512 1.000000 1.000000 
-6.984603 49.876278 -0.774246 -22.600647 7.346592 1.000000 1.000000 
-7.885615 49.817982 -0.838563 -5.044624 20.170219 1.000000 1.000000 
-6.347487 50.068066 -0.588478 -3.128654 21.939342 1.000000 0.000000 
-6.442695 50.069740 -0.796461 5.362053 29.693430 1.000000 0.000000 
7.673977 49.897297 5.770674 -16.393547 12.604870 0.000000 0.000000 
7.741777 49.968388 6.300542 -16.914261 10.857162 0.000000 0.000000 
-6.486220 50.280457 -1.057476 -3.021667 17.770975 1.000000 1.000000 
-7.159847 50.196175 -0.959730 -6.171768 17.922165 1.000000 1.000000 
-7.288252 50.229942 -0.895002 14.739891 36.072525 1.000000 0.000000 
-7.136110 50.273407 -0.816790 1.477943 21.133190 1.000000 0.000000 
-6.778026 50.322456 -0.399680 -9.345894 13.912109 1.000000 1.000000 
-7.422752 50.241005 -0.924848 12.173859 33.091541 1.000000 1.000000 
8.548138 50.068176 4.788457 -15.990555 9.266319 1.000000 1.000000 
-8.063807 50.146431 -0.714251 5.153870 31.307955 1.000000 1.000000 
-7.537227 50.252510 -0.819675 -9.532486 18.713257 1.000000 0.000000 
-7.998408 50.180737 -0.539347 9.236336 34.375610 1.000000 0.000000 
7.908628 50.198231 6.032532 -10.966057 13.067062 0.000000 0.000000 
8.935835 50.083138 1.863938 -19.141006 11.468620 0.000000 0.000000 
-6.064741 50.704456 -0.823061 -24.948677 5.710335 1.000000 1.000000 
-7.032084 50.609833 -0.857521 -20.274399 6.938820 1.000000 1.000000 
-7.318994 50.633099 -0.965230 -0.439659 23.463436 1.000000 0.000000 
-7.242652 50.676754 -0.794432 -11.159050 14.049194 1.000000 1.000000 
-7.107768 50.739437 -0.709659 -8.688988 16.896130 1.000000 1.000000 
-7.133702 50.733578 -1.435633 -0.021461 22.799902 1.000000 1.000000 
-6.364630 50.842369 -1.277111 -10.115593 16.039850 1.000000 1.000000 
-6.586899 50.840084 0.091353 -5.435272 18.786388 1.000000 1.000000 
-6.561807 50.908207 -0.327992 -4.247078 20.188864 1.000000 0.000000 
-6.372475 50.941914 -0.958612 -12.706253 12.656654 1.000000 0.000000 
-6.707725 50.928532 2.261116 -10.773659 12.759109 1.000000 0.000000 
-7.322743 50.924026 -0.222375 -17.882607 7.699776 1.000000 1.000000 
7.780916 51.008846 5.702169 -11.429543 17.226101 0.000000 0.000000 
-7.069969 51.185966 -0.011576 -16.293007 11.625557 1.000000 1.000000 
-7.516672 51.142853 -0.482831 -17.714775 9.876324 1.000000 1.000000 
7.629642 51.158638 -8.071315 -16.643806 11.208462 0.000000 0.000000 
-6.593812 51.318104 -1.001207 -20.053596 9.662273 1.000000 1.000000 
7.571378 51.191868 5.285669 -13.670035 18.863228 0.000000 0.000000 
7.262392 51.267365 -6.723182 -16.318871 14.681828 0.000000 0.000000 
7.750831 51.200462 -7.060537 -9.488281 19.388582 0.000000 0.000000 
-7.101365 51.525345 -0.682388 -19.323029 7.226922 1.000000 1.000000 
-7.350962 51.562962 -0.664804 -24.232109 5.059231 1.000000 1.000000 
-6.771872 51.715237 -1.039015 -13.005547 13.103903 1.000000 1.000000 
-7.191143 51.684868 1.152074 -14.485359 12.007332 1.000000 0.000000 
-7.027145 51.821369 -0.211001 -12.577393 14.230814 1.000000 0.000000 
-6.716578 52.333206 -0.058726 -24.035423 7.233784 1.000000 1.000000 
7.945484 52.156319 12.379478 -20.754501 10.879025 0.000000 0.000000 
-7.232402 52.430229 -0.390941 -21.033081 5.919037 1.000000 1.000000 
13.249064 51.291698 4.072111 -10.417038 18.453382 0.000000 0.000000 
12.871777 51.407772 3.520768 -10.021263 17.555487 0.000000 0.000000 
7.448104 53.001598 5.263130 -12.572029 17.059168 0.000000 0.000000 
-7.787639 52.985912 -0.765748 -20.294762 7.816845 1.000000 1.000000 
7.556597 53.192711 3.286275 -18.936607 13.842579 0.000000 0.000000 
7.793592 53.154789 3.850709 -20.088173 13.791136 0.000000 0.000000 
-7.789360 53.264111 -0.920204 -20.529694 6.799504 1.000000 1.000000 
8.207279 53.270561 5.298013 -4.347000 23.185575 0.000000 0.000000 
8.108224 53.319344 6.212059 -13.388283 18.064381 0.000000 0.000000 
8.253582 53.312305 6.078660 -7.700203 20.959938 0.000000 0.000000 
-7.857739 53.686035 -0.781818 -22.367661 4.883870 1.000000 1.000000 
7.099537 53.913280 3.802491 -4.003143 25.640751 0.000000 0.000000 
6.612430 54.000950 -4.049659 -8.923561 20.410406 0.000000 0.000000 
7.441730 54.168175 3.555743 -9.422966 18.969543 0.000000 0.000000 
8.377961 54.129505 3.667157 -6.850708 21.768761 0.000000 0.000000 
8.134241 54.210197 3.677046 -8.218025 19.003761 0.000000 0.000000 
8.367826 54.240143 3.874677 -10.584076 15.766272 0.000000 0.000000 
8.115586 54.623604 3.118091 -10.192635 17.812006 0.000000 0.000000 
7.230447 54.766342 5.591083 -7.353897 19.000628 0.000000 0.000000 
7.441641 54.969421 4.074400 -16.812202 15.624298 0.000000 0.000000 
7.253059 54.996479 3.785896 -15.499069 15.790207 0.000000 0.000000 
6.652704 55.079018 5.303015 -4.008728 21.895206 0.000000 0.000000 
6.569677 55.289120 4.234529 -4.039742 22.851250 0.000000 0.000000 
6.660130 55.284927 4.200468 -6.024338 20.077919 0.000000 0.000000 
6.215851 55.443024 2.980622 -15.110893 15.640146 0.000000 0.000000 
7.310676 55.614849 -7.173639 -11.163147 17.016487 0.000000 0.000000 
7.452666 55.612011 -6.268801 -10.603165 16.393299 0.000000 0.000000 
7.322985 55.696609 5.971902 -5.897591 19.519863 0.000000 0.000000 
7.430475 55.721901 -6.754848 -8.784363 18.143270 0.000000 0.000000 
43.026752 33.770325 1.843752 6.862343 14.391232 1.000000 1.000000 
43.730789 32.845062 1.913179 8.842056 13.827110 1.000000 1.000000 
14.660194 54.493500 3.085607 -8.498177 18.286701 0.000000 0.000000 
43.981613 33.669659 2.075402 17.440025 22.175014 0.000000 0.000000 
44.539242 32.849670 1.403984 20.576096 25.062065 0.000000 0.000000 
44.280987 33.260445 1.850929 20.640945 23.983467 0.000000 0.000000 
45.055981 32.089645 -2.274992 18.596085 22.470596 0.000000 0.000000 
43.326046 34.738365 1.342313 5.844566 15.449995 0.000000 0.000000 
6.908295 56.861061 -4.589100 -16.269707 15.788826 0.000000 1.000000 
44.900826 32.902393 1.702984 6.771790 14.578279 0.000000 0.000000 
7.044922 57.011219 5.326698 -14.803528 18.395954 0.000000 0.000000 
6.923896 57.164711 5.451714 -6.870094 18.982304 0.000000 0.000000 
7.038862 57.356098 5.516226 -4.838409 20.977257 0.000000 0.000000 
6.828932 57.406681 7.341079 -14.510109 14.198879 0.000000 0.000000 
7.083639 57.513718 4.572706 -13.143433 13.720276 0.000000 0.000000 
6.044107 57.644314 3.880552 -10.421927 15.223536 1.000000 1.000000 
8.092548 57.683830 6.035644 -13.374573 15.627728 0.000000 0.000000 
7.394548 57.802975 5.758416 -11.378548 18.968613 0.000000 0.000000 
7.571806 57.839611 3.882289 -10.143738 14.693043 0.000000 0.000000 
7.772312 57.853458 6.119189 -10.938643 17.315132 0.000000 0.000000 
7.583006 58.029846 5.943035 -6.464806 21.083988 0.000000 0.000000 
6.445818 58.273254 5.220531 -12.809105 15.999744 0.000000 0.000000 
6.778851 58.678234 11.064906 -14.101584 14.482502 0.000000 0.000000 
6.417614 58.799805 6.462161 -8.304657 17.211851 0.000000 0.000000 
6.417467 58.911858 3.821748 -3.386108 22.123604 0.000000 0.000000 
6.329062 58.958668 6.319575 -11.501076 15.894825 0.000000 0.000000 
8.045547 58.950531 4.226881 -11.880240 14.639910 0.000000 0.000000 
7.441130 59.100883 6.905924 -12.154083 15.546700 0.000000 0.000000 
7.267278 59.140728 5.390313 -8.372345 18.064428 0.000000 0.000000 
7.301268 59.225941 8.953305 -16.236099 10.285156 1.000000 1.000000 
7.464973 59.425282 5.816149 -18.319397 9.545795 0.000000 0.000000 
7.600491 59.437012 5.978345 -18.832619 11.753494 0.000000 0.000000 
7.035385 59.591282 7.822683 -9.316872 15.500034 0.000000 0.000000 
8.158973 59.457951 5.308507 -12.118874 15.267427 0.000000 0.000000 
7.414202 59.626175 4.185736 -9.642433 16.967323 0.000000 0.000000 
7.440553 59.974552 7.132156 -13.088759 16.600254 0.000000 0.000000 
8.567092 59.858601 8.758731 -15.233597 11.607037 0.000000 0.000000 
6.827170 61.105446 6.700039 -16.602966 11.569405 0.000000 0.000000 
-7.677663 61.139927 -1.411590 -1.511513 22.437098 0.000000 0.000000 
-7.654322 61.148582 -1.369754 -4.075531 20.411436 0.000000 0.000000 
-7.617722 61.257408 -1.212688 -2.645699 23.151007 0.000000 0.000000 
-7.720289 61.246513 -1.319358 -7.250801 18.265503 0.000000 0.000000 
-7.776431 61.567425 -0.976182 -18.635483 8.116165 1.000000 1.000000 
7.441648 61.626949 -8.048501 -16.940369 11.881168 0.000000 0.000000 
-7.971033 61.683388 -1.278482 -18.635307 10.175831 0.000000 0.000000 
7.998693 61.868195 7.040904 -15.809097 12.222065 0.000000 0.000000 
7.531059 62.090820 7.313250 -17.647423 10.399532 0.000000 0.000000 
-7.836501 62.307743 -1.068257 -16.895721 8.199760 1.000000 1.000000 
-8.014607 62.669113 1.660600 -17.078056 11.255135 0.000000 0.000000 
-8.036814 62.936554 -4.999778 -16.403618 11.686020 0.000000 0.000000 
26.488249 57.323135 1.455918 -11.202568 11.398937 0.000000 0.000000 
30.629501 56.021957 0.233760 -10.936996 11.059940 0.000000 0.000000 
7.374471 64.272942 -1.179471 -20.313278 7.327294 0.000000 0.000000 
7.847159 64.223267 -0.568976 -13.374756 13.018854 0.000000 0.000000 
7.749323 64.285454 -0.846378 -13.939139 11.886234 0.000000 0.000000 
21.078564 61.865448 1.103693 -5.703972 19.190973 0.000000 0.000000 
7.998202 65.945854 -1.175031 -16.034935 9.826881 1.000000 1.000000 
8.147564 66.882393 -1.346855 -11.401787 13.524103 0.000000 0.000000 
8.310625 67.173264 -1.573259 -11.373627 13.135780 0.000000 0.000000 
-30.798664 60.029800 18.533436 -7.128403 15.477821 0.000000 0.000000 
8.064843 67.629623 -1.041360 -17.896629 7.737771 1.000000 1.000000 
-12.957693 67.251991 -0.068578 -10.127701 14.662552 0.000000 0.000000 
-13.049956 67.237991 1.356628 -15.320755 10.100853 0.000000 0.000000 
-12.863211 67.280396 1.790640 -11.880135 11.393177 0.000000 0.000000 
-12.792678 67.309784 0.471494 -11.842079 12.939873 0.000000 0.000000 
-12.680502 67.388214 2.620883 -11.426848 14.213770 0.000000 0.000000 
-10.325215 68.291451 -1.047625 -23.100548 4.124238 1.000000 1.000000 
49.202274 46.770718 0.031142 -0.147583 9.282654 0.000000 0.000000 
-10.224755 68.348312 -1.476112 -22.780556 3.028347 1.000000 1.000000 
50.276340 45.772453 0.366054 -4.176216 6.371312 0.000000 0.000000 
14.072001 67.784805 0.476347 -14.949806 10.504776 0.000000 0.000000 
44.479218 52.024445 3.011126 0.448372 12.184093 0.000000 0.000000 
-9.324637 68.857895 -0.783838 -20.338806 4.806828 1.000000 1.000000 
7.752919 69.291794 0.665128 -20.829376 5.029763 1.000000 1.000000 
45.332283 51.984020 2.693643 8.888290 17.103050 0.000000 0.000000 
45.126564 52.200382 -4.423564 3.904091 12.945555 0.000000 0.000000 
45.395664 52.124332 3.212200 8.856529 16.213743 0.000000 0.000000 
8.329308 69.660576 1.255614 -0.297157 21.570623 0.000000 0.000000 
8.435180 69.856712 1.239448 -11.768494 13.476728 0.000000 0.000000 
8.411931 69.869545 1.317753 1.278091 23.750746 0.000000 0.000000 
8.607004 70.262383 -7.768065 -10.450203 14.929388 0.000000 0.000000 
8.803889 70.258743 5.735087 -12.200522 15.215933 0.000000 0.000000 
-40.098667 57.587650 7.902357 -0.374054 16.450176 0.000000 1.000000 
47.047905 52.141930 -4.388044 6.270576 19.263975 0.000000 0.000000 
8.560628 70.931610 1.520764 -6.038681 16.163422 1.000000 1.000000 
-12.042834 70.468643 2.860955 -19.833511 12.407715 0.000000 1.000000 
46.139782 53.447857 2.280011 -3.983337 11.470459 0.000000 0.000000 
9.180994 71.532959 3.916309 -12.539763 14.876310 0.000000 0.000000 
8.846975 71.663521 3.164622 -16.353294 7.334939 1.000000 1.000000 
-36.159531 62.134445 3.492326 2.561432 17.806612 0.000000 0.000000 
-36.364994 62.123936 3.791249 2.992149 19.482445 0.000000 0.000000 
-36.196434 62.246696 3.367948 0.231018 16.978170 0.000000 0.000000 
9.304676 72.038277 2.771326 -16.751953 9.386860 1.000000 1.000000 
9.000142 72.371956 2.807897 -10.549644 12.501770 0.000000 0.000000 
8.423437 72.518883 1.585930 -18.376793 9.191334 0.000000 0.000000 
9.700377 72.524757 3.352076 -10.019379 15.169525 0.000000 0.000000 
9.503606 72.610664 2.931891 -7.615723 16.322762 0.000000 0.000000 
9.599457 72.732162 2.599446 -9.165352 14.907713 0.000000 0.000000 
-29.137390 67.092705 2.912760 -5.348167 14.261913 0.000000 0.000000 
-30.790771 66.723236 3.739127 -5.722443 14.392937 0.000000 0.000000 
-30.121038 67.057220 3.843783 -2.132599 15.667755 0.000000 0.000000 
-30.307705 66.968521 3.948818 -3.784523 14.015970 0.000000 0.000000 
-29.802786 67.305428 9.669120 -4.675705 15.656557 0.000000 0.000000 
-29.862564 67.320328 2.117772 1.329712 19.102022 0.000000 0.000000 
-30.718090 66.988953 3.096641 6.374161 23.815617 0.000000 0.000000 
-30.708284 67.243546 2.907182 6.472603 24.747349 0.000000 0.000000 
-31.226149 67.009659 3.349761 2.205444 20.828459 0.000000 0.000000 
-30.433924 67.689133 1.604518 -2.067978 17.596565 0.000000 0.000000 
-30.491144 67.710770 2.882342 -2.519775 16.766357 0.000000 0.000000 
-30.679409 67.723083 1.606230 0.973785 20.309433 0.000000 0.000000 
-9.487506 74.079369 -5.873814 -8.493698 18.450726 0.000000 1.000000 
-28.865782 68.617867 4.780493 -0.649414 20.576401 0.000000 0.000000 
-28.608656 69.023285 -7.073759 -3.164932 16.853403 0.000000 0.000000 
-28.887867 68.924873 4.606631 -4.252419 15.849388 0.000000 0.000000 
-30.592590 68.255150 5.149582 -0.892723 18.755239 0.000000 0.000000 
-30.661919 68.269028 6.768930 -4.915733 16.067839 0.000000 0.000000 
-31.758669 67.825897 3.371306 -3.652184 15.372478 0.000000 0.000000 
-10.464643 74.774559 4.878824 -3.605400 21.919544 0.000000 0.000000 
-10.137245 74.903419 4.778364 -7.440399 18.900581 0.000000 0.000000 
-9.936847 75.459259 4.748994 -6.269287 17.441717 0.000000 0.000000 
-8.667381 75.830498 6.435347 -9.900833 17.197172 0.000000 0.000000 
-10.802785 75.783714 6.317798 -11.171257 12.613831 0.000000 0.000000 
9.202346 76.317368 2.788754 -8.258293 16.677692 0.000000 0.000000 
-11.270371 76.856293 5.037951 -8.063828 17.282820 0.000000 0.000000 
55.653324 54.011002 2.193398 3.573372 8.071331 1.000000 1.000000 
70.542473 29.917482 10.593279 7.186447 9.041534 0.000000 0.000000 
55.735870 54.805740 1.638845 13.929436 17.331184 0.000000 0.000000 
56.317028 54.238197 2.157761 5.917419 10.177143 0.000000 0.000000 
55.767464 54.915691 1.593805 11.770714 16.863413 0.000000 0.000000 
-59.098026 51.046299 15.050498 6.300034 16.129326 0.000000 1.000000 
42.777107 66.868439 1.920236 -6.941711 8.394028 1.000000 1.000000 
58.725971 52.583633 -5.300235 14.664665 17.911776 0.000000 0.000000 
58.790195 52.588802 -4.661373 9.087372 14.992563 0.000000 0.000000 
58.971573 52.565968 -5.129742 16.094902 21.219791 0.000000 0.000000 
-33.904064 73.846542 9.019937 -8.276886 10.486931 0.000000 0.000000 
-34.542561 73.556854 7.897419 -2.834496 16.561363 0.000000 0.000000 
-34.099022 73.810631 8.499344 -3.612495 15.226952 0.000000 0.000000 
-34.987434 73.646736 8.997542 -10.769440 9.997139 0.000000 0.000000 
-34.351242 74.137421 8.952507 -7.603951 11.332787 0.000000 0.000000 
-35.107254 74.137703 14.342988 -12.642615 10.020855 0.000000 0.000000 
-32.005417 75.719406 9.403800 -6.143799 13.685801 0.000000 0.000000 
-29.389753 77.230736 3.230277 -7.610764 12.770542 0.000000 0.000000 
-29.180378 77.350456 3.826725 -7.078453 14.811964 0.000000 0.000000 
-33.128254 75.747795 8.602179 -4.627800 15.073921 0.000000 0.000000 
-33.377701 75.830124 8.093821 -1.485336 17.909697 0.000000 0.000000 
-22.705568 80.061417 4.231545 -2.838730 18.573675 0.000000 0.000000 
-38.864906 73.288300 6.929641 -1.002357 16.490501 0.000000 0.000000 
-38.403130 74.181717 6.770377 1.463409 18.557003 0.000000 0.000000 
-39.052200 74.117973 7.631212 -2.670586 15.658104 0.000000 0.000000 
-28.820433 79.447273 7.196508 -1.336205 18.618547 0.000000 0.000000 
-29.090065 80.173798 8.124653 -3.197647 16.974689 0.000000 0.000000 
-29.058697 80.195290 8.576414 3.242172 21.569321 0.000000 0.000000 
-29.016014 80.241364 8.693322 -0.770950 18.756233 0.000000 0.000000 
-32.845695 79.175835 11.130485 -5.816406 12.127647 0.000000 0.000000 
-27.093714 81.822243 4.456975 -8.095932 14.634504 0.000000 0.000000 
-29.440847 81.434219 10.060113 -2.274254 16.577801 0.000000 0.000000 
52.136082 69.294296 3.848844 7.628815 17.524117 0.000000 0.000000 
52.050163 69.481499 4.362264 9.913834 18.276335 0.000000 0.000000 
-32.457169 81.617165 14.963211 -8.764709 13.602991 0.000000 0.000000 
-40.545227 78.190811 9.193646 -6.663765 11.410686 0.000000 0.000000 
27.704205 83.971138 0.371806 -5.846489 15.710897 0.000000 0.000000 
27.402472 84.076706 1.611840 -3.004135 17.383509 0.000000 0.000000 
41.923630 77.951881 4.759488 0.051735 16.829184 0.000000 0.000000 
12.230231 88.256981 3.480757 -11.894722 12.864460 0.000000 0.000000 
39.859741 79.593857 2.722594 -1.018394 15.468822 0.000000 0.000000 
43.440357 77.800880 2.138653 -2.041679 13.951593 0.000000 0.000000 
21.746010 87.362549 -5.083874 -4.433823 15.106844 0.000000 0.000000 
21.415810 87.475868 4.517006 -9.713028 10.455269 0.000000 0.000000 
21.667028 87.435600 4.514807 -7.500900 12.713192 0.000000 0.000000 
-33.106598 83.688538 2.071779 -10.121300 11.494061 0.000000 0.000000 
-31.030443 84.983086 11.641503 -9.434769 9.350330 0.000000 0.000000 
-30.598080 85.201546 12.656594 -5.819778 14.808161 0.000000 0.000000 
-30.024576 85.491653 11.890479 -9.881355 9.412502 0.000000 0.000000 
44.139488 78.906700 2.537762 -0.603287 15.948578 0.000000 0.000000 
13.578754 90.056046 3.293195 -15.343758 7.848275 0.000000 1.000000 
-31.565701 85.239357 11.490570 -10.714722 10.331028 0.000000 0.000000 
-30.610605 85.951927 13.116093 -11.357368 11.262791 1.000000 1.000000 
-37.950336 83.256729 9.018913 -7.900993 9.720253 0.000000 0.000000 
-35.646866 84.496101 9.495092 -11.172104 9.077206 0.000000 0.000000 
-51.270054 76.087914 10.844400 -1.646217 11.085358 0.000000 0.000000 
-22.405731 90.009132 6.785989 -13.515579 9.852444 0.000000 0.000000 
-22.809378 90.279388 6.408171 -4.770065 14.877773 0.000000 0.000000 
-22.164915 90.485466 5.908905 -7.880028 11.215252 0.000000 0.000000 
-23.570602 90.123917 5.807174 -8.567291 11.254704 0.000000 0.000000 
-22.613541 90.408058 6.049143 -10.973929 11.271439 0.000000 0.000000 
-23.285805 90.781578 7.066626 -13.279663 6.941803 0.000000 0.000000 
-23.705765 90.674492 6.642305 -13.049469 8.285976 0.000000 0.000000 
65.874695 67.412323 -1.164993 -2.737801 6.306668 0.000000 1.000000 
-35.577854 89.673599 0.540796 -13.783524 5.019120 0.000000 0.000000 
-14.584957 96.134995 3.479266 -8.956314 11.768417 1.000000 1.000000 
-31.522837 92.171753 11.555656 -11.301262 6.996766 0.000000 0.000000 
-14.549532 96.748451 5.256176 -8.947060 8.924652 0.000000 0.000000 
-14.318784 96.966339 4.179080 -8.154190 9.848312 0.000000 0.000000 
-14.191986 96.999771 3.738448 -10.886505 10.304543 0.000000 0.000000 
-15.459239 97.208687 3.634303 -3.481018 15.465679 0.000000 0.000000 
-15.451978 97.220909 3.557057 1.764038 19.249880 0.000000 0.000000 
-15.267828 97.275360 3.288816 -4.265350 14.831797 0.000000 0.000000 
-15.508391 97.336594 3.521663 3.281090 19.728798 0.000000 0.000000 
-22.130159 96.313377 10.258718 -8.745422 8.468128 0.000000 0.000000 
-21.679810 97.301346 -3.696267 -12.369774 8.918091 0.000000 0.000000 
-30.893259 95.893669 8.578962 -9.483910 8.545753 0.000000 0.000000 
-32.558575 95.606270 11.986765 -13.964600 3.740189 1.000000 1.000000 
-31.536510 96.258835 11.241129 -9.491638 7.965626 0.000000 0.000000 
-32.820877 96.027657 10.262506 -8.180000 10.026096 0.000000 0.000000 
-32.603821 96.204361 11.372367 -10.844307 6.171227 0.000000 0.000000 
-32.967201 96.221565 13.583036 -6.672081 8.634354 0.000000 0.000000 
-32.389271 96.750687 -0.641626 -13.137886 7.501244 0.000000 0.000000 
-31.240009 97.327957 13.869596 -12.069260 7.812447 0.000000 0.000000 
-30.363626 98.059669 11.316285 -9.663536 7.552269 0.000000 0.000000 
-31.501738 98.135201 11.058867 -3.744461 12.116867 0.000000 0.000000 
-30.217730 98.565628 14.041790 -13.897429 6.771977 0.000000 0.000000 
-30.484030 98.990433 10.740492 -6.541214 8.874809 0.000000 0.000000 
-31.063433 99.048073 10.805809 -1.786552 12.386532 0.000000 0.000000 
-32.110729 98.803291 12.209277 -9.005692 8.689606 0.000000 0.000000 
-31.025526 99.657196 15.595184 -8.742050 9.849739 0.000000 0.000000 
-31.957560 99.594612 12.972334 -6.724586 10.028431 0.000000 0.000000 
-33.887890 99.241692 12.380117 -10.041588 5.696846 0.000000 0.000000 
-32.772350 99.639214 12.048702 -9.938606 6.922802 0.000000 0.000000 
-31.504128 100.167610 12.873299 -5.866035 10.320766 0.000000 0.000000 
-32.091774 100.198906 12.457127 -5.655029 9.997601 0.000000 0.000000 
-32.591713 100.203163 10.904185 -4.245888 10.754688 0.000000 0.000000 
-44.343704 95.689606 0.269085 -10.464867 6.974289 0.000000 1.000000 
34.160553 100.406731 2.154643 -8.309341 8.239033 0.000000 0.000000 
-32.088879 103.465019 12.241366 -11.025681 5.437230 0.000000 0.000000 
-31.473700 103.818771 10.447921 -4.870392 10.627151 0.000000 0.000000 
-31.093561 104.109703 11.966783 -7.744957 7.339718 0.000000 0.000000 
50.719719 98.256760 5.503383 -2.312386 10.844093 0.000000 0.000000 
52.088955 97.516632 4.895412 -4.224388 9.029236 0.000000 0.000000 
-98.708260 45.723740 14.965516 14.372620 9.511398 0.000000 1.000000 
51.011837 98.551094 4.898550 -1.849800 9.253880 0.000000 0.000000 
49.549252 99.530525 5.439229 -3.228523 9.447731 0.000000 0.000000 
-19.613695 110.430824 3.485000 -12.956206 4.856732 0.000000 0.000000 
46.155117 102.242569 3.849435 -5.211548 8.149063 0.000000 0.000000 
-31.514204 108.998711 -1.929133 -11.721855 7.753758 0.000000 0.000000 
37.620319 107.998123 3.135144 -12.830078 3.919789 0.000000 0.000000 
37.169010 108.394867 3.232888 -0.648300 10.680473 0.000000 0.000000 
37.055626 108.531754 3.832143 -4.541565 8.074226 0.000000 0.000000 
36.721344 108.682594 2.545220 -8.186852 5.866669 0.000000 0.000000 
35.377113 109.602646 1.146028 -8.886086 5.588891 0.000000 0.000000 
35.275276 109.827209 2.088280 -7.645065 6.563366 0.000000 0.000000 
95.504448 61.892033 8.832429 6.848701 5.086457 0.000000 1.000000 
34.961380 110.180428 1.847152 -10.345039 4.505673 0.000000 0.000000 
-32.845543 113.095375 9.651019 -11.972847 7.098336 0.000000 0.000000 
63.299431 98.816040 3.207332 -5.007729 5.954503 0.000000 1.000000 
-22.074709 116.117310 5.364693 -13.084785 5.633721 0.000000 0.000000 
48.788780 107.763069 5.224466 -4.467171 8.245258 0.000000 0.000000 
42.567032 111.643066 2.238489 -5.703072 6.573338 0.000000 0.000000 
-21.526302 118.087814 7.750010 -9.802986 9.002640 0.000000 0.000000 
-21.723621 118.056816 9.023370 -6.616753 9.472050 0.000000 0.000000 
42.594269 112.053612 1.944483 -3.933182 9.154572 0.000000 0.000000 
-21.909618 118.127701 9.358148 -5.399498 10.368813 0.000000 0.000000 
-23.136934 117.959671 8.816655 1.760452 14.415535 0.000000 0.000000 
-22.936390 118.127953 11.285482 -9.266777 5.156380 0.000000 0.000000 
-23.119272 118.211296 9.917438 1.818398 15.295485 0.000000 0.000000 
-33.800312 115.982254 11.666583 -7.455299 8.008904 0.000000 0.000000 
-33.784805 116.018967 10.403289 -2.904488 12.244797 0.000000 0.000000 
38.753868 114.405258 1.363959 -7.715462 6.703347 0.000000 0.000000 
-23.493212 119.192711 9.916437 -3.937302 10.015835 1.000000 1.000000 
-32.349472 117.613594 10.057557 -5.894623 7.421090 0.000000 0.000000 
-32.359966 117.609314 10.668084 -8.807938 7.431363 0.000000 0.000000 
-21.028114 121.633804 3.262711 -12.408211 5.046467 0.000000 0.000000 
-32.621368 119.417259 11.355866 -12.937920 6.310021 0.000000 0.000000 
-32.282150 121.381912 15.836202 -10.431839 7.804852 0.000000 0.000000 
-34.635300 121.368118 17.335262 -6.873306 7.393536 0.000000 0.000000 
37.969959 120.560760 2.037555 -9.661102 4.703530 0.000000 0.000000 
-35.664047 121.916626 16.825361 -8.203316 7.034035 0.000000 0.000000 
-35.926483 122.010788 12.473907 -9.459250 5.107953 0.000000 0.000000 
-33.733269 122.742111 14.537045 -7.783524 5.019204 0.000000 0.000000 
-32.956116 123.449287 12.291080 -9.315598 5.826565 0.000000 0.000000 
-22.133806 126.774963 4.676715 -4.067390 10.374466 0.000000 0.000000 
-21.065008 127.085419 4.399748 -9.241211 5.040688 1.000000 1.000000 
-22.999620 127.366714 5.142003 -6.312370 9.804047 0.000000 0.000000 
-22.906590 127.486557 3.755814 -2.534401 12.392143 0.000000 0.000000 
-21.315285 128.309952 5.351568 -7.537849 7.822033 0.000000 0.000000 
-21.394638 128.651428 -8.469196 0.094879 12.631218 0.000000 0.000000 
-21.334831 128.934128 -9.457517 -10.622925 4.448872 0.000000 0.000000 
-21.777199 128.887421 4.822979 -11.133742 3.905888 1.000000 1.000000 
-21.607454 129.091400 5.588238 -9.263573 6.134411 0.000000 0.000000 
-22.891027 128.882599 1.931156 -7.941383 9.767002 0.000000 0.000000 
-21.557180 129.455734 3.893771 -6.667732 6.788849 0.000000 0.000000 
-21.317554 129.576279 -3.465101 14.462616 25.586321 0.000000 0.000000 
-21.617725 129.858215 -2.887940 16.512337 26.052177 0.000000 0.000000 
-21.474209 129.967255 1.539673 -2.097351 10.850113 0.000000 0.000000 
-21.740683 130.259766 0.172349 -9.427406 4.227582 1.000000 1.000000 
-20.205448 131.217773 -1.663215 -11.376923 3.214199 1.000000 1.000000 
-22.501133 131.341141 -2.337570 13.249428 24.355791 0.000000 0.000000 
-22.446022 131.354385 -1.334859 18.063194 27.399204 0.000000 0.000000 
-22.356918 131.514435 -2.511750 16.701897 27.277046 0.000000 0.000000 
-19.045883 132.664185 7.407471 4.499527 20.718298 0.000000 0.000000 
-19.224882 132.704803 5.413610 7.771362 22.210983 0.000000 0.000000 
-19.913536 132.833557 -9.922556 6.080948 19.394629 0.000000 0.000000 
-20.807459 133.130859 -10.007957 3.451569 15.935581 0.000000 0.000000 
-20.209356 133.279053 -9.714869 5.892105 18.229849 0.000000 0.000000 
-21.973631 133.043884 4.396678 -1.701447 9.968105 0.000000 0.000000 
-22.041279 133.169067 2.858909 -6.752602 6.142964 0.000000 0.000000 
-21.512354 133.693817 4.176870 -6.598984 8.252415 0.000000 0.000000 
-21.991522 133.755371 4.528025 -0.522446 12.994663 0.000000 0.000000 
-21.688162 133.889862 -9.803237 -1.890640 11.216442 0.000000 0.000000 
-22.226200 133.866699 -9.819094 -1.242783 12.321102 0.000000 0.000000 
-22.849247 134.206451 3.510085 -5.468903 8.536758 1.000000 1.000000 
6.929923 136.204468 -5.528942 5.485199 18.995739 0.000000 0.000000 
6.072125 136.263947 -6.958731 -0.432861 16.901770 0.000000 0.000000 
-22.430761 134.980560 4.877417 -3.122948 11.580227 0.000000 0.000000 
-22.258141 135.260040 -10.996068 -7.141388 7.298901 0.000000 0.000000 
40.559734 130.881378 4.323851 -9.575470 5.177796 0.000000 0.000000 
41.391300 130.815796 2.378556 -7.352005 6.885994 0.000000 0.000000 
40.492092 131.554321 3.166711 -1.510551 10.369949 0.000000 0.000000 
39.689232 131.901520 3.467962 0.028900 10.786022 0.000000 0.000000 
40.229561 131.736954 3.674401 -2.219986 10.056278 0.000000 0.000000 
-22.908550 136.153961 -4.342193 -7.772270 4.540146 0.000000 0.000000 
-22.917192 136.767517 -2.800619 -0.930008 9.441219 0.000000 0.000000 
-22.724876 136.990875 -2.700860 -4.594452 6.619378 0.000000 0.000000 
-22.845610 137.167389 -2.354029 -5.848045 7.502915 0.000000 0.000000 
-22.900448 137.518921 -3.324361 -5.173332 7.531174 0.000000 0.000000 
-22.838230 139.269073 -1.974977 -6.799278 5.806893 0.000000 0.000000 
-23.394367 139.348480 0.471388 -6.480377 5.224362 0.000000 0.000000 
-22.992956 139.445953 -4.008062 -8.758087 3.462601 0.000000 0.000000 
-22.954632 139.809326 -6.810930 -4.671600 9.115295 0.000000 0.000000 
-22.807180 139.866547 2.200228 0.847923 10.578163 0.000000 0.000000 
-22.925245 139.928772 -4.400962 -3.697258 8.564281 0.000000 0.000000 
-22.898689 140.120178 0.620374 -6.552132 6.196335 0.000000 0.000000 
-23.409685 140.087036 2.410368 -3.140327 6.800202 0.000000 0.000000 
-23.076513 140.166290 -6.630033 -0.365120 9.530972 0.000000 0.000000 
-23.105301 140.635010 -9.559562 -6.065918 8.535915 0.000000 0.000000 
-23.008825 140.662781 -8.101364 -3.466057 8.943741 0.000000 0.000000 
-23.242014 140.683105 4.487688 5.259941 14.836515 0.000000 0.000000 
-23.364769 140.697449 -10.844667 1.777443 12.157043 0.000000 0.000000 
-23.868362 140.945221 4.801298 -1.309906 8.892609 0.000000 0.000000 
-24.016077 141.131287 -9.873895 -4.799263 8.074718 0.000000 0.000000 
-24.462000 141.564026 3.907264 -12.937485 2.794529 1.000000 1.000000 
-24.567461 141.620453 3.376512 -7.757248 4.881249 0.000000 0.000000 
-23.624842 145.290161 5.208961 -2.287086 8.780930 0.000000 0.000000 
-23.411810 145.335876 5.830675 -1.251350 9.936008 0.000000 0.000000 
-23.292694 145.463043 6.191951 -4.541451 8.807415 0.000000 0.000000 
43.517960 141.486328 1.341281 -9.383133 5.526162 0.000000 1.000000 
-23.467730 146.614288 6.942844 -7.492500 6.805138 1.000000 1.000000 
-28.945044 145.697876 -3.026787 -9.053589 5.865422 0.000000 0.000000 
-24.498236 146.643372 4.166262 -0.339676 10.317440 0.000000 0.000000 
-23.652336 146.797913 -9.788327 0.431160 11.064075 0.000000 0.000000 
-23.136381 147.161591 -9.717104 -8.027748 6.013493 0.000000 0.000000 
-24.476686 147.424133 -1.755111 10.235748 20.499104 0.000000 0.000000 
-24.386189 147.475708 0.320645 5.061462 14.561876 0.000000 0.000000 
-24.603100 147.447998 0.303390 6.262642 15.976494 0.000000 0.000000 
-24.366936 147.910980 1.225767 -8.669539 2.268555 1.000000 1.000000 
-24.696486 148.145020 1.370823 3.160797 12.298195 1.000000 1.000000 
-24.315147 148.817322 0.937319 -3.915581 8.431087 1.000000 1.000000 
-22.872154 151.597717 -2.263526 -6.183807 6.158833 0.000000 0.000000 
-25.509567 152.090424 0.180011 -4.369003 6.986943 0.000000 0.000000 
-25.624043 152.506592 -1.863463 -4.716805 6.402359 0.000000 0.000000 
-24.203474 152.922516 -12.413168 -1.285774 8.504772 0.000000 0.000000 
-25.430717 152.726135 -2.563440 5.519379 12.775509 0.000000 0.000000 
-25.427624 152.842499 1.679573 -7.137413 3.400685 1.000000 1.000000 
-24.923800 152.939362 5.733814 -1.128418 8.867550 0.000000 0.000000 
-24.634678 153.055176 4.422744 -3.111328 6.857754 0.000000 0.000000 
-23.372648 153.333038 -9.407902 -7.767212 4.140919 0.000000 0.000000 
-23.050505 153.775574 -10.562533 -2.870201 7.654725 0.000000 0.000000 
-22.936308 153.928101 -3.775044 -5.275299 6.132317 0.000000 0.000000 
-25.592999 153.898438 6.942704 -4.863121 5.722600 0.000000 0.000000 
-26.621340 154.060211 12.522745 -7.628487 5.865872 0.000000 0.000000 
-24.034733 154.563782 -4.862148 -8.165504 7.370488 0.000000 0.000000 
-23.497900 154.793427 -0.972018 -7.375664 4.676274 1.000000 1.000000 
-22.354874 155.148590 -11.188995 -6.021980 6.632184 0.000000 0.000000 
-32.966587 153.577332 11.036307 -5.280800 5.756379 0.000000 0.000000 
-24.538191 155.264893 -2.599534 -2.142891 7.508862 0.000000 0.000000 
-25.394291 155.140808 -2.670553 -4.325478 7.228219 0.000000 0.000000 
-33.008049 154.116882 9.059039 -7.595886 5.440571 0.000000 0.000000 
-32.880466 154.296478 8.739615 -8.268387 7.112607 0.000000 0.000000 
-29.663212 155.158295 0.622518 -8.157394 2.923798 0.000000 0.000000 
-29.985216 155.156158 9.750198 -1.082802 10.233044 0.000000 0.000000 
-32.509438 154.691193 12.571640 -8.439575 5.881894 0.000000 0.000000 
-30.294088 155.154358 9.605597 -4.170525 7.704484 0.000000 0.000000 
-32.838295 155.047852 11.024952 -3.753540 8.281452 0.000000 0.000000 
-31.135845 155.521149 12.948972 -6.385651 6.429924 0.000000 0.000000 
-32.667091 155.948914 7.511106 -5.743904 6.944005 0.000000 0.000000 
-23.608215 157.703369 -2.164023 -5.239418 7.035965 0.000000 0.000000 
-24.404449 157.581146 -1.085610 -4.132095 6.637040 0.000000 0.000000 
-26.477749 157.608215 -4.153869 -7.681458 5.566163 0.000000 0.000000 
-29.190195 157.540466 11.831899 -7.797012 6.918202 0.000000 0.000000 
-31.930592 157.101776 11.650545 -6.484337 5.488644 0.000000 0.000000 
-23.714745 158.659790 3.292558 -10.741486 4.269398 1.000000 1.000000 
-31.846521 157.446167 12.481916 1.034996 11.053577 0.000000 0.000000 
-24.866240 158.882538 4.204653 -4.574234 6.739251 0.000000 0.000000 
-25.452475 158.978363 0.077927 0.334213 9.928062 0.000000 0.000000 
-24.202143 159.229492 -9.114483 -3.387344 7.416455 0.000000 0.000000 
-27.360416 158.807922 -8.320709 -8.110176 5.706685 0.000000 0.000000 
-24.213425 159.406494 5.595918 -1.720863 8.011299 0.000000 0.000000 
-24.995342 159.594727 2.762295 -4.294571 6.698746 0.000000 0.000000 
-26.266266 159.693359 0.881443 -2.729630 8.568665 0.000000 0.000000 
-25.368231 159.875549 0.521070 0.124992 10.076405 0.000000 0.000000 
-24.336651 160.134186 1.136691 4.546539 13.359274 0.000000 0.000000 
-23.843866 160.646088 4.169427 0.524216 9.648956 0.000000 0.000000 
-23.617964 160.807739 1.205164 3.187263 12.435886 0.000000 0.000000 
-23.721884 160.815063 1.503612 -0.486893 9.047832 0.000000 0.000000 
-25.199413 160.880280 3.301579 -8.561913 4.424065 0.000000 0.000000 
-24.018900 161.446075 3.876872 -6.470268 5.156605 0.000000 0.000000 
-24.110807 161.485535 3.311916 -1.989639 9.063381 0.000000 0.000000 
-24.110252 161.586182 3.589793 -9.385414 3.130089 1.000000 1.000000 
-24.379614 162.235168 1.844413 -3.813553 5.977479 0.000000 0.000000 
-24.602280 162.246521 0.901284 -3.793365 6.284489 0.000000 0.000000 
-24.719374 165.794281 2.488494 -7.810936 3.842884 0.000000 0.000000 
-24.787992 166.172516 0.624345 -8.461838 6.269818 0.000000 0.000000 
-25.062809 166.250671 -1.196930 -9.342430 3.091465 0.000000 0.000000 
-23.796465 166.524078 6.278907 -4.688210 6.023674 1.000000 1.000000 
-25.030209 166.691833 2.021995 -3.959969 4.879838 0.000000 0.000000 
-24.884214 166.858887 1.381063 -6.762756 4.646538 0.000000 0.000000 
-27.627483 166.802490 3.023736 -9.632057 3.491291 0.000000 0.000000 
-25.842695 167.098541 -13.791306 -7.698608 3.417626 0.000000 0.000000 
-24.382246 167.557129 5.835784 1.130913 13.704317 0.000000 0.000000 
-24.413382 167.670654 7.403022 -2.613777 9.466084 0.000000 0.000000 
-23.971844 167.755249 5.885875 4.595322 14.085026 0.000000 0.000000 
-24.385635 167.976837 2.579243 -8.475456 4.694218 0.000000 0.000000 
-24.006819 170.155396 6.007312 3.275177 11.886848 0.000000 0.000000 
-23.574106 170.303741 -12.200969 -6.553665 5.336358 0.000000 0.000000 
-23.626846 170.705261 5.912647 -2.389832 7.964425 0.000000 0.000000 
-23.356838 170.803253 -12.012210 -6.277115 5.914971 0.000000 0.000000 
-24.629999 170.723206 4.277765 -0.436722 8.605003 0.000000 0.000000 
-24.429058 170.817657 5.411502 -0.969543 7.940510 0.000000 0.000000 
-25.327074 170.818817 5.902778 -4.076614 6.015313 0.000000 0.000000 
-23.289282 171.164886 -13.816866 -3.866188 7.555535 0.000000 0.000000 
-25.775608 171.287659 3.097733 -8.329987 5.520813 0.000000 0.000000 
-25.128933 171.471313 3.192510 -2.866112 7.163903 0.000000 0.000000 
-24.389080 171.629425 2.070370 -3.331322 8.424328 0.000000 0.000000 
-25.623770 171.709045 5.076644 -8.679459 4.156037 0.000000 0.000000 
-23.539667 172.358246 6.057514 -8.420059 6.007782 0.000000 0.000000 
-25.349209 172.220337 5.167867 -6.339699 4.436059 0.000000 0.000000 
-23.223896 172.571106 3.069541 1.186569 7.637398 0.000000 0.000000 
-25.107124 172.362762 2.313658 -6.859138 4.825440 0.000000 0.000000 
-24.519932 172.489471 2.157451 -5.507782 4.813862 0.000000 0.000000 
-26.952150 172.901581 1.444304 -9.073105 2.963890 0.000000 0.000000 
-25.725319 173.470673 6.284838 -3.647095 5.969857 0.000000 0.000000 
-24.173273 174.554413 -0.123212 -4.956108 3.924893 0.000000 0.000000 
-25.684145 177.708771 5.957761 -4.044159 4.779210 0.000000 0.000000 
-26.777824 177.704559 4.129676 -4.105698 5.384671 0.000000 0.000000 
-25.199095 180.002258 4.565162 -5.072128 4.997063 0.000000 0.000000 
-24.096058 180.407532 -0.259574 -3.522881 4.235463 0.000000 0.000000 
-25.924805 180.179871 -1.316862 -3.936462 4.647439 0.000000 0.000000 
-26.406223 186.045654 5.780322 -0.628616 7.836995 0.000000 0.000000 
-24.512724 186.397644 3.090365 -6.668304 3.467472 0.000000 0.000000 
-28.398396 186.190521 3.789764 -4.022408 4.614483 0.000000 0.000000 
-27.834858 186.682281 6.354798 -3.146317 4.852311 0.000000 0.000000 
-27.307642 187.534668 4.481189 -1.608414 6.527604 0.000000 0.000000 
-27.383476 187.625885 -13.137603 -2.338913 5.106961 0.000000 0.000000 
-27.634682 187.593353 -14.032160 -1.010033 6.934628 0.000000 0.000000 
176.611679 63.702698 19.548508 21.543480 6.396042 0.000000 0.000000 
177.253036 62.395012 20.782921 18.305336 6.659691 0.000000 0.000000 
-25.277937 189.276733 -12.427864 -0.869781 9.073509 0.000000 0.000000 
-25.809980 189.322540 -15.412041 -0.277733 7.607159 0.000000 0.000000 
-32.993080 195.055573 7.259162 -5.815117 3.433689 0.000000 0.000000 
-33.529583 198.037231 7.243083 -6.410889 3.833924 0.000000 0.000000 
-33.374443 198.108032 8.002902 -5.715416 4.199173 0.000000 0.000000 
33.921276 198.150726 2.403347 -6.053970 5.288964 0.000000 0.000000 
-36.760326 198.670166 12.324029 -2.335350 4.875554 0.000000 0.000000 
-36.622009 198.960693 11.262922 -3.245926 3.787895 0.000000 0.000000 
-36.309143 199.276337 14.931069 2.357590 7.602906 0.000000 0.000000 
-35.680927 199.467438 16.280851 -3.554459 5.241444 0.000000 0.000000 
-34.041451 202.850281 10.694518 -0.205444 6.634129 0.000000 0.000000 
-35.055126 202.685059 11.105576 -1.835747 4.892380 0.000000 0.000000 
-31.379564 217.260834 8.401096 -3.411987 4.019845 0.000000 0.000000 
-30.792599 217.745148 5.596771 -3.084183 4.257012 0.000000 0.000000 
-28.886686 218.944672 6.218395 -3.705887 2.663887 0.000000 0.000000 
