ply
format ascii 1.0
comment Created by CloudCompare v2.14.beta (Feb  3 2026)
comment Created 2026-04-27T14:34:40
obj_info Generated by CloudCompare!
element vertex 1429
property float x
property float y
property float z
property float rcs
property float snr
property float v
property float label
end_header
11.797068 -38.508629 -11.581803 -6.719925 21.135963 0.000000 1.000000 
11.973054 -38.593811 -10.918360 -3.893875 24.140894 0.000000 1.000000 
15.020997 -38.007198 -8.984692 -1.996758 22.433666 0.000000 1.000000 
10.604107 -54.347942 -14.217415 -1.437546 18.371574 0.000000 1.000000 
-2.247875 -56.113468 -11.812037 -1.227486 19.341518 0.000000 1.000000 
56.082302 -63.874432 -20.105980 8.835007 17.098330 0.000000 1.000000 
113.428894 -7.056867 -19.010788 5.344772 16.988451 0.000000 1.000000 
113.827110 -8.305231 -16.902678 10.617424 18.988922 0.000000 1.000000 
114.507393 -7.177950 -23.751598 13.297211 18.180000 0.000000 1.000000 
114.604988 -6.992936 -19.771351 12.525345 18.139206 0.000000 1.000000 
70.725349 -117.610367 -18.800459 14.571007 17.061279 0.000000 1.000000 
7.721643 34.447006 -13.192667 -14.931404 22.069216 0.000000 1.000000 
7.776983 45.494133 -11.403206 -16.030060 17.006479 0.000000 1.000000 
4.642547 46.410397 -17.162252 -20.650024 15.506273 0.000000 1.000000 
7.240247 51.845757 -16.490456 -15.014053 16.027828 0.000000 1.000000 
19.978443 48.413582 -19.946064 -11.784172 16.572132 0.000000 1.000000 
6.736950 56.153625 -20.105352 -9.948936 16.224661 0.000000 1.000000 
7.321055 57.072639 -21.629944 -10.786171 18.153265 0.000000 1.000000 
8.765298 57.098988 -19.852259 -19.004616 13.028172 0.000000 1.000000 
9.736601 62.245323 -24.752090 -20.216888 9.617741 0.000000 1.000000 
30.966751 55.833870 -25.298840 -10.219681 10.661057 0.000000 1.000000 
-22.302382 62.298489 -26.156084 -13.312149 11.557529 1.000000 1.000000 
-30.792978 59.962627 -22.856516 -3.473167 17.231657 0.000000 1.000000 
-30.806730 60.025364 -17.271458 -7.032700 14.673477 0.000000 1.000000 
-13.203644 67.199509 -16.556755 -10.427826 15.024405 0.000000 1.000000 
9.638278 78.098572 -30.366772 -19.677902 6.970188 0.000000 1.000000 
-37.332680 71.483620 -27.627367 -12.933708 9.730404 0.000000 1.000000 
-32.023842 76.450241 -32.119862 -0.708977 16.622391 0.000000 1.000000 
-39.747486 73.733398 -29.527388 -2.722374 14.541317 0.000000 1.000000 
11.694073 84.617249 -22.104650 -9.632607 14.846680 0.000000 1.000000 
-30.617760 80.962433 -32.436386 -4.786446 15.616665 0.000000 1.000000 
-39.193119 78.449341 -25.432381 -4.896896 14.450274 0.000000 1.000000 
43.050922 77.114784 -33.246159 1.050835 15.302483 0.000000 1.000000 
42.923992 77.348137 -32.656231 -0.771812 13.610388 0.000000 1.000000 
43.555569 77.425232 -32.763264 -0.150169 16.720762 0.000000 1.000000 
-31.422550 86.671356 -35.797863 -8.799561 10.685177 0.000000 1.000000 
-30.645870 98.813744 -16.636801 -8.982903 7.754688 0.000000 1.000000 
-31.382318 98.683876 -38.124969 -11.996263 7.270088 0.000000 1.000000 
11.273081 104.167244 -9.515636 -13.767334 10.356884 0.000000 1.000000 
-32.036194 99.663750 -13.736367 -8.598953 6.675678 0.000000 1.000000 
31.591143 100.738647 -42.609688 -11.293098 7.131988 0.000000 1.000000 
-32.297821 103.768532 -14.984310 -13.525192 4.393306 0.000000 1.000000 
-28.299881 109.026817 -41.511406 -14.344849 7.270103 0.000000 1.000000 
38.574173 114.496170 -13.725989 -9.220665 7.568969 0.000000 1.000000 
-34.949104 121.108063 -43.796124 -5.814514 8.560162 0.000000 1.000000 
-25.307627 155.071930 -18.138081 -3.574203 6.117939 0.000000 1.000000 
-4.627336 166.537384 -46.886524 -8.249947 4.287220 0.000000 1.000000 
32.511284 188.126282 -30.355425 -11.589722 4.015964 0.000000 1.000000 
55.843075 -52.768341 27.299644 8.780037 18.999107 0.000000 1.000000 
194.032059 59.359097 57.758854 20.027969 13.821709 0.000000 1.000000 
8.729565 58.482529 23.626709 -16.318497 13.574810 0.000000 1.000000 
9.676115 59.146511 23.973150 -19.803268 11.097271 0.000000 1.000000 
6.482745 61.106945 24.607807 -19.798134 8.891293 0.000000 1.000000 
-2.359267 71.207268 25.411749 -12.721420 17.756821 0.000000 1.000000 
22.825720 74.560684 31.732088 -15.451898 9.111767 0.000000 1.000000 
-29.412766 81.769249 25.073931 -2.311836 18.447536 0.000000 1.000000 
29.174740 83.374969 21.670973 -9.799866 12.121250 0.000000 1.000000 
-32.153534 85.045059 20.651920 -12.408150 8.420227 0.000000 1.000000 
-32.421761 95.924698 39.833588 -11.570946 9.298080 0.000000 1.000000 
-27.235956 99.023438 42.277035 -14.627808 6.795276 0.000000 1.000000 
-30.891722 99.816071 41.947411 -6.831711 8.954472 0.000000 1.000000 
-44.314724 105.550484 31.272598 -11.315651 5.757267 0.000000 1.000000 
42.988747 110.518867 15.328859 -6.032860 6.452564 1.000000 1.000000 
-31.208984 119.918907 51.330322 -6.096748 7.915058 0.000000 1.000000 
-33.412418 121.720306 21.239084 -8.003166 5.899234 0.000000 1.000000 
-35.393833 -6.219311 -6.794981 -2.153648 25.950058 0.000000 1.000000 
28.792097 11.497443 -8.563190 -0.296852 27.729656 0.000000 1.000000 
42.670391 19.407661 -10.534320 0.496574 23.111969 0.000000 1.000000 
56.435272 11.008725 -9.633658 11.573891 25.633503 0.000000 1.000000 
20.120459 15.678607 -9.758119 5.485725 24.495213 0.000000 1.000000 
27.078552 57.461479 -8.603382 -8.228394 13.946648 0.000000 1.000000 
21.346975 61.828697 -4.116932 -12.559830 15.438936 0.000000 1.000000 
14.528966 65.293045 -7.247157 -18.150192 7.063003 0.000000 1.000000 
-9.719498 73.482262 -9.306082 -7.070404 16.316891 0.000000 1.000000 
-10.510072 74.854591 -6.090857 -9.678177 18.683884 0.000000 1.000000 
-9.743192 76.076408 -10.464208 -10.231499 14.263693 0.000000 1.000000 
-10.544071 76.309868 -10.034916 -18.110466 5.754703 1.000000 1.000000 
28.903549 71.385742 -8.228952 -6.789459 16.089424 0.000000 1.000000 
-10.481647 76.970444 -9.738968 -8.579300 14.522570 0.000000 1.000000 
-10.663023 76.971542 -9.699130 -4.343124 16.842226 0.000000 1.000000 
-10.286755 77.095764 -10.241679 -3.332512 18.531637 0.000000 1.000000 
-30.109308 72.212532 -10.163925 -12.509140 11.064251 0.000000 1.000000 
-36.506329 71.682358 -8.165514 -6.925240 11.161251 0.000000 1.000000 
-36.398685 71.781128 -7.848910 -6.270531 12.232750 0.000000 1.000000 
-30.032969 82.619171 -11.485622 -9.034882 11.563236 0.000000 1.000000 
21.550974 87.417999 -5.305597 -5.052498 16.159962 0.000000 1.000000 
-32.221157 88.654472 -12.502275 -13.687233 7.410129 0.000000 1.000000 
-22.728106 136.314178 -11.826599 -8.522186 6.035793 0.000000 1.000000 
-23.503517 145.403717 -11.541732 -1.313416 9.508884 0.000000 1.000000 
-23.344271 153.499023 -12.240158 -7.594780 5.674499 0.000000 1.000000 
-23.319847 155.305573 -13.061088 0.186562 9.737045 0.000000 1.000000 
-24.206379 172.390228 -12.791003 -4.099892 9.115768 0.000000 1.000000 
-24.550844 184.793243 -14.557540 -4.232574 4.720169 0.000000 1.000000 
-26.964598 185.973785 -15.537685 -4.460335 5.681270 0.000000 1.000000 
-25.605181 186.996918 -10.280324 -4.194984 5.339260 0.000000 1.000000 
-27.971550 188.028534 -15.133768 -5.238190 3.051811 1.000000 1.000000 
-1.320067 191.827911 -6.810106 1.263603 10.172710 0.000000 1.000000 
-1.070697 191.856689 -6.700055 3.241241 10.975437 0.000000 1.000000 
-3.917428 199.464966 -8.288876 -6.098068 4.230037 0.000000 1.000000 
-4.014152 199.463562 -8.225187 -6.643417 5.146816 0.000000 1.000000 
-3.053206 199.523773 -6.875106 -1.901184 7.397529 0.000000 1.000000 
-29.510870 207.456116 -7.629744 -5.934662 6.260849 0.000000 1.000000 
4.945729 232.727142 -7.821123 -1.587563 4.774276 0.000000 1.000000 
-0.422432 -6.057740 -0.218936 -7.100166 45.315250 0.000000 0.000000 
-0.294932 -6.122510 -0.093753 -9.872238 44.920078 0.000000 0.000000 
0.192807 -6.212058 -0.292194 -2.552010 47.594421 0.000000 0.000000 
0.036555 -6.200936 -0.169358 -6.997097 44.445984 0.000000 0.000000 
0.302433 -6.293194 -0.288926 -5.613312 45.204613 0.000000 0.000000 
-0.034999 10.106129 0.108038 -20.417107 32.226528 1.000000 0.000000 
-0.850728 11.143867 -0.016383 -12.798637 32.650761 0.000000 0.000000 
0.051030 12.108006 -0.024548 -12.086243 36.638588 0.000000 0.000000 
-0.506588 12.377497 0.035476 -11.763100 36.974213 1.000000 0.000000 
-3.709535 18.518322 0.394946 8.575737 43.976540 0.000000 0.000000 
-3.805381 18.741348 0.239147 9.434311 42.131615 0.000000 0.000000 
-3.689974 18.917702 -0.383770 -0.125740 36.900112 0.000000 0.000000 
-4.804016 20.922176 -0.599645 1.541794 37.436901 0.000000 0.000000 
-4.861259 20.940617 -0.617766 3.761505 38.644733 0.000000 0.000000 
0.214683 22.206429 -0.826491 2.603477 33.913673 1.000000 0.000000 
-5.056312 21.626408 -0.692181 0.643127 35.554306 1.000000 0.000000 
0.083214 22.545113 -0.859072 -4.024918 26.571098 0.000000 0.000000 
-0.026653 22.542496 -0.874550 -12.906830 16.794979 1.000000 0.000000 
0.288259 22.864813 -0.824421 19.555962 48.586685 0.000000 0.000000 
0.257153 22.986610 -0.846744 18.345375 48.321205 0.000000 0.000000 
0.031421 23.242947 -0.763047 -6.815605 26.099236 0.000000 0.000000 
0.064647 23.629763 -0.840249 -10.457497 23.530996 1.000000 0.000000 
-12.811490 59.658810 -1.909691 -13.438148 10.268570 1.000000 0.000000 
-13.572615 60.095333 -2.411839 -14.636711 10.568905 1.000000 0.000000 
-13.690032 60.257366 -2.267101 -20.423782 5.670951 1.000000 0.000000 
-13.132356 60.602219 -1.614797 -18.671471 8.050400 1.000000 0.000000 
-13.073187 60.800983 -2.000390 -14.892426 10.156281 1.000000 0.000000 
-13.295436 60.752991 -1.967873 -13.072342 12.863369 1.000000 0.000000 
-13.421265 60.765945 -2.196355 -14.359016 11.094837 1.000000 0.000000 
-13.312477 60.876945 -2.132759 -7.689957 16.101887 1.000000 0.000000 
-13.347314 60.900726 -2.059285 -13.508545 10.737602 1.000000 0.000000 
-13.524351 62.739735 -1.411510 -20.716133 4.738269 1.000000 0.000000 
-14.236097 62.674252 -2.334763 -18.666122 7.606929 1.000000 0.000000 
-13.662546 63.090633 -2.362700 -16.068420 9.026188 1.000000 0.000000 
-14.427197 62.928852 -2.170087 -20.511353 8.262592 1.000000 0.000000 
-13.452155 63.210381 -2.104954 -21.170784 5.879627 1.000000 0.000000 
-14.135101 63.130878 -1.973626 -19.096741 8.056782 1.000000 0.000000 
-13.946843 63.180431 -2.413377 -15.698396 9.452469 1.000000 0.000000 
-13.504410 63.689045 -1.992831 -15.268425 9.672489 1.000000 0.000000 
-13.532201 65.506569 -1.791526 -20.887901 4.933643 1.000000 0.000000 
-12.888312 66.606674 0.620807 -15.461609 9.266220 1.000000 0.000000 
-13.045372 67.231621 -0.037209 -13.227180 10.645767 0.000000 0.000000 
-12.714658 67.316399 2.357297 -10.494118 14.235676 0.000000 0.000000 
-12.833121 67.361465 2.326394 -10.507004 14.653616 0.000000 0.000000 
-13.337053 68.624390 -2.463640 -18.605774 6.577682 1.000000 0.000000 
-13.240103 68.820351 -2.845905 -13.686401 9.066887 1.000000 0.000000 
-13.275469 68.844009 -1.996259 -13.906044 10.048130 1.000000 0.000000 
-13.187647 69.093330 -2.104984 -15.473175 8.057030 1.000000 0.000000 
-13.363941 69.070824 -2.043768 -11.276787 11.585403 1.000000 0.000000 
-13.436775 69.059464 -2.271190 -7.768417 14.002800 1.000000 0.000000 
-13.372517 69.187851 -2.183769 -4.526550 17.763645 1.000000 0.000000 
-13.477177 69.426376 -2.063346 -15.840042 6.480377 1.000000 0.000000 
-13.488181 69.503098 -2.152853 -11.423050 11.453945 1.000000 0.000000 
-13.522346 69.562965 -2.164324 0.854660 20.602745 1.000000 0.000000 
-13.708974 69.539673 -2.208342 -1.042534 19.358967 1.000000 0.000000 
-13.504524 69.762772 -2.169739 -9.034897 11.722954 1.000000 0.000000 
-13.511939 69.807945 -1.974657 -8.782951 12.427444 1.000000 0.000000 
-13.588449 69.828194 -2.128793 -5.313370 16.954048 1.000000 0.000000 
-13.515653 69.899223 -2.280708 2.747833 24.001358 1.000000 0.000000 
-13.536884 69.957634 -2.123747 -6.727127 16.063656 1.000000 0.000000 
-13.737091 70.655495 -2.174885 -10.655914 13.036789 1.000000 0.000000 
-18.252686 -2.037717 -0.468754 2.412262 42.371017 0.000000 0.000000 
-18.411739 -2.533402 -0.212895 3.153442 38.541252 0.000000 0.000000 
-18.680033 -2.102463 -0.318868 7.255051 43.882923 0.000000 0.000000 
-18.680418 -2.118038 -0.346973 7.631783 45.221447 0.000000 0.000000 
-19.126007 -2.474700 0.038892 -12.661606 28.317778 0.000000 0.000000 
-20.360840 -0.892288 -0.851340 3.976418 39.681622 0.000000 0.000000 
-20.360859 -0.898326 -1.002978 4.789391 40.945839 0.000000 0.000000 
-20.731701 3.996108 5.998758 -4.862473 26.840607 0.000000 0.000000 
-18.622683 -11.529093 2.240602 3.291069 34.948875 0.000000 0.000000 
-19.108070 -11.612189 2.247780 0.870743 33.454140 0.000000 0.000000 
-19.262098 -11.359571 1.391485 -2.581596 32.625164 0.000000 0.000000 
-19.049843 -12.121993 -0.392277 -5.559387 29.503754 0.000000 0.000000 
-19.775812 -11.305531 1.173201 1.980927 34.037827 0.000000 0.000000 
-18.348166 -14.253707 -0.691256 16.110931 45.175251 0.000000 0.000000 
-18.408043 -14.331630 -0.722943 13.964493 44.063080 0.000000 0.000000 
-18.466110 -14.665200 -0.512389 -0.815750 31.855135 0.000000 0.000000 
-18.603573 -14.509170 -0.965831 2.181824 33.775936 0.000000 0.000000 
-24.106688 5.006014 9.598949 -9.232613 21.699362 0.000000 0.000000 
-26.436577 -2.366064 3.868027 -9.762489 24.696621 0.000000 0.000000 
-20.507280 -21.512127 -4.749538 -4.324203 25.307549 0.000000 0.000000 
-23.537432 -18.543087 0.726922 -5.073929 25.435642 0.000000 0.000000 
-21.366119 -21.230778 3.219897 -2.830811 26.784801 0.000000 0.000000 
-21.225836 -21.434967 2.279244 -0.944168 28.616488 0.000000 0.000000 
-29.539482 -7.035074 13.006026 -4.292900 24.903986 0.000000 0.000000 
-29.577250 -7.290364 0.507851 -5.192444 23.339739 0.000000 0.000000 
-26.122881 14.425333 -4.526067 -3.197296 24.097891 0.000000 0.000000 
-19.303259 -25.032303 -6.709571 -5.819237 22.390177 0.000000 0.000000 
-20.026407 -24.809738 -3.930709 2.145073 29.558842 0.000000 0.000000 
-20.370186 -24.780476 2.555028 0.276024 26.290987 0.000000 0.000000 
-20.900253 -25.179234 0.793508 -4.048943 25.113602 0.000000 0.000000 
-35.124462 0.249305 2.295238 -1.377647 26.795914 0.000000 0.000000 
-35.274254 0.428005 1.338404 -3.255905 24.812899 0.000000 0.000000 
-37.029449 -4.110843 1.015169 9.650154 37.826950 0.000000 0.000000 
-37.113102 -3.762425 0.704793 7.860703 34.487614 0.000000 0.000000 
-25.012917 -29.101616 11.713852 -1.836472 22.581509 0.000000 0.000000 
-38.485260 -7.833389 2.466964 1.710205 25.554722 0.000000 0.000000 
-38.614258 -7.699483 1.696396 3.372475 28.171753 0.000000 0.000000 
-38.816223 -7.142654 0.625276 -1.681259 22.246502 0.000000 0.000000 
-38.568100 -19.678722 0.885056 3.732651 25.373192 0.000000 0.000000 
-38.738350 -19.607029 0.716332 7.665260 29.509857 0.000000 0.000000 
-21.970226 -43.531189 7.640039 4.478874 22.537285 0.000000 0.000000 
-21.494062 -47.136265 4.284854 1.858803 19.672489 0.000000 0.000000 
-20.190590 -48.135845 3.378214 4.210297 20.635908 0.000000 0.000000 
-21.232254 -56.497425 7.305636 3.571815 17.821934 0.000000 0.000000 
-6.014421 -1.072685 -0.565776 -0.085747 50.674744 0.000000 0.000000 
-6.017173 -1.022516 -0.603530 5.005578 55.520535 0.000000 0.000000 
-6.069479 -1.027668 -0.617721 7.136292 57.381519 0.000000 0.000000 
-6.831626 0.011083 0.101689 0.947701 49.054085 0.000000 0.000000 
-6.942182 -0.007704 0.171846 6.124069 55.266037 0.000000 0.000000 
-6.735435 -6.537901 0.189312 -9.038879 38.289139 0.000000 0.000000 
-6.849927 -6.543757 0.236652 -9.590401 35.750599 0.000000 0.000000 
-6.504723 -7.779158 -0.397705 -5.506340 37.368904 0.000000 0.000000 
-7.076912 -9.852284 0.912699 -13.095085 30.453682 0.000000 0.000000 
-6.377242 -10.431944 0.284460 -9.794655 34.278305 0.000000 0.000000 
-6.645153 -10.712613 0.072196 -15.491600 27.679441 0.000000 0.000000 
-7.191251 -10.650741 1.612881 -15.105247 29.448374 0.000000 0.000000 
-6.795694 -11.116347 0.450893 -10.725060 30.044708 0.000000 0.000000 
-6.832313 -11.156591 -0.023879 -9.450470 30.779316 0.000000 0.000000 
-6.592769 -11.585492 -0.165172 -15.255432 28.789675 0.000000 0.000000 
-6.648995 -11.869779 0.365249 -13.280968 27.426685 0.000000 0.000000 
-6.521558 -11.963238 0.367532 -13.611610 28.043921 0.000000 0.000000 
-6.388901 -12.254657 -0.157198 -10.734787 29.225538 0.000000 0.000000 
-6.526414 -12.199240 -0.602088 -12.406311 30.106544 0.000000 0.000000 
-6.815723 -12.235765 1.503251 -10.467186 29.823999 0.000000 0.000000 
-5.997630 -12.895387 -0.547958 -13.778641 28.690296 0.000000 0.000000 
-6.511016 -12.671290 -0.086210 -14.659401 27.711300 0.000000 0.000000 
-6.470036 -12.943545 0.600516 -8.078239 30.878307 0.000000 0.000000 
-6.483680 -13.060427 0.682676 -10.306549 28.696890 0.000000 0.000000 
-7.098145 -12.895042 1.169165 -11.659546 24.932901 0.000000 0.000000 
-6.392445 -13.624186 -1.014607 -13.368591 25.468245 0.000000 0.000000 
-6.252409 -13.797588 -0.907027 -15.725235 24.799091 0.000000 0.000000 
-6.539047 -13.985153 0.027436 -17.807320 23.201488 0.000000 0.000000 
-6.700947 -14.124243 -0.184148 -17.437378 23.274319 0.000000 0.000000 
-6.390258 -14.553411 0.061043 -17.873215 20.504997 0.000000 0.000000 
-6.978504 -14.517419 4.200115 -16.784485 22.128603 0.000000 0.000000 
-6.464098 -14.974737 0.046612 -8.708191 26.993532 0.000000 0.000000 
-6.462608 -15.002471 0.161844 -6.584450 29.078991 0.000000 0.000000 
-6.499363 -15.170554 0.797942 -13.738373 23.028795 0.000000 0.000000 
-6.330432 -15.435447 0.756691 -8.674469 27.937677 0.000000 0.000000 
-6.396492 -15.523581 0.469685 -6.019112 29.454268 0.000000 0.000000 
-6.483503 -15.740482 -0.547723 -14.909264 21.949940 0.000000 0.000000 
-6.881762 -15.653559 1.036376 -3.443230 32.629860 0.000000 0.000000 
-6.897806 -15.826446 0.305291 -8.558571 28.520077 0.000000 0.000000 
-6.039789 -16.864239 -0.312210 -13.659538 22.893465 0.000000 0.000000 
-6.062214 -16.897148 -0.759025 -8.920700 25.325233 0.000000 0.000000 
-6.729571 -17.048630 -0.044500 -7.016396 25.569403 0.000000 0.000000 
-6.694983 -17.161781 -0.123999 -7.238213 26.127396 0.000000 0.000000 
-6.679639 -18.674007 0.045347 -4.374054 29.981890 0.000000 0.000000 
-6.808085 -18.740982 -0.192601 -3.558029 30.444372 0.000000 0.000000 
-6.505047 -18.962051 0.899129 -11.339684 25.501808 0.000000 0.000000 
-6.119310 -19.316887 -0.818091 -11.574074 22.533802 0.000000 0.000000 
-5.891864 -19.397842 -0.575817 -11.087456 26.760639 0.000000 0.000000 
-6.575927 -20.151310 -0.124823 -14.424309 22.081215 0.000000 0.000000 
-6.783230 -21.760742 0.687135 -7.200760 27.571682 0.000000 0.000000 
-6.512880 -24.347546 -0.416378 -8.544899 23.369404 0.000000 0.000000 
-6.254567 -24.456722 -0.706972 -4.933350 25.980509 0.000000 0.000000 
-6.664405 -24.525043 -0.995113 -10.422371 22.177315 0.000000 0.000000 
-8.219600 -25.077881 4.790720 -11.139458 21.575956 0.000000 0.000000 
-6.263540 -27.256454 0.488686 -10.270287 19.874750 0.000000 0.000000 
-6.826389 -27.420120 0.603553 -5.562538 22.228840 0.000000 0.000000 
-6.991636 -37.375423 0.325706 -5.081535 18.277683 0.000000 0.000000 
-6.888515 -43.054295 2.853141 -3.424995 19.378189 0.000000 0.000000 
-6.207978 -48.878635 0.309436 0.999908 22.611473 0.000000 0.000000 
-6.914465 -55.140732 0.034616 0.320488 20.570639 0.000000 0.000000 
-6.528790 -55.237713 -1.560314 -0.399582 19.771498 0.000000 0.000000 
-5.978222 -56.413906 -0.821758 -3.148987 18.067883 0.000000 0.000000 
-8.689487 -56.315182 4.685791 6.733765 22.649727 1.000000 0.000000 
-5.324823 -61.270485 2.173073 1.648247 19.029596 0.000000 0.000000 
-6.259140 -61.329235 1.765440 4.313599 20.700169 0.000000 0.000000 
-6.480056 -13.640676 -1.263751 -7.525650 28.358450 0.000000 0.000000 
-6.436300 -14.892805 -0.292633 -4.230644 30.180483 0.000000 0.000000 
-5.567002 -15.302358 -0.037300 -5.749672 30.901089 0.000000 0.000000 
-6.646441 -16.907728 -0.595362 -4.521423 29.343882 0.000000 0.000000 
-6.086734 -17.183647 -0.375378 -4.931770 27.714586 0.000000 0.000000 
-6.797380 -18.523624 0.335388 -0.748009 30.152456 0.000000 0.000000 
-7.542202 -18.249805 0.598149 -2.998123 29.224812 0.000000 0.000000 
-7.122790 -21.512272 -0.184423 -0.327438 31.298775 0.000000 0.000000 
-6.801110 -21.740295 -0.486854 -0.777206 29.611473 0.000000 0.000000 
-7.447720 -24.494846 0.644993 -2.097038 28.541880 0.000000 0.000000 
-6.957526 -32.121941 6.343297 -3.342003 23.196163 0.000000 0.000000 
-3.655326 -28.867134 4.495976 -2.886345 29.618301 0.000000 0.000000 
8.909235 -24.290878 -0.804519 -6.317162 24.379623 0.000000 0.000000 
8.955459 -26.562115 2.230967 -4.558189 26.031738 0.000000 0.000000 
9.160309 -26.923203 -6.473709 -6.511520 23.933880 0.000000 0.000000 
13.289391 -27.447769 -0.602964 -4.149002 26.993664 0.000000 0.000000 
12.365228 -28.944565 -0.809592 0.533630 27.499506 0.000000 0.000000 
12.967096 -28.920010 -0.554538 2.255043 29.301474 0.000000 0.000000 
12.891208 -29.220325 -0.685547 -0.780777 26.455652 0.000000 0.000000 
8.714352 -37.865452 -4.963364 -3.292580 23.194712 0.000000 0.000000 
10.450783 -39.380138 3.842051 -1.583000 21.573605 0.000000 0.000000 
2.741943 -41.763611 5.939871 -2.350693 22.311266 0.000000 0.000000 
9.033938 -41.175861 -0.883830 4.716972 26.613838 0.000000 0.000000 
9.424763 -41.126591 0.123263 4.484292 25.258085 0.000000 0.000000 
7.354602 -8.458843 -1.261987 7.126221 47.827179 0.000000 0.000000 
9.540357 -8.846361 -1.260727 -10.908600 31.167145 0.000000 0.000000 
8.364582 -17.125206 -0.756795 -11.458702 24.348280 0.000000 0.000000 
7.482658 -34.190228 -0.090525 2.147919 27.610538 0.000000 0.000000 
7.638253 -35.018909 1.222086 -4.697777 23.494625 0.000000 0.000000 
7.810356 -35.083382 1.273561 -0.257874 29.062254 0.000000 0.000000 
6.243851 -36.598873 -0.749631 -1.190598 23.032572 0.000000 0.000000 
3.973341 -41.368340 6.282626 0.983559 25.725777 0.000000 0.000000 
3.669218 -41.431362 5.804725 -1.431114 23.510929 0.000000 0.000000 
8.852413 -43.489017 1.770039 -2.592033 20.523067 0.000000 0.000000 
24.806427 -48.381516 -1.065173 1.091454 17.815044 0.000000 0.000000 
23.028200 -49.579666 5.345362 0.308121 17.413303 0.000000 0.000000 
23.110662 -53.980305 -2.055269 2.837044 18.746231 0.000000 0.000000 
24.589739 -51.362228 2.380331 2.917603 22.863815 0.000000 0.000000 
24.687038 -51.474571 2.342851 1.696297 22.922665 0.000000 0.000000 
28.619019 -59.728771 -2.949792 3.653877 20.719107 0.000000 0.000000 
24.759277 -15.093224 2.051402 -3.082840 26.620373 0.000000 0.000000 
25.407951 -15.466848 0.183349 1.756203 29.067791 0.000000 0.000000 
25.871292 -14.873241 0.802479 -1.639305 27.514074 0.000000 0.000000 
26.844164 -13.518068 8.795219 -1.229187 28.359873 0.000000 0.000000 
23.455164 -21.720539 0.422164 2.561707 29.069796 0.000000 0.000000 
23.569448 -21.705536 0.453392 6.758041 32.678589 0.000000 0.000000 
40.017792 -2.206691 3.078174 -7.942703 20.703190 0.000000 0.000000 
41.674381 -1.328235 1.590243 11.009476 34.895473 0.000000 0.000000 
43.104313 -0.559458 1.231764 7.000618 30.952526 0.000000 0.000000 
43.263836 -0.515088 1.471129 7.842354 30.097416 0.000000 0.000000 
27.478487 -0.926603 -1.655808 -11.479858 18.977983 1.000000 1.000000 
32.369652 9.036813 -0.626204 17.292007 37.358917 0.000000 0.000000 
32.287117 9.305716 -0.687608 17.364731 39.176403 0.000000 0.000000 
32.373840 9.207035 -0.659326 20.450691 42.455750 0.000000 0.000000 
34.471424 8.770123 -1.144199 15.482544 36.578201 0.000000 0.000000 
34.626320 8.610575 -1.336515 15.302101 35.648155 0.000000 0.000000 
38.545071 8.037120 -0.366140 7.103554 27.860106 0.000000 0.000000 
38.621880 7.896486 -0.644795 9.509277 30.004333 0.000000 0.000000 
38.800137 7.329870 -0.825576 4.613305 27.546021 0.000000 0.000000 
38.845207 7.692246 -1.252797 4.413231 27.896595 0.000000 0.000000 
42.648289 8.678108 -1.460853 16.551414 34.186447 0.000000 0.000000 
42.694614 8.667283 -1.261199 15.336311 33.745808 0.000000 0.000000 
44.387798 9.692637 0.247821 8.700011 28.297131 0.000000 0.000000 
44.768780 8.490124 13.613310 6.625039 25.969692 0.000000 0.000000 
46.556541 8.197223 -2.332731 18.252365 33.420029 0.000000 0.000000 
46.665440 8.175729 -4.204051 19.649147 35.541214 0.000000 0.000000 
47.362362 8.109975 -0.584166 4.975243 23.025816 0.000000 0.000000 
47.454262 7.686497 -1.270543 5.137566 25.369188 0.000000 0.000000 
47.588619 6.938271 -2.406095 1.872810 22.357252 0.000000 0.000000 
50.524490 9.095222 -1.455208 9.794037 28.267540 0.000000 0.000000 
50.329742 10.024307 -0.931012 13.122833 32.860477 0.000000 0.000000 
52.543587 9.105368 0.156696 16.193230 32.536324 0.000000 0.000000 
52.547173 9.404460 0.491114 18.311531 32.076408 0.000000 0.000000 
52.677185 8.742785 0.011857 15.525848 33.302666 0.000000 0.000000 
53.576965 9.670022 -1.204614 1.563606 18.646997 0.000000 0.000000 
53.742630 9.617021 -1.738665 2.973640 19.911871 0.000000 0.000000 
54.885677 10.182181 -1.676789 1.421814 17.474073 0.000000 0.000000 
56.675282 9.724157 1.715966 13.059471 26.485146 0.000000 0.000000 
58.510208 8.882406 -0.946492 20.847183 33.429619 0.000000 0.000000 
58.677948 8.744370 -1.039201 21.030357 34.427856 0.000000 0.000000 
60.337521 10.181227 0.698020 21.110748 33.379345 0.000000 0.000000 
60.441891 9.604563 -0.262120 23.913193 36.601574 0.000000 0.000000 
62.655697 8.771935 -1.974475 12.808258 27.507418 0.000000 0.000000 
62.723087 8.570587 -2.289524 11.869438 27.635706 0.000000 0.000000 
66.220207 10.548032 0.433849 5.182999 18.335325 0.000000 0.000000 
67.935814 10.299701 -3.412743 1.868561 17.699644 0.000000 0.000000 
70.447739 9.351644 0.150061 9.873215 23.991936 0.000000 0.000000 
15.508954 30.831732 1.091510 -1.884689 28.852644 0.000000 0.000000 
15.758695 30.803782 1.491120 -6.379562 24.344151 0.000000 0.000000 
6.426600 54.435875 3.475621 -13.011682 18.000536 0.000000 0.000000 
6.578045 55.293972 3.796417 -6.128433 22.743998 0.000000 0.000000 
7.273919 55.350441 3.634398 -14.005386 13.501692 0.000000 0.000000 
6.918928 55.688839 4.810959 -6.687981 20.321253 0.000000 0.000000 
6.685519 55.824986 4.703966 -5.778908 20.848545 0.000000 0.000000 
6.820756 56.870831 4.618513 -15.929245 16.234180 0.000000 0.000000 
7.513752 57.508541 3.255978 -9.214432 15.970917 0.000000 0.000000 
3.046277 -6.592808 -1.433781 -1.454247 41.635036 0.000000 0.000000 
2.671250 -7.602406 -0.153749 -2.369026 42.287849 0.000000 0.000000 
2.719738 -7.605196 -0.207360 -0.432510 43.384586 0.000000 0.000000 
2.494987 -8.035000 0.159166 -3.381317 42.912987 0.000000 0.000000 
2.784216 -8.078878 0.149520 -4.962173 41.311661 0.000000 0.000000 
2.345654 -0.966313 0.036770 -13.762722 50.435543 0.000000 0.000000 
2.492762 -0.973945 0.036172 -13.603104 55.523205 0.000000 0.000000 
2.414175 -2.016439 0.044181 -24.428581 33.860603 0.000000 0.000000 
2.443671 -2.074195 0.009449 -27.049019 41.032825 0.000000 0.000000 
2.420135 -2.500312 0.148999 -23.665180 41.492401 0.000000 0.000000 
2.464598 -2.594625 0.060359 -22.266697 40.949780 0.000000 0.000000 
2.401776 -2.856101 -0.023300 -19.823288 43.353233 0.000000 0.000000 
2.405032 -3.124409 -0.102332 -28.563797 38.782719 0.000000 0.000000 
2.451794 -3.535898 0.073656 -13.977764 46.298355 0.000000 0.000000 
2.481676 -3.516045 0.105836 -13.113174 46.496719 0.000000 0.000000 
2.515096 -3.613195 0.073415 -9.551113 48.370441 0.000000 0.000000 
2.432285 -3.956764 0.027183 -19.039051 42.053314 0.000000 0.000000 
2.451493 -4.140048 0.036190 -14.962742 42.657005 0.000000 0.000000 
2.475366 -4.185143 0.061830 -15.195076 43.684273 0.000000 0.000000 
2.432219 -4.472433 -0.081586 -17.959469 40.376030 0.000000 0.000000 
2.454700 -4.546412 -0.079934 -21.151848 40.465008 0.000000 0.000000 
2.467163 -4.602962 -0.064238 -19.932655 39.990452 0.000000 0.000000 
2.475456 -4.734303 -0.053138 -19.785934 35.897110 0.000000 0.000000 
2.454731 -5.060947 0.082199 -9.556225 43.208038 0.000000 0.000000 
2.475245 -5.158334 0.065765 -11.357128 42.327953 0.000000 0.000000 
2.402584 -5.335259 -0.160156 -12.095047 40.297466 0.000000 0.000000 
2.450803 -5.498604 0.011460 -1.648026 45.183681 0.000000 0.000000 
2.447821 -5.501493 0.037605 0.887428 54.616074 0.000000 0.000000 
2.440387 -5.505616 0.012001 -1.668983 44.647079 0.000000 0.000000 
2.473163 -6.250589 0.104490 -9.284927 42.193165 0.000000 0.000000 
2.479998 -6.360234 0.038021 -6.245895 44.379993 0.000000 0.000000 
2.483287 -6.469967 -0.125467 -7.699432 44.550285 0.000000 0.000000 
2.474526 -6.746311 0.065056 -7.134315 43.853550 0.000000 0.000000 
2.468251 -6.795961 -0.035250 -6.505104 42.461300 0.000000 0.000000 
2.413534 -7.060054 -0.129643 -8.837139 44.308517 0.000000 0.000000 
2.435598 -7.228885 -0.086113 -2.517746 44.227028 0.000000 0.000000 
2.438890 -7.231100 0.021623 -4.113029 43.903278 0.000000 0.000000 
2.295998 -7.530585 0.147815 -7.450996 38.651588 0.000000 0.000000 
2.362477 -7.514933 0.071421 -9.460133 38.947441 0.000000 0.000000 
2.382602 -7.657717 0.062783 -7.011971 39.141106 0.000000 0.000000 
2.297139 -7.930645 0.092304 -4.255165 40.653988 0.000000 0.000000 
2.274526 -8.233184 -0.184541 -10.021645 40.817802 0.000000 0.000000 
2.410895 -8.426573 0.136564 -8.622955 37.866405 0.000000 0.000000 
2.415199 4.822205 -0.025499 -27.980305 26.028637 0.000000 0.000000 
2.663499 5.027336 0.123384 -28.599983 23.455345 0.000000 0.000000 
2.311279 5.969163 -0.074252 -42.367924 16.816484 0.000000 0.000000 
2.360633 5.969450 -0.054903 -39.174034 18.563190 0.000000 0.000000 
2.292396 6.959321 0.037530 -10.885628 43.622173 0.000000 0.000000 
2.319023 6.984972 0.042177 -11.251015 45.398251 0.000000 0.000000 
2.385046 7.449984 -0.080014 -26.906048 30.483324 0.000000 0.000000 
2.289982 7.628374 -0.076227 -30.887657 27.521057 0.000000 0.000000 
2.288540 7.908540 -0.039427 -21.327927 32.682674 0.000000 0.000000 
2.373024 7.974633 -0.030286 -22.123951 34.968105 0.000000 0.000000 
2.413642 8.409025 -0.018184 -24.732052 28.423330 0.000000 0.000000 
2.266950 8.595394 -0.147343 -37.567894 22.452614 0.000000 0.000000 
2.268793 8.951991 0.018655 -8.315865 41.416023 0.000000 0.000000 
2.302119 9.000837 0.023066 -6.548965 42.722897 0.000000 0.000000 
2.328274 9.748252 -0.095217 -22.849426 24.430035 0.000000 0.000000 
2.246836 -8.624567 -0.010182 -21.716682 21.809402 1.000000 1.000000 
2.395528 -8.949312 -0.103292 -2.954872 40.210728 0.000000 0.000000 
2.481087 -8.963381 -0.055309 -2.051857 40.965950 0.000000 0.000000 
2.297182 -9.271597 0.078957 -5.312622 36.736549 0.000000 0.000000 
2.482395 -9.461718 0.200232 0.512962 41.844181 0.000000 0.000000 
2.420324 -9.509104 0.139843 3.323593 45.570332 0.000000 0.000000 
2.439763 -9.738110 0.317702 -8.601364 36.237591 0.000000 0.000000 
2.204601 -10.180636 -0.139497 -7.265747 34.780663 0.000000 0.000000 
2.474539 -10.228539 -0.032099 -3.832367 39.244408 0.000000 0.000000 
2.198759 -10.553567 -0.218414 -5.871323 35.201080 0.000000 0.000000 
2.292593 -10.533254 -0.113076 -2.907379 39.654442 0.000000 0.000000 
2.081349 -10.826654 -0.451064 -4.780251 36.968689 0.000000 0.000000 
2.177749 -10.875621 -0.238793 -3.570343 37.187801 0.000000 0.000000 
2.201972 -10.964172 -0.311207 -7.479187 33.936356 0.000000 0.000000 
2.255559 -11.150020 -0.362538 -6.485413 35.225971 0.000000 0.000000 
-6.607513 -10.952240 -4.206313 -19.698692 23.737995 0.000000 0.000000 
-13.006271 3.731681 -0.381515 -7.090370 30.937670 1.000000 0.000000 
-12.984504 4.323977 -0.130256 -19.719498 21.589958 1.000000 0.000000 
-13.158495 4.028957 -0.427928 -17.785286 21.728588 1.000000 0.000000 
-13.419752 3.733760 -0.382197 -1.081345 35.539707 1.000000 0.000000 
-13.475015 4.357019 -0.193130 -13.630966 24.990715 1.000000 0.000000 
-13.813892 3.657207 -0.439546 -10.930466 26.781538 1.000000 0.000000 
-13.816728 4.114276 -0.449234 -16.853821 21.530872 1.000000 0.000000 
-13.815593 4.126293 -0.414222 -15.393089 21.294533 1.000000 0.000000 
-13.121397 6.120180 -0.194019 -13.661758 24.032934 1.000000 0.000000 
-13.054873 6.392652 -0.449103 -15.984367 21.511309 1.000000 0.000000 
-6.191336 -14.164966 -3.164245 -13.313202 23.977203 0.000000 0.000000 
-14.263515 3.805745 -0.217602 -13.672272 22.978859 1.000000 0.000000 
-6.257612 -16.328808 -4.782561 -9.158272 25.979935 0.000000 0.000000 
-6.326701 -16.304863 -5.079534 -9.390480 25.216124 0.000000 0.000000 
-16.645369 8.433288 1.057367 -11.870667 21.273926 1.000000 0.000000 
-17.701799 8.924116 0.996526 -8.931328 24.248562 1.000000 0.000000 
-18.006218 8.921584 1.468813 -4.676285 29.395151 1.000000 0.000000 
-15.565424 -18.918919 0.286499 -12.231308 21.862240 0.000000 1.000000 
-5.762634 -23.998131 -6.879335 -4.451859 27.745594 0.000000 0.000000 
13.970908 -26.993923 -0.896231 0.274010 25.642380 0.000000 0.000000 
14.810264 -26.527977 0.333556 2.500801 27.543274 0.000000 0.000000 
13.734566 -28.183460 -0.073320 -2.963715 25.605247 0.000000 0.000000 
-15.565969 -31.015785 6.751565 -5.786102 21.991777 0.000000 1.000000 
-40.437168 1.291624 1.069041 -0.099197 23.225849 0.000000 0.000000 
-40.694653 1.335382 2.252556 5.378983 29.033993 0.000000 0.000000 
-40.781322 1.574881 2.839287 6.780137 31.340420 0.000000 0.000000 
14.448743 -39.268177 1.232105 -5.957130 19.445383 0.000000 0.000000 
-42.669289 3.149371 2.421933 3.629280 26.265659 0.000000 0.000000 
-7.007095 -42.669910 -1.206781 6.927361 27.984293 0.000000 1.000000 
-45.602844 -3.344498 5.334033 -3.497299 19.436996 0.000000 0.000000 
24.088659 -39.571861 1.453638 13.702850 27.763605 0.000000 0.000000 
-5.928329 -49.082642 4.719795 -8.535492 19.019768 0.000000 0.000000 
-10.612814 -56.395210 1.302835 -0.383873 20.850294 1.000000 0.000000 
-10.878107 -56.558922 2.050298 6.962594 22.474726 1.000000 0.000000 
-10.305457 -57.008907 1.211850 4.149590 20.669462 1.000000 0.000000 
-106.978722 -4.543682 8.873499 6.400955 15.054050 0.000000 0.000000 
-107.276878 -1.375109 4.963098 15.113312 23.121803 0.000000 0.000000 
-107.278954 -1.482802 4.922284 15.264603 22.705050 0.000000 0.000000 
-107.470993 -3.766120 2.583979 3.516518 17.140280 0.000000 0.000000 
-107.440628 -8.106842 4.183099 7.192619 16.226040 0.000000 0.000000 
-107.547424 -7.263054 3.546632 6.539277 15.526022 0.000000 0.000000 
-115.464195 -2.832549 6.259765 12.913383 21.064140 0.000000 0.000000 
-115.476158 -2.407710 5.861919 9.504463 16.892511 0.000000 0.000000 
62.993950 -99.216911 4.297350 21.161598 16.748413 0.000000 0.000000 
55.073921 -103.935875 7.467589 16.752068 17.846388 0.000000 0.000000 
57.049126 -102.945816 6.291776 20.758202 21.229591 0.000000 0.000000 
56.912090 -103.144302 8.043168 13.721245 14.473518 0.000000 0.000000 
66.245316 -107.989998 7.380049 21.373672 19.037937 0.000000 0.000000 
60.385651 -147.654694 6.556459 18.799911 17.236919 0.000000 0.000000 
2.470349 -8.458530 -1.664387 -11.262039 31.618603 0.000000 0.000000 
7.181221 -5.252025 -0.051193 3.442657 46.299683 0.000000 0.000000 
7.287468 -5.355612 -0.103237 5.018609 50.347427 0.000000 0.000000 
2.309039 -8.749508 0.072955 -1.932564 43.699425 0.000000 0.000000 
2.259003 -8.955145 0.004493 4.884758 45.678555 0.000000 0.000000 
2.247277 -8.958789 -0.023152 3.242622 46.855465 0.000000 0.000000 
8.693058 -4.028861 1.174657 0.315689 40.822594 0.000000 0.000000 
2.152843 -9.425971 -0.158898 -2.579445 43.115799 0.000000 0.000000 
2.190146 -9.482193 -0.076649 -4.229721 39.374481 0.000000 0.000000 
2.238428 -9.789941 -0.141822 -4.390717 38.647724 0.000000 0.000000 
2.164302 -9.959332 -0.265223 -4.326599 41.048195 0.000000 0.000000 
2.267210 -10.119146 -0.339045 -2.339470 39.072414 0.000000 0.000000 
2.260640 -10.214119 0.322421 -1.865952 39.966286 0.000000 0.000000 
2.237021 -10.363435 0.178346 -3.667549 39.348408 0.000000 0.000000 
2.177269 -10.614818 -0.134991 -2.183578 41.545479 0.000000 0.000000 
2.267950 -10.617850 0.036120 -3.160507 39.491009 0.000000 0.000000 
2.269105 -11.038191 -0.232978 1.488632 44.214005 0.000000 0.000000 
2.155867 -11.110037 -0.218841 1.537468 43.043030 0.000000 0.000000 
2.093255 -11.604664 0.292946 -5.758743 38.364731 0.000000 0.000000 
2.031805 -11.848704 0.118074 -1.774742 40.014515 0.000000 0.000000 
11.943326 -3.147187 0.019338 9.165634 48.836395 0.000000 0.000000 
11.941233 -3.163383 0.069788 7.842644 45.837673 0.000000 0.000000 
12.382038 -5.879334 -0.882651 -10.436104 31.095650 0.000000 0.000000 
13.908186 -2.766053 0.659389 1.714424 41.468491 0.000000 0.000000 
14.050445 -2.785207 0.696996 -1.333839 36.476093 0.000000 0.000000 
0.411217 -14.430700 0.575291 -13.750214 32.947433 0.000000 1.000000 
15.851680 -0.907410 -0.743330 1.182953 37.930016 0.000000 0.000000 
15.901021 -0.885056 -0.635768 -0.764473 37.160305 0.000000 0.000000 
-6.822511 -15.008964 -1.077880 -8.136879 26.858189 0.000000 0.000000 
17.050411 0.376876 -0.718023 8.114432 44.573635 0.000000 0.000000 
-5.662212 -16.069027 -6.074885 -11.131989 26.715111 0.000000 0.000000 
17.176548 0.396637 -0.777601 5.328171 42.695259 0.000000 0.000000 
3.907087 -17.815071 -0.998870 -11.977013 26.841343 0.000000 1.000000 
-6.069335 -17.116005 4.371835 -12.982872 22.909718 0.000000 0.000000 
17.085825 8.416495 0.102763 10.613968 38.724815 0.000000 0.000000 
17.038643 8.710166 0.458367 9.842896 38.900085 0.000000 0.000000 
17.958035 -9.826870 8.298974 -3.125900 31.913296 0.000000 1.000000 
20.724575 0.901386 -0.217445 -1.249847 32.150581 0.000000 1.000000 
18.553152 8.401253 -0.682314 1.701080 35.737858 0.000000 0.000000 
18.354921 9.795527 -0.017122 9.971962 42.457424 0.000000 0.000000 
18.308662 9.894953 0.042226 5.303680 40.028362 0.000000 0.000000 
18.590818 9.682551 -0.149992 6.343651 39.440796 0.000000 0.000000 
21.324507 -5.184419 3.041486 3.543243 37.868469 0.000000 0.000000 
21.908407 -5.835363 5.658493 -6.216049 27.649591 0.000000 0.000000 
-7.418435 -21.552837 -0.897033 -7.985336 24.228651 0.000000 0.000000 
22.142572 9.083185 0.001850 9.762192 41.044395 0.000000 0.000000 
21.917545 9.786974 0.218749 8.963943 38.477402 0.000000 0.000000 
27.588646 0.086866 0.468306 4.397903 36.204784 0.000000 0.000000 
26.591839 7.265882 -0.058401 -2.427223 28.543550 0.000000 0.000000 
26.345531 8.892409 -0.598722 13.441742 37.862621 0.000000 0.000000 
26.457937 8.900436 0.180019 11.455864 36.981731 0.000000 0.000000 
26.926636 7.874974 4.444592 4.519349 30.553190 0.000000 0.000000 
9.441925 -27.793903 7.050451 -2.080582 28.119776 0.000000 0.000000 
28.610327 8.573227 -0.448832 14.466103 37.864880 0.000000 0.000000 
28.544451 8.822173 -0.282650 17.053116 39.446945 0.000000 0.000000 
30.458960 8.267767 0.037461 9.701797 32.807270 0.000000 0.000000 
30.460939 8.264374 0.059130 10.024025 34.103325 0.000000 0.000000 
32.576477 1.429794 1.516143 13.593826 39.023979 0.000000 0.000000 
32.697502 1.232247 1.046044 13.655136 41.474045 0.000000 0.000000 
32.394409 -12.040509 5.578116 -2.414940 22.925705 0.000000 1.000000 
33.411785 -9.039621 5.559784 -5.079117 25.019428 0.000000 0.000000 
34.115135 -8.842480 2.647986 -5.229095 20.904158 0.000000 0.000000 
35.774986 13.947450 -2.037594 -3.704834 22.701572 0.000000 1.000000 
38.810997 -0.380318 0.621657 6.286720 30.901958 0.000000 0.000000 
38.867474 -0.521633 0.280832 8.041710 32.341534 0.000000 0.000000 
38.089909 16.627129 -1.081058 3.260788 24.294765 0.000000 1.000000 
-3.856462 -42.105564 10.438688 -2.775475 25.048252 0.000000 1.000000 
42.568645 16.090595 2.791236 -3.097366 21.076797 0.000000 0.000000 
42.985012 17.548943 -2.041027 -2.880974 20.125786 0.000000 0.000000 
43.940063 18.259251 11.003632 -2.464333 19.825750 0.000000 0.000000 
48.928719 -0.850686 10.464593 -2.279861 20.596416 0.000000 1.000000 
46.570755 16.854134 1.479303 15.183350 32.489021 0.000000 0.000000 
46.772984 16.432941 0.639536 14.854958 31.769142 0.000000 0.000000 
47.155922 16.411831 -0.857629 8.162804 25.706844 0.000000 0.000000 
47.311050 16.214401 10.986502 0.432457 23.021404 0.000000 0.000000 
49.129311 15.251977 0.340392 -1.193626 20.099289 0.000000 0.000000 
49.860886 16.718449 3.626835 1.356277 19.829880 0.000000 0.000000 
54.901131 7.150459 -0.201017 22.531075 38.157570 0.000000 0.000000 
54.969612 7.075212 -0.575507 20.031609 33.838192 0.000000 0.000000 
56.839359 6.852885 -2.020159 16.024834 29.839066 0.000000 0.000000 
56.935295 6.235373 -2.614013 19.853981 35.395897 0.000000 0.000000 
58.041660 0.894475 -0.060754 11.226059 28.176756 0.000000 0.000000 
58.036285 1.177115 0.234637 12.682648 29.348007 0.000000 1.000000 
55.763508 16.842724 -1.399791 2.175125 18.876141 0.000000 0.000000 
58.249142 6.962978 -2.198997 6.697990 22.202196 0.000000 0.000000 
58.435738 6.406219 -3.036812 6.088151 21.796057 0.000000 0.000000 
58.670734 7.213965 -0.284907 7.950287 24.081730 0.000000 0.000000 
34.739273 -49.096611 3.803083 6.912537 21.983467 0.000000 1.000000 
61.954494 -9.324098 3.047077 6.474358 23.676395 0.000000 0.000000 
62.027817 -9.195339 2.839629 7.140182 23.779636 0.000000 0.000000 
62.069172 -10.415600 2.277674 5.347771 21.379982 0.000000 0.000000 
62.044617 -11.174002 2.529744 5.379120 21.538305 0.000000 0.000000 
62.650101 14.055343 13.547437 4.236572 17.626232 0.000000 0.000000 
57.537952 -31.734985 0.049265 15.005440 28.095409 0.000000 0.000000 
57.701866 -31.633190 2.135967 17.345741 28.538218 0.000000 0.000000 
57.291088 -32.608505 5.925144 15.244621 28.544271 0.000000 0.000000 
66.739571 -10.525785 -1.230525 9.909805 27.833063 0.000000 0.000000 
66.749619 -10.706478 -0.016581 13.667992 29.643997 0.000000 0.000000 
67.599075 -11.241235 6.111547 2.380356 17.883781 0.000000 0.000000 
67.723862 13.315413 2.376992 22.458389 32.072952 0.000000 0.000000 
67.863853 13.170202 1.837980 24.232491 34.579308 0.000000 0.000000 
70.285789 -10.330870 -5.101069 6.442872 21.136282 0.000000 0.000000 
70.377220 -9.946525 -3.669015 10.545280 26.627041 0.000000 0.000000 
57.947937 -43.059071 3.587177 5.719208 21.625425 0.000000 0.000000 
57.874577 -43.334820 5.151423 12.783905 27.270700 0.000000 0.000000 
72.553482 9.113480 -0.045342 29.367516 39.178066 0.000000 0.000000 
72.643394 8.862000 -0.104137 25.817879 34.955368 0.000000 0.000000 
74.790169 7.033454 -2.824415 12.486305 24.035872 0.000000 0.000000 
74.874336 7.001791 -2.959401 16.221085 27.128199 0.000000 0.000000 
74.703941 8.971611 -1.371944 8.184044 21.236439 0.000000 0.000000 
55.319046 -53.291336 2.257130 11.316200 23.299679 0.000000 0.000000 
76.003120 -11.925262 6.949966 1.628098 17.603870 0.000000 0.000000 
76.748512 8.147839 -1.760894 15.072960 25.950615 0.000000 0.000000 
76.699043 8.934992 -0.504506 14.280540 24.267544 0.000000 0.000000 
8.022117 -77.209465 -1.876626 12.350983 25.675632 0.000000 0.000000 
8.327939 -77.194221 -1.213278 15.872887 28.017735 0.000000 0.000000 
78.659233 8.480971 -1.823772 20.387688 30.519163 0.000000 0.000000 
78.853966 8.148313 -2.024514 18.385376 28.662474 0.000000 0.000000 
56.162109 -58.409286 3.167540 3.777916 15.376352 0.000000 0.000000 
80.498528 9.146603 -1.380399 12.981758 22.679499 0.000000 0.000000 
80.541443 9.902527 0.049827 15.605499 26.609467 0.000000 0.000000 
80.596161 9.903280 0.251732 11.173065 22.836082 0.000000 0.000000 
82.708931 6.929026 0.887267 10.438477 21.390793 1.000000 0.000000 
83.091705 6.853158 0.604594 11.147644 21.572142 1.000000 0.000000 
83.122940 6.924369 0.809917 8.156525 17.176786 1.000000 0.000000 
83.169281 7.400535 1.757904 6.840431 18.571804 1.000000 0.000000 
-33.664284 -77.684189 0.874648 6.542801 15.270739 0.000000 0.000000 
84.435059 10.790286 -0.378947 9.805977 21.861094 0.000000 0.000000 
86.356194 10.570669 1.497576 13.050575 21.819035 0.000000 0.000000 
86.449692 10.230061 1.628555 12.849869 20.123405 0.000000 0.000000 
86.915108 -9.702585 7.699368 6.658363 18.388466 0.000000 0.000000 
57.646301 -67.857162 5.563422 17.768257 25.782507 0.000000 0.000000 
57.563248 -68.135345 1.979009 14.816536 23.386229 0.000000 0.000000 
57.864059 -67.933189 3.987023 16.155571 24.109417 0.000000 0.000000 
88.574997 9.842786 3.397130 13.406212 22.665674 0.000000 0.000000 
88.554932 10.037608 2.428510 16.387688 24.388353 0.000000 0.000000 
89.462097 -1.348226 -3.032603 5.887070 17.853928 0.000000 0.000000 
89.169708 -10.517979 8.928839 8.814209 22.217365 0.000000 0.000000 
89.252319 -10.034106 9.097856 8.004326 21.789879 0.000000 0.000000 
90.479973 9.860373 1.102840 21.936951 28.516785 0.000000 0.000000 
90.596123 10.167394 1.310584 24.687988 31.446856 0.000000 0.000000 
91.124229 -11.261446 7.070530 8.308632 22.457157 0.000000 0.000000 
91.256302 -11.047910 10.605969 7.998283 23.104898 0.000000 0.000000 
91.306358 -12.411006 10.626253 7.938179 18.388218 0.000000 0.000000 
91.428703 -12.120784 13.585621 13.784004 24.392616 0.000000 0.000000 
91.482361 -12.219373 11.678363 8.666504 20.049942 0.000000 0.000000 
91.561043 -12.314909 15.145034 9.715103 22.191885 0.000000 0.000000 
91.808868 -12.931431 10.351239 9.431290 19.238232 0.000000 0.000000 
91.970070 -12.254539 12.197926 8.206534 18.093880 0.000000 0.000000 
92.778419 8.067493 -1.059662 19.797470 27.348804 0.000000 0.000000 
92.871277 7.730063 -1.938775 17.853119 25.133818 0.000000 0.000000 
92.678619 -12.002994 12.118424 9.366257 18.706345 0.000000 0.000000 
96.364922 -11.601513 8.081682 9.212837 19.896421 0.000000 0.000000 
96.419769 -11.534434 7.061234 10.706367 19.843391 0.000000 0.000000 
108.468521 -10.295599 7.870367 11.364449 17.530434 0.000000 0.000000 
108.614067 -8.807917 10.523806 11.678154 17.401430 0.000000 0.000000 
107.804070 16.113041 0.517272 16.754616 21.796358 0.000000 0.000000 
107.766937 16.941860 -1.029450 12.733208 18.616138 0.000000 0.000000 
113.486847 -9.274363 13.059463 12.874443 17.661810 0.000000 0.000000 
113.524605 -9.204816 13.798717 16.250443 20.907879 0.000000 0.000000 
113.612923 -8.390852 16.389257 10.305161 15.405519 0.000000 0.000000 
113.770096 -11.226390 20.166344 10.571899 16.623234 0.000000 0.000000 
113.964851 -9.558840 21.173071 11.241447 17.312906 0.000000 0.000000 
7.432483 -115.968620 -2.366921 6.116951 13.895517 0.000000 0.000000 
118.154602 4.993771 0.110784 15.105858 23.558830 0.000000 0.000000 
118.223892 4.425124 0.339650 17.568771 23.929110 0.000000 0.000000 
118.516968 -0.580522 2.857230 6.603096 19.399443 0.000000 0.000000 
118.586250 5.085664 -0.455253 4.318130 11.829914 0.000000 0.000000 
118.717186 7.059951 -9.012036 12.513573 16.548508 0.000000 0.000000 
118.864769 7.989999 -5.593247 12.237701 17.896740 0.000000 0.000000 
118.738640 10.016747 -3.463757 13.908508 18.677769 0.000000 0.000000 
119.924210 -0.609772 0.182191 8.019919 14.261868 0.000000 0.000000 
127.343971 17.331657 3.348161 19.846611 20.873711 0.000000 0.000000 
10.345989 -129.291260 1.391547 14.911606 17.645565 0.000000 0.000000 
6.629039 -130.731461 -2.725870 11.279831 14.871550 0.000000 0.000000 
7.850374 -134.370117 0.601200 16.365715 18.992393 0.000000 0.000000 
134.419525 9.193871 -6.699438 13.833344 15.954739 0.000000 0.000000 
7.742012 -135.609726 0.790935 13.173584 17.110973 0.000000 0.000000 
136.603546 11.320074 -2.775886 14.779327 16.403210 0.000000 0.000000 
138.277435 11.682943 -1.287399 15.436592 16.802757 0.000000 0.000000 
6.960965 -140.861618 -2.730753 12.591408 15.242443 0.000000 0.000000 
8.229957 -143.374359 0.519896 22.643272 25.386314 0.000000 0.000000 
8.206568 -143.831985 0.081988 11.809669 14.200237 0.000000 0.000000 
7.634171 -144.643433 -3.806726 22.310989 23.849695 0.000000 0.000000 
6.344497 -145.828079 -1.488431 12.573967 14.574247 0.000000 0.000000 
7.151863 -145.896530 -4.463704 17.488899 19.969173 0.000000 0.000000 
7.633993 -147.107239 0.195520 25.239754 27.446148 0.000000 0.000000 
8.134354 -148.312210 -5.524507 21.279861 22.581385 0.000000 0.000000 
6.913816 -149.600693 -3.738491 18.282974 19.399025 0.000000 0.000000 
7.904072 -150.779175 -6.319772 15.068764 16.247770 0.000000 0.000000 
9.012444 -151.137177 -3.421262 14.043434 15.330826 0.000000 0.000000 
7.673705 -159.044098 -3.295099 12.329811 14.718292 0.000000 0.000000 
164.096634 -14.612127 13.533256 19.033089 19.562366 0.000000 0.000000 
166.408539 -11.118439 16.419430 15.139359 15.429579 0.000000 0.000000 
58.300224 -158.811172 5.469263 16.205620 16.237528 0.000000 0.000000 
8.822072 -173.321777 -5.211881 20.797592 20.498617 0.000000 0.000000 
8.328130 -174.108215 -1.390288 17.794937 17.289301 0.000000 0.000000 
176.387939 64.185059 18.577942 32.396416 25.337883 0.000000 0.000000 
184.692017 66.484596 17.704643 21.651939 15.232182 0.000000 0.000000 
2.269203 4.789905 0.012283 -28.287331 23.777981 0.000000 0.000000 
1.736337 5.787024 -0.023647 -49.912262 15.162416 1.000000 1.000000 
-0.322995 8.829773 0.013621 -44.835541 16.086670 1.000000 1.000000 
3.036971 10.618156 0.064440 -31.098724 10.492668 1.000000 1.000000 
2.295981 12.318027 0.405569 -16.103088 32.872242 0.000000 0.000000 
2.020734 12.476908 -0.069940 -35.035126 15.132866 1.000000 1.000000 
4.373782 11.727150 0.434113 -32.764275 14.537373 1.000000 1.000000 
2.217845 12.840149 -1.003883 -11.318878 35.029026 0.000000 0.000000 
2.199054 13.101917 0.109721 -10.875870 33.239998 0.000000 0.000000 
2.279442 13.528764 -0.074125 -1.971725 37.931961 0.000000 0.000000 
2.363952 13.952533 -0.103836 -0.008705 40.967659 0.000000 0.000000 
2.324180 14.383420 -0.155877 2.986534 43.254089 0.000000 0.000000 
2.314084 14.394340 -0.159103 0.173691 39.621246 0.000000 0.000000 
2.305673 14.494903 -0.147259 2.062363 40.904671 0.000000 0.000000 
2.353884 14.842769 -0.124333 -3.350090 35.877796 0.000000 0.000000 
2.269631 15.185333 0.132740 -9.485947 35.384895 0.000000 0.000000 
2.278217 15.285696 0.187830 -12.485519 35.835377 0.000000 0.000000 
2.133599 15.433928 0.497369 -19.627693 26.002998 1.000000 1.000000 
2.314129 15.723086 0.337370 -6.731232 35.622326 0.000000 0.000000 
2.330705 15.832994 0.260843 -8.012070 31.833725 0.000000 0.000000 
2.071538 16.321960 -0.272108 -17.847679 25.002876 1.000000 1.000000 
2.337844 16.605585 -0.043175 -7.801056 35.586021 0.000000 0.000000 
2.338064 16.711391 -0.023348 -6.159447 34.198612 0.000000 0.000000 
2.185911 17.269573 -0.054526 -18.714432 27.933857 0.000000 0.000000 
2.268544 17.515299 -0.169049 -3.462715 36.407356 0.000000 0.000000 
2.290313 17.535545 -0.086675 -3.018234 36.583088 0.000000 0.000000 
2.294152 17.951618 0.336633 -7.430992 30.440912 0.000000 0.000000 
1.939909 18.195696 0.119948 -33.568748 12.148987 1.000000 1.000000 
2.402570 18.238745 -0.182973 -11.587639 27.164799 1.000000 1.000000 
2.342128 18.262783 0.377076 -4.382713 30.231363 0.000000 0.000000 
2.338382 18.361565 -1.329632 -5.954483 33.924019 0.000000 0.000000 
2.256315 18.701283 0.032827 -11.696487 26.529747 0.000000 0.000000 
2.253700 19.309853 0.272681 -7.616234 30.419876 0.000000 0.000000 
2.041806 19.477257 0.027660 -20.626724 16.113298 1.000000 1.000000 
2.354472 19.488209 -0.226106 -28.393280 10.428219 1.000000 1.000000 
2.184130 19.742434 -0.052754 3.248108 39.983486 0.000000 0.000000 
2.230369 19.871489 0.174476 2.743805 38.915558 0.000000 0.000000 
2.406931 20.431549 -0.233156 -27.063889 12.146339 1.000000 1.000000 
2.251504 20.451015 -0.102395 -0.872757 37.256573 1.000000 1.000000 
2.152883 20.576540 -0.545484 8.242188 45.341171 0.000000 0.000000 
2.217332 20.974180 -0.441899 -0.188568 33.604321 0.000000 0.000000 
2.192762 21.001026 -0.473493 5.616189 41.296829 0.000000 0.000000 
-6.633781 22.592512 0.420942 -8.808380 29.003620 0.000000 0.000000 
-6.549140 22.894051 0.198699 -11.243294 24.583832 0.000000 1.000000 
-6.601694 23.062965 0.302829 -9.351891 28.688065 0.000000 0.000000 
-7.027039 23.371799 0.405818 -9.555779 29.239880 0.000000 0.000000 
-7.362556 24.171631 0.595694 -12.993584 27.375376 0.000000 0.000000 
-7.111310 24.727444 2.850426 -17.617340 22.837465 0.000000 0.000000 
7.975117 24.860691 -1.165314 -11.793373 26.341084 0.000000 0.000000 
11.536861 23.640265 9.456016 -10.567734 25.937572 0.000000 0.000000 
3.361269 26.551666 0.307037 -14.134706 24.587212 0.000000 0.000000 
7.235845 25.807491 0.043954 -8.648369 26.868530 0.000000 0.000000 
7.352134 25.976717 -3.614967 -12.517900 25.580063 0.000000 0.000000 
22.190796 12.386839 9.114258 5.587578 24.228851 0.000000 1.000000 
10.046568 25.851772 2.730752 -14.172859 23.149616 0.000000 0.000000 
0.994476 28.045570 2.336743 -17.761864 24.145487 0.000000 0.000000 
-7.811447 27.128664 3.930923 -10.013763 24.345018 0.000000 0.000000 
7.450393 27.712017 5.750712 -15.204698 23.708231 0.000000 0.000000 
7.424630 27.790810 3.798651 -8.900787 26.614796 0.000000 0.000000 
7.511778 27.791672 -7.128736 -16.655670 22.277773 0.000000 0.000000 
7.521682 27.877083 3.281783 -10.014572 23.392895 0.000000 0.000000 
7.567045 28.931311 4.451376 -12.444084 25.458206 0.000000 0.000000 
0.493829 30.503103 -1.220033 -18.294365 20.956848 0.000000 0.000000 
7.046387 29.815504 -7.504432 -18.224121 22.176191 0.000000 0.000000 
10.166469 29.621645 -7.580374 -17.077438 21.486578 0.000000 0.000000 
9.813248 30.590414 0.390864 -17.399567 19.927061 0.000000 0.000000 
6.577954 31.608206 0.672612 -14.980698 23.259628 0.000000 0.000000 
6.956065 31.697855 2.450535 -12.638168 21.893084 1.000000 1.000000 
6.918645 32.307869 2.323293 0.293457 32.909416 0.000000 0.000000 
7.062934 32.371155 2.452861 -0.280602 32.946438 0.000000 0.000000 
7.439555 32.524673 -3.590316 -16.971527 20.150894 0.000000 0.000000 
6.769085 32.699738 -0.740891 -16.584549 15.740387 1.000000 1.000000 
7.102302 32.809429 12.732570 -14.859886 25.103680 0.000000 0.000000 
23.480610 22.922617 8.842915 3.954857 23.981344 0.000000 0.000000 
6.962785 33.736671 -0.853528 -1.231300 31.998848 0.000000 0.000000 
7.012807 33.861732 -0.867831 -2.075920 30.010288 0.000000 0.000000 
6.200101 34.306744 -4.052666 -13.677048 20.684635 0.000000 0.000000 
7.792749 34.547905 3.659602 -18.663147 18.756233 0.000000 0.000000 
7.168443 35.012062 4.225732 -12.099236 23.290447 0.000000 0.000000 
5.954400 35.492844 3.804533 -8.520309 23.330544 0.000000 0.000000 
5.872582 35.507744 4.034494 -7.851479 24.309969 0.000000 0.000000 
5.772677 35.701309 -0.196902 -6.102043 29.735645 0.000000 0.000000 
8.409843 35.154026 1.854186 -5.495773 28.683739 0.000000 0.000000 
-29.676355 16.906109 9.060740 14.146599 26.643431 0.000000 0.000000 
6.468920 35.962692 1.043995 -15.794037 22.366993 0.000000 0.000000 
6.330931 36.105686 3.431281 -8.329735 26.348080 0.000000 0.000000 
6.354365 36.357124 3.054302 -4.609718 28.314676 0.000000 0.000000 
6.429937 36.464340 2.425652 -8.178017 24.299210 0.000000 0.000000 
5.993145 36.989769 -0.645482 -12.088280 22.106693 0.000000 0.000000 
6.109283 36.987045 0.858216 -9.883621 22.015036 0.000000 0.000000 
6.593441 36.916351 2.185509 -12.991646 22.463451 0.000000 0.000000 
6.227605 37.427216 8.685630 -13.753517 22.995014 0.000000 0.000000 
6.311935 37.515182 7.279930 -17.243568 18.140165 0.000000 0.000000 
29.040190 22.594666 -5.342331 2.328156 19.561829 0.000000 0.000000 
22.514963 30.346329 1.157320 -0.183846 21.182056 0.000000 0.000000 
23.066528 30.019621 0.811883 -4.357269 16.782438 0.000000 0.000000 
22.611721 30.568758 1.176645 -3.342964 21.421680 0.000000 0.000000 
22.125631 30.993656 0.551524 -0.101967 21.139889 0.000000 0.000000 
29.832426 23.033573 15.146810 0.886063 17.774395 0.000000 0.000000 
23.016584 31.571363 1.017223 -4.743607 17.040689 1.000000 1.000000 
33.653255 17.386772 0.050392 5.820611 18.011080 0.000000 0.000000 
6.419612 39.585564 -1.548567 -19.260529 16.753519 0.000000 0.000000 
5.972754 39.814434 -0.672767 -21.657387 14.455770 0.000000 0.000000 
9.592843 39.340721 -0.995919 -14.204933 17.808908 0.000000 0.000000 
5.871104 40.293278 10.158549 -19.023232 16.496120 0.000000 0.000000 
-18.901123 35.871269 15.878710 -12.646852 19.120085 0.000000 0.000000 
6.627940 40.725346 0.954239 -18.309708 15.738575 0.000000 0.000000 
6.232559 41.312023 0.705427 -16.807884 18.605576 0.000000 0.000000 
-20.633844 35.787716 -0.612056 -12.184639 18.037193 0.000000 0.000000 
6.229531 41.393589 -0.093029 -21.225594 15.788403 0.000000 0.000000 
7.285725 41.285248 -0.930648 -14.804695 17.796263 1.000000 1.000000 
8.771312 41.304279 3.429389 -12.056961 22.435968 0.000000 0.000000 
8.539700 41.410545 3.448030 -13.676346 20.769243 0.000000 0.000000 
7.423118 41.783607 -0.870341 -10.663521 21.795065 0.000000 0.000000 
7.450459 42.002068 -0.775527 -7.657570 24.452492 0.000000 0.000000 
9.767601 41.603443 3.860951 -14.950462 19.085453 0.000000 0.000000 
10.141291 41.798725 4.963659 -11.190117 20.440645 0.000000 0.000000 
5.191968 42.835636 -0.607527 -8.095230 22.006485 0.000000 0.000000 
5.170844 42.840172 -0.457510 -9.012421 20.475487 0.000000 0.000000 
5.467550 43.118046 -0.580616 -13.358171 19.779238 0.000000 0.000000 
11.823687 41.805584 11.454060 -14.879005 15.704096 0.000000 1.000000 
5.171720 43.585682 -0.412958 -7.602249 20.841780 0.000000 0.000000 
5.126674 43.607452 -0.168743 -18.454361 14.090609 0.000000 0.000000 
5.216373 43.609859 -0.391280 -15.200952 16.420607 0.000000 0.000000 
5.197499 43.633255 -0.506189 -6.393921 21.657478 0.000000 0.000000 
5.299902 43.685169 -0.212739 -12.556938 18.416235 0.000000 0.000000 
5.292939 43.713326 -0.488188 -7.707481 22.169292 0.000000 0.000000 
5.205108 44.082439 -0.414632 -13.215637 17.946953 0.000000 0.000000 
5.694286 44.059303 -0.481976 -17.443565 13.630507 1.000000 1.000000 
5.085700 44.150002 -0.729631 -17.063072 18.068922 0.000000 0.000000 
7.828357 43.766106 2.974812 -6.225945 24.363787 0.000000 0.000000 
7.797823 43.943138 2.926304 -3.598663 26.402014 0.000000 0.000000 
7.447923 44.271088 5.584973 -10.487740 19.809095 0.000000 0.000000 
7.943936 44.464756 3.334233 -9.569069 20.090900 1.000000 1.000000 
5.498494 44.911572 -0.508153 -14.181252 15.322559 1.000000 1.000000 
7.306685 44.745960 6.107428 -14.124863 17.378860 0.000000 0.000000 
7.287785 44.826054 6.287527 -12.419037 19.193199 0.000000 0.000000 
5.651175 45.364189 -1.198182 -20.275673 14.656515 0.000000 0.000000 
5.760317 45.381332 -0.632227 -19.329735 17.079338 0.000000 0.000000 
5.996674 45.508663 -1.158078 -18.920151 13.683146 0.000000 0.000000 
18.714830 41.831921 17.687153 -15.450996 14.860006 0.000000 1.000000 
11.065514 45.033722 18.210762 -22.966324 12.575748 0.000000 0.000000 
11.259694 45.124191 4.717429 -19.160751 15.529985 0.000000 0.000000 
5.797993 46.468140 -4.802688 -22.312729 14.426991 0.000000 0.000000 
9.228773 46.129128 4.627594 -12.880463 19.137871 0.000000 0.000000 
7.171910 46.865646 7.020695 -12.034660 20.276344 0.000000 0.000000 
6.903678 46.954479 11.055539 -14.932648 17.385050 0.000000 0.000000 
7.013994 47.002380 6.010369 -15.269127 15.959579 0.000000 0.000000 
7.402852 47.080761 6.778503 -11.784752 19.913330 0.000000 0.000000 
7.165700 47.208336 5.474290 -13.871208 20.370171 0.000000 0.000000 
7.904923 47.223324 5.344122 -9.486603 22.178328 0.000000 0.000000 
32.911983 33.795498 1.490701 1.723618 17.925694 0.000000 0.000000 
7.313531 47.768795 3.134811 -7.672813 22.101219 0.000000 0.000000 
7.431530 47.916260 3.307833 -4.607758 23.025845 0.000000 0.000000 
35.004375 31.664761 1.249711 15.124016 25.864527 0.000000 0.000000 
7.880969 47.930134 2.983413 -8.160812 21.230301 0.000000 0.000000 
35.130692 31.872746 1.303543 15.698372 25.865381 0.000000 0.000000 
7.951286 48.101215 4.833594 -8.238388 21.854650 0.000000 0.000000 
10.225853 48.059410 4.061057 -11.323479 20.670834 0.000000 0.000000 
8.047592 48.524830 3.404224 -9.847618 18.811501 0.000000 0.000000 
8.345692 48.838638 12.110515 -14.968964 15.945679 0.000000 0.000000 
7.302694 49.076782 3.703300 -11.586746 19.912998 0.000000 0.000000 
7.944975 48.997932 5.187380 -9.117592 21.034966 0.000000 0.000000 
7.589506 49.266689 4.663253 -12.693666 18.263186 0.000000 0.000000 
7.714794 49.274944 5.531002 -7.820251 20.896996 0.000000 0.000000 
9.894384 48.976917 3.954501 -16.566994 17.146557 0.000000 0.000000 
9.683323 49.044304 4.385345 -12.210960 18.265078 0.000000 0.000000 
7.612768 49.462463 -7.873405 -13.654770 18.192350 0.000000 0.000000 
7.676472 49.552834 -7.842991 -21.639618 12.434212 0.000000 0.000000 
9.209680 49.954094 3.879532 -16.463432 17.207714 0.000000 0.000000 
8.952802 50.079647 4.525916 -16.945160 14.801920 0.000000 0.000000 
7.544409 50.356606 5.401337 -15.956924 15.108870 0.000000 0.000000 
7.563885 50.410378 2.629346 -15.629074 15.095026 0.000000 0.000000 
7.858721 50.494316 2.357169 -20.484444 12.337059 0.000000 0.000000 
34.028446 37.030273 11.900239 -4.146416 14.222872 0.000000 0.000000 
7.662277 51.033070 4.989523 -7.777969 20.546509 0.000000 0.000000 
7.649547 51.206680 -6.797062 -10.998955 15.896090 0.000000 0.000000 
7.784747 51.185139 5.421018 -5.548843 21.492872 0.000000 0.000000 
7.722231 51.205597 -6.763885 -5.030365 20.976364 0.000000 0.000000 
7.707494 51.250450 -7.147364 -9.547600 16.885361 0.000000 0.000000 
7.756585 51.890865 -7.097970 -18.685173 10.564682 1.000000 1.000000 
12.443024 51.293648 3.447085 -17.465683 12.064636 0.000000 0.000000 
18.106634 49.618385 0.933731 -12.814407 15.276051 0.000000 0.000000 
12.824446 51.428604 4.406778 -11.387993 18.454601 0.000000 0.000000 
12.755280 51.492664 4.345864 -5.935005 21.516491 0.000000 0.000000 
12.343000 51.628761 3.619787 -11.478456 15.438986 0.000000 0.000000 
12.530317 51.610199 3.601363 -17.762268 12.738140 0.000000 0.000000 
-14.239831 51.454315 7.280087 -14.869186 15.833035 0.000000 0.000000 
6.265065 53.166267 5.502537 -11.895210 18.191771 0.000000 0.000000 
6.638281 53.241795 5.637631 -7.964920 18.440842 0.000000 0.000000 
6.651188 53.454708 5.675210 -2.683044 22.772045 0.000000 0.000000 
7.426143 53.398483 3.547574 -4.698608 20.690994 0.000000 0.000000 
7.192867 53.459705 -7.217873 -9.800903 18.961842 0.000000 0.000000 
7.804270 53.576382 5.160908 -9.487961 18.063137 0.000000 0.000000 
7.343616 53.704952 5.216134 -4.224106 21.898190 0.000000 0.000000 
6.936451 53.935307 4.560109 -3.983521 24.025616 0.000000 0.000000 
7.176137 53.913139 4.989830 -5.416679 24.809683 0.000000 0.000000 
8.274455 53.840466 3.574876 -13.626282 14.500202 1.000000 1.000000 
7.332973 54.166538 4.320278 0.128784 27.432030 0.000000 0.000000 
7.414721 54.270172 3.816601 -4.507744 23.236221 0.000000 0.000000 
6.346627 54.504536 -6.594033 -13.845886 15.681894 0.000000 0.000000 
8.313948 54.551220 3.571882 -8.424545 18.803045 0.000000 0.000000 
8.244444 54.615955 3.947269 -9.535164 19.214352 0.000000 0.000000 
8.186714 54.698387 4.192649 -11.825317 17.682041 0.000000 0.000000 
8.330333 54.706078 3.696038 -6.270493 18.753197 0.000000 0.000000 
9.353344 54.649475 3.954877 -5.903389 23.134518 0.000000 0.000000 
9.030228 54.907707 2.974996 -7.260796 21.188553 0.000000 0.000000 
43.661915 32.934605 1.969137 8.999321 14.167196 1.000000 1.000000 
6.669303 56.028450 -6.451437 -14.781198 14.880810 0.000000 0.000000 
44.106987 33.482033 2.104885 18.683395 22.607567 0.000000 0.000000 
44.578110 32.787529 1.681470 20.162109 24.563301 0.000000 0.000000 
44.295837 33.233803 1.901208 21.783638 25.308563 0.000000 0.000000 
44.969910 32.219269 0.783142 17.413536 23.047131 0.000000 0.000000 
7.828671 56.864594 18.742685 -9.702637 21.788912 0.000000 0.000000 
7.369171 57.319355 1.661526 -5.786133 18.429663 0.000000 0.000000 
5.583933 57.693394 9.384870 -13.886284 14.281704 1.000000 1.000000 
7.247917 57.562557 3.157113 -9.024925 16.575230 0.000000 0.000000 
7.004916 57.855556 5.168316 -7.174858 19.446939 0.000000 0.000000 
7.889196 57.797665 1.114463 -15.042946 14.171408 0.000000 0.000000 
7.357828 57.875706 -8.411834 -8.757721 18.501371 0.000000 0.000000 
8.679124 57.701447 4.112832 -13.221359 16.099182 0.000000 0.000000 
7.653743 58.022179 -6.526160 -5.986649 20.428343 0.000000 0.000000 
6.201005 58.372887 6.349551 -11.623611 16.564457 0.000000 0.000000 
8.019198 58.476906 -7.598916 -10.674538 15.650366 1.000000 1.000000 
5.998431 58.834824 3.012791 -7.479843 20.500340 0.000000 0.000000 
6.081300 58.921947 9.946556 -6.906303 19.069321 0.000000 0.000000 
15.504374 57.180416 0.325658 -15.126266 7.374721 1.000000 1.000000 
6.072805 59.202606 6.726528 -17.837265 13.404305 0.000000 0.000000 
6.811538 59.179203 5.518708 -12.022644 15.675705 0.000000 0.000000 
30.051847 51.361996 2.082243 -5.912338 14.077908 0.000000 0.000000 
8.184811 59.472141 5.675820 -10.355530 15.444534 0.000000 0.000000 
6.413006 60.081913 6.644804 -11.431770 15.439665 0.000000 0.000000 
6.347748 60.108631 5.826982 -11.020935 16.755236 0.000000 0.000000 
6.911404 60.255077 6.777647 -14.429420 13.595583 0.000000 0.000000 
6.453665 60.496868 7.891212 -9.242226 16.357864 0.000000 0.000000 
7.807007 60.330700 7.913939 -12.547914 13.198009 0.000000 0.000000 
7.007040 60.486824 -6.387731 -10.827049 15.125284 0.000000 0.000000 
6.731159 60.600750 6.808679 -11.583076 15.320204 0.000000 0.000000 
6.553615 60.627331 6.925831 -11.848259 13.426414 0.000000 0.000000 
17.270733 58.619419 -0.136927 -19.431122 3.697574 1.000000 1.000000 
7.349012 60.845085 8.025120 -15.984200 12.790237 0.000000 0.000000 
6.008505 61.025425 7.068368 -14.747406 13.980700 0.000000 0.000000 
6.651931 61.177608 7.971107 -11.422340 13.265327 0.000000 0.000000 
-7.574593 61.152618 -1.220635 -0.090126 23.072426 0.000000 0.000000 
-7.661420 61.153065 -1.194299 -0.395393 22.746611 0.000000 0.000000 
-7.618792 61.257629 -1.218720 1.809723 26.569824 0.000000 0.000000 
-7.657388 61.256321 -1.341469 -4.357063 20.312519 0.000000 0.000000 
6.449561 61.790833 7.698270 -8.820351 15.499025 0.000000 0.000000 
-7.715361 61.674332 -0.389004 -14.593246 13.091125 0.000000 0.000000 
-7.604756 61.829014 -0.546308 -13.553833 13.322212 0.000000 0.000000 
-7.795422 62.366302 -1.491616 -14.367081 12.337799 1.000000 1.000000 
27.186747 57.086571 0.827147 -10.300720 12.065716 0.000000 0.000000 
7.943177 64.219231 -0.192355 -10.711493 13.359810 0.000000 0.000000 
8.263875 64.193314 -0.203391 -19.358704 8.508068 0.000000 0.000000 
8.164474 64.236237 0.029659 -11.889153 12.615910 0.000000 0.000000 
15.962475 63.091541 2.639250 -15.774574 10.948856 0.000000 0.000000 
15.577008 63.208534 -0.363966 -13.679085 13.326275 0.000000 0.000000 
-23.751835 60.674892 -6.109077 -10.142281 12.296619 0.000000 0.000000 
-11.592518 64.557892 -0.511669 -6.982384 21.075193 0.000000 0.000000 
26.509092 59.793087 -6.312428 -10.788376 9.392673 1.000000 1.000000 
26.459650 59.824383 -4.865902 -9.610840 11.199223 1.000000 1.000000 
26.784271 60.242847 -5.062968 -0.568481 19.462502 0.000000 0.000000 
8.146739 65.925980 -0.870719 -14.618721 10.249123 1.000000 1.000000 
26.983089 60.350697 -5.636886 -8.476822 13.230045 0.000000 0.000000 
26.966705 60.394695 -4.548674 -2.337250 19.155985 0.000000 0.000000 
8.140068 66.888107 -1.480550 -11.259567 14.262241 0.000000 0.000000 
8.267850 67.172028 -1.933666 -12.728470 13.651108 0.000000 0.000000 
-31.420132 59.667591 17.986958 -5.405113 16.581606 0.000000 0.000000 
8.216421 67.610275 -1.744750 -16.670143 8.766396 1.000000 1.000000 
22.515375 65.076218 1.273989 -14.451126 10.589775 0.000000 1.000000 
13.948169 67.623940 0.472562 -19.398026 9.098633 0.000000 0.000000 
49.637756 46.697739 0.261995 -2.354691 6.575294 0.000000 0.000000 
8.173506 69.028961 4.904081 -8.106010 14.393188 1.000000 1.000000 
43.557568 53.040226 2.891135 -0.387466 13.643366 0.000000 0.000000 
7.940226 69.271309 1.179338 -20.894547 5.731765 1.000000 1.000000 
45.544346 51.778893 3.094385 0.399101 10.659939 0.000000 0.000000 
45.171738 52.135956 2.762440 7.916451 16.486147 0.000000 0.000000 
44.974483 52.350582 -4.827750 3.069153 12.703861 0.000000 0.000000 
8.400950 69.544357 1.584952 -11.764725 13.072163 0.000000 0.000000 
8.345809 69.657944 1.488037 3.457558 24.341066 0.000000 0.000000 
8.365279 69.876106 1.527309 6.048089 27.462978 0.000000 0.000000 
8.327408 69.967567 -4.983538 -14.073944 11.473129 0.000000 0.000000 
8.338267 70.277321 6.103478 -6.946793 17.918388 0.000000 0.000000 
8.538704 70.260681 6.325681 -9.786087 16.107895 0.000000 0.000000 
8.394966 70.524246 1.257034 -18.023888 6.008274 1.000000 1.000000 
46.855263 52.330372 -5.035473 7.374687 18.882574 0.000000 0.000000 
8.363219 70.956299 1.519427 -2.034546 18.519037 1.000000 1.000000 
47.433735 52.353378 -5.269555 5.794465 16.903685 0.000000 0.000000 
47.608856 52.203419 -5.757409 7.015213 17.484596 0.000000 0.000000 
-35.965179 61.507694 3.632144 -5.043373 13.748251 1.000000 1.000000 
47.235752 53.060791 -4.682444 1.305580 11.996807 0.000000 0.000000 
-36.683529 61.789803 3.404157 3.938187 20.515388 0.000000 0.000000 
-36.011726 62.229664 3.560279 1.700874 17.170918 0.000000 0.000000 
-36.380959 62.102539 3.702184 2.831276 19.516199 0.000000 0.000000 
-36.107548 62.297768 3.569456 -1.374695 16.808149 0.000000 0.000000 
9.884604 72.280327 19.129179 -17.002876 9.599621 0.000000 0.000000 
9.718255 72.453133 2.437519 -13.926414 11.720024 0.000000 0.000000 
9.494539 72.555870 2.617125 -6.473053 16.782629 0.000000 0.000000 
9.402781 72.615067 2.497646 -7.480721 16.243517 0.000000 0.000000 
9.452020 72.744293 3.663837 -7.933952 15.044809 0.000000 0.000000 
9.375818 72.795013 3.645769 -4.229080 18.669201 0.000000 0.000000 
-29.205023 67.177307 2.630840 -8.003609 11.776939 0.000000 0.000000 
-29.622385 67.277901 4.118546 -3.110931 18.816013 0.000000 0.000000 
-30.365198 66.937088 4.011447 -1.640358 17.930866 0.000000 0.000000 
-30.252192 67.072052 3.607198 1.159378 19.044350 0.000000 0.000000 
-10.287209 73.228035 3.863908 -5.751808 18.539814 0.000000 0.000000 
-30.970335 66.970955 3.693156 3.093193 21.947086 0.000000 0.000000 
-30.526270 67.194916 4.257499 3.012985 19.905497 0.000000 0.000000 
-10.185220 73.443649 4.183209 -8.786995 15.284565 0.000000 0.000000 
-30.637575 67.275116 3.634577 5.120399 23.674347 0.000000 0.000000 
-29.939541 67.621651 4.643557 4.728851 23.443680 0.000000 0.000000 
-29.787111 68.157158 2.833080 0.316895 20.806145 0.000000 0.000000 
-29.447727 68.587372 20.972576 2.595520 18.311251 0.000000 0.000000 
-30.629570 68.100304 5.593402 -0.099480 18.130859 0.000000 0.000000 
-30.574583 68.150726 5.684775 -0.284081 16.603359 0.000000 0.000000 
-28.709591 69.121819 21.681692 -0.580505 21.361349 0.000000 0.000000 
-28.342672 70.201820 2.718794 -0.860756 18.467043 0.000000 0.000000 
-23.137333 72.303024 4.578908 -13.502258 13.976734 0.000000 0.000000 
-23.210693 72.467361 4.637042 0.421890 20.794165 0.000000 0.000000 
-23.169523 72.523224 5.789676 -1.502373 18.355724 0.000000 0.000000 
-23.208303 72.648232 3.671989 -5.616631 16.378622 0.000000 0.000000 
9.438176 76.285080 3.047084 -8.152817 17.166460 0.000000 0.000000 
-23.400299 73.221039 -7.326777 -7.110176 18.024935 0.000000 0.000000 
-23.109959 73.510056 -6.319691 -10.028397 14.886551 0.000000 0.000000 
-22.297556 73.777061 9.974266 -6.659546 13.814207 1.000000 1.000000 
-22.076559 74.832390 9.766691 -12.720123 11.082062 0.000000 0.000000 
-22.634140 74.704468 10.533745 1.860397 21.236975 0.000000 0.000000 
-22.676460 75.000717 10.454627 -0.018372 18.588245 0.000000 0.000000 
-22.617929 75.059906 11.053926 -3.697540 16.233433 0.000000 0.000000 
55.503399 54.179047 2.770381 2.450096 7.626903 1.000000 1.000000 
25.833557 74.458557 -6.157018 -12.678926 9.013760 0.000000 0.000000 
55.554470 55.001194 1.911005 12.612732 16.766102 0.000000 0.000000 
56.059666 54.454029 2.511756 5.068939 9.908878 0.000000 0.000000 
55.620369 55.077442 1.807089 10.453262 16.777304 0.000000 0.000000 
58.080788 52.791073 4.034625 2.847511 14.674746 0.000000 0.000000 
58.716206 52.588329 -5.492136 14.645393 18.049511 0.000000 0.000000 
59.132610 52.166203 4.007966 8.728752 15.150053 0.000000 0.000000 
58.507328 53.049057 4.775669 2.726067 7.989936 0.000000 0.000000 
59.058212 52.461605 3.767417 15.829155 21.241873 0.000000 0.000000 
-36.739071 71.373741 2.726813 -7.805466 13.016045 1.000000 1.000000 
43.125282 67.517868 2.939521 -5.580139 13.442245 0.000000 0.000000 
59.337399 52.976448 2.736145 7.723938 12.957859 0.000000 0.000000 
-34.965549 73.347237 9.626572 -2.128349 15.058977 0.000000 0.000000 
-36.170494 72.762695 7.261809 -1.554642 15.159346 0.000000 0.000000 
-22.170668 78.480797 6.029890 -6.176796 15.591166 0.000000 0.000000 
-37.127697 72.494194 4.218599 -5.817146 12.091824 0.000000 0.000000 
-33.687275 74.427742 8.394099 -5.585045 12.359821 0.000000 0.000000 
-22.610615 79.070023 5.898325 -7.202805 14.800955 0.000000 0.000000 
-33.344513 75.027908 8.418861 2.040680 17.171356 0.000000 0.000000 
-33.315765 75.097893 7.269245 -3.279999 14.278725 0.000000 0.000000 
-32.585548 75.469650 9.994777 -4.147507 13.013176 0.000000 0.000000 
-32.874283 75.816467 9.569661 -3.356392 16.299292 0.000000 0.000000 
-29.406898 77.591957 10.070588 -1.094994 19.259220 0.000000 0.000000 
-29.844059 77.558014 9.129575 -2.217514 16.793560 0.000000 0.000000 
-29.092785 77.918869 3.385582 -8.427979 13.281193 0.000000 0.000000 
-29.428324 77.816963 2.799993 -4.435249 15.158571 0.000000 0.000000 
-31.696152 77.229958 9.196859 -6.311798 15.990673 0.000000 0.000000 
-29.649401 78.105988 8.598181 -1.322632 17.454187 0.000000 0.000000 
-29.009087 78.466949 7.529219 -3.092720 15.753126 0.000000 0.000000 
-28.932793 78.495743 8.239458 -6.603706 13.882868 0.000000 0.000000 
-29.716381 78.272964 8.528763 3.019820 20.285013 0.000000 0.000000 
-37.825645 74.537422 7.621343 -0.254601 17.604492 0.000000 0.000000 
-39.838287 73.809326 8.022335 -5.549622 10.504753 0.000000 0.000000 
-27.365675 80.179276 5.422800 -9.313065 13.011978 0.000000 0.000000 
-27.632448 80.245422 7.071445 -2.052605 18.204292 0.000000 0.000000 
-29.235134 79.680923 7.853603 -1.848511 17.550171 0.000000 0.000000 
-28.676445 80.129684 7.419000 -1.959648 16.150661 0.000000 0.000000 
-28.752876 80.161339 7.277503 -0.982391 18.848026 0.000000 0.000000 
44.034363 72.656944 2.483051 1.565414 17.192820 0.000000 0.000000 
43.878178 72.790329 2.364580 3.390099 18.061998 0.000000 0.000000 
-33.641327 78.869965 14.030078 -8.117905 10.941940 0.000000 0.000000 
-32.030952 79.926666 9.379863 -4.067451 16.472515 0.000000 0.000000 
-30.999252 80.796921 12.356605 -5.703033 13.284462 0.000000 0.000000 
-31.988251 80.418404 12.126637 -3.809143 16.714367 0.000000 0.000000 
-30.690403 81.239395 9.804873 -4.342728 14.130346 0.000000 0.000000 
52.154854 69.341888 3.707683 9.825150 18.032166 0.000000 0.000000 
51.964832 69.520020 3.949042 9.702080 17.523741 0.000000 1.000000 
-29.925671 82.192543 10.566615 -7.284149 15.446918 0.000000 0.000000 
41.538475 77.740295 10.733155 -3.229393 14.775614 0.000000 0.000000 
41.996094 77.910492 3.740192 -0.639313 16.155991 0.000000 0.000000 
39.716686 79.656235 3.112771 -2.038605 15.605087 0.000000 0.000000 
-33.110435 82.878265 14.366333 -8.388206 12.718849 0.000000 0.000000 
-30.435448 84.247757 12.822150 -11.010216 10.596519 0.000000 0.000000 
21.559149 87.407555 4.815305 -6.581726 13.061214 0.000000 0.000000 
21.675364 87.408798 5.013396 -9.130127 12.221817 0.000000 0.000000 
-33.111008 83.586945 12.740638 -3.561661 13.235188 0.000000 0.000000 
-33.859707 83.391045 12.323864 -6.700890 10.917156 0.000000 0.000000 
-32.151691 84.487572 12.584526 -13.199173 8.293453 0.000000 0.000000 
-32.370781 84.580177 13.477345 -6.946182 12.659946 0.000000 0.000000 
43.702599 79.166412 2.110743 0.632050 17.265736 0.000000 0.000000 
-29.702465 86.284843 12.846942 -9.765816 11.725140 1.000000 1.000000 
-29.553133 86.437668 10.291607 -12.637833 9.851112 0.000000 0.000000 
-30.702530 86.038803 12.109162 -8.533539 11.190376 0.000000 0.000000 
-30.119616 86.329369 12.505969 -8.436882 10.811081 0.000000 0.000000 
12.339690 91.303764 2.873188 -14.171898 7.853775 0.000000 0.000000 
-21.108320 90.333023 6.212981 -14.191925 8.692017 0.000000 0.000000 
-21.527658 90.256844 6.598783 -7.088104 12.592979 0.000000 0.000000 
-21.541559 90.474121 5.804193 -11.636703 10.034451 0.000000 0.000000 
-20.875534 90.754295 5.776441 -10.361862 11.988369 0.000000 0.000000 
-22.630651 90.848679 6.870865 -7.012146 13.249119 0.000000 0.000000 
-22.763950 90.859329 6.086666 -11.986580 9.348160 0.000000 0.000000 
-22.611486 91.051140 5.290649 -9.545174 9.992733 0.000000 0.000000 
-21.348499 91.445114 5.867918 -12.569542 9.893890 0.000000 0.000000 
-22.322388 91.372551 6.168983 -10.020607 11.731968 0.000000 0.000000 
29.338396 91.056320 3.179746 -14.662018 5.721817 0.000000 0.000000 
29.951359 90.881012 2.874717 -14.026886 5.933418 0.000000 0.000000 
12.117347 96.818138 2.129758 -15.011444 4.791728 0.000000 0.000000 
11.875741 97.037674 1.109127 -13.670830 6.412204 0.000000 1.000000 
-14.131773 96.809875 3.956747 -7.972694 10.139462 0.000000 0.000000 
-14.459209 96.945160 4.349189 -8.782150 10.640366 0.000000 0.000000 
-14.244108 96.991692 3.582244 -9.285980 10.934669 0.000000 0.000000 
-15.399700 97.162781 3.308971 -4.224075 14.430376 0.000000 0.000000 
-14.640227 97.301392 3.691752 -7.933205 12.953835 0.000000 0.000000 
-15.489820 97.194542 3.501231 -4.377930 14.688866 0.000000 0.000000 
-15.421046 97.226418 3.636493 1.745186 19.132574 0.000000 0.000000 
-15.193675 97.385506 3.716982 3.018486 19.449965 0.000000 0.000000 
-22.408188 96.248322 9.521785 -12.770157 7.761058 0.000000 0.000000 
-22.567160 96.628586 -2.620844 -13.023674 7.565872 0.000000 0.000000 
-30.103254 95.866234 10.188962 -12.734985 6.296363 0.000000 0.000000 
-30.872131 95.866135 8.736666 -9.006935 9.071041 0.000000 0.000000 
-32.242172 95.969284 12.809420 -7.142319 8.567760 0.000000 0.000000 
-30.713783 96.989380 10.162471 -12.366852 6.487098 0.000000 0.000000 
-32.750523 96.692047 12.859686 -9.219505 8.164871 0.000000 0.000000 
-31.609482 97.167343 12.318045 -8.304184 8.603176 0.000000 0.000000 
-32.517544 96.877007 11.362572 -5.289055 11.654945 0.000000 0.000000 
-33.348766 96.666939 15.093383 -3.889595 11.245274 0.000000 0.000000 
-32.487656 97.072289 12.546412 -4.930695 9.895184 0.000000 0.000000 
-31.905190 97.953407 11.835828 -5.503426 10.176460 0.000000 0.000000 
-30.935879 98.306808 11.064264 -5.678421 12.061295 0.000000 0.000000 
-31.174553 99.012154 10.214558 -6.668755 11.111374 0.000000 0.000000 
-30.995739 99.118500 9.301006 -7.347450 8.944653 0.000000 0.000000 
-31.865931 98.895645 10.346650 -9.294266 7.161323 0.000000 0.000000 
-32.138790 99.723106 11.055772 -2.786995 11.465233 0.000000 0.000000 
-31.267185 100.031853 11.558934 -11.502481 6.782100 0.000000 0.000000 
-32.965572 99.833633 11.591709 -7.510712 7.145401 0.000000 0.000000 
33.823784 100.524307 3.285790 -10.674240 7.045341 0.000000 0.000000 
-31.446465 103.592598 12.502299 -7.365807 7.619697 0.000000 0.000000 
-34.156185 103.034225 13.253835 -9.473206 6.013713 0.000000 0.000000 
52.177711 97.405090 4.286904 -7.948059 5.953212 0.000000 0.000000 
52.107124 97.497131 5.361647 -5.875526 8.624954 0.000000 0.000000 
51.711037 97.750916 5.888908 -1.512947 10.491508 0.000000 0.000000 
51.365723 97.969620 5.446917 -5.128220 9.098137 0.000000 0.000000 
50.938499 98.603882 6.654930 -4.175583 9.008347 0.000000 0.000000 
50.354687 98.952408 6.478746 -7.423378 8.722614 0.000000 0.000000 
-23.203081 109.383293 5.051706 -12.705255 7.087329 0.000000 1.000000 
51.757561 99.169815 3.747571 -5.052933 7.255008 1.000000 1.000000 
47.609425 101.323997 4.079580 -4.967529 7.847190 0.000000 0.000000 
45.315090 102.625305 2.774744 -6.276024 8.253155 0.000000 0.000000 
-38.826233 106.132751 0.146225 -8.323997 7.008007 0.000000 0.000000 
37.048119 108.452248 4.192391 -4.334099 8.365360 0.000000 0.000000 
37.239990 108.476158 3.996847 -6.428719 7.491916 0.000000 0.000000 
35.610870 109.671898 0.232047 -11.144836 4.786460 0.000000 0.000000 
33.633759 110.593216 1.406953 -14.120621 4.441417 0.000000 0.000000 
-7.196394 116.410713 -5.041505 -11.604507 8.368759 0.000000 1.000000 
-32.933998 112.997261 8.812832 -7.142242 9.967602 0.000000 0.000000 
-23.053886 115.732224 4.553761 -7.429863 7.704151 0.000000 0.000000 
-23.285404 115.689468 4.814286 -9.377098 6.238063 0.000000 0.000000 
48.578548 107.865639 -0.382338 -4.129074 8.238487 0.000000 1.000000 
48.687561 107.878128 0.556102 -6.584564 5.593387 0.000000 0.000000 
-33.242794 114.796120 0.469006 -11.471954 5.389823 0.000000 0.000000 
42.456024 111.663742 1.614196 -5.461792 7.631153 0.000000 0.000000 
-23.066803 117.535027 9.760761 -10.041702 5.306209 1.000000 1.000000 
-22.837328 117.828011 5.558555 -4.759705 11.728352 0.000000 0.000000 
-22.476198 117.962898 5.742604 -4.099754 11.522285 0.000000 0.000000 
-23.110699 117.970276 8.706885 1.266998 14.495667 0.000000 0.000000 
-23.467255 118.100014 7.281592 -8.693962 7.687099 0.000000 0.000000 
-23.085903 118.217979 9.617935 2.137489 15.718403 0.000000 0.000000 
-32.066395 117.102760 12.576216 -11.676933 5.536380 0.000000 0.000000 
-23.289579 119.234200 9.937556 -5.318893 9.993397 1.000000 1.000000 
-32.052830 117.696030 11.591274 -12.776085 5.272499 0.000000 0.000000 
-22.459589 120.356598 4.501172 -10.816811 7.640815 0.000000 0.000000 
-22.524542 120.419189 5.464342 -12.670403 5.918609 0.000000 0.000000 
-21.983727 120.532112 5.781927 -13.796394 4.973884 0.000000 0.000000 
51.359989 111.137657 1.511469 -10.397438 3.106384 1.000000 1.000000 
-7.347258 123.248779 -5.234375 -9.861046 7.512878 0.000000 1.000000 
-7.303626 123.363617 -5.701247 -10.305893 7.116127 0.000000 1.000000 
-31.112179 119.890862 12.325990 -9.186806 7.750515 0.000000 0.000000 
-34.495403 120.287712 11.638197 -6.691811 9.292233 0.000000 0.000000 
-31.475483 121.459457 11.982172 -7.035545 8.467522 0.000000 0.000000 
-34.896889 120.602516 13.227408 -7.077904 7.632602 0.000000 0.000000 
-31.314676 122.073524 11.032662 -9.524658 8.688095 0.000000 0.000000 
37.775360 120.634247 2.065385 -12.672615 4.656253 0.000000 0.000000 
36.846142 121.371254 1.332496 -6.793457 6.021430 0.000000 0.000000 
-34.685997 122.147057 12.429342 -2.232811 9.551434 0.000000 0.000000 
-33.900249 122.425278 12.836676 1.098412 11.317898 0.000000 0.000000 
-33.006569 123.517281 11.884635 -8.238823 6.863487 0.000000 0.000000 
-33.317924 123.762062 13.636789 -6.846252 7.006267 0.000000 0.000000 
-21.797689 126.859856 5.682527 -8.836601 7.610294 0.000000 0.000000 
-22.400698 126.754158 5.087966 -2.859924 11.256901 0.000000 0.000000 
-21.435438 127.351768 4.389623 -5.419785 9.734192 0.000000 0.000000 
-21.044649 127.658936 4.448330 -2.479431 13.481256 0.000000 0.000000 
-20.991770 127.675056 3.825307 -5.095413 8.853405 0.000000 0.000000 
-21.343256 127.939461 5.170074 -8.739914 5.788063 0.000000 0.000000 
-21.653240 128.059601 4.657869 -11.372261 4.548877 1.000000 1.000000 
-21.316347 128.391693 1.730462 -2.131271 13.381855 0.000000 0.000000 
-21.581348 128.377686 4.290844 4.044228 15.069887 0.000000 0.000000 
-21.621233 128.460007 5.532191 1.155022 13.449772 0.000000 0.000000 
-21.777775 128.474579 5.201505 0.043877 12.489311 0.000000 0.000000 
-21.418140 128.588257 -3.391605 9.218750 19.961082 1.000000 1.000000 
-23.548763 128.702728 4.234238 -7.012573 7.283348 0.000000 0.000000 
-21.361816 129.570404 -3.729658 11.423248 22.968349 0.000000 0.000000 
-22.182196 129.635284 -9.451178 -5.641861 8.400620 0.000000 0.000000 
-21.578300 129.852295 -2.890785 13.869423 24.320105 0.000000 0.000000 
6.352378 131.653229 -2.420800 -5.700882 11.526485 0.000000 1.000000 
-21.399698 130.050629 2.340618 -2.526543 12.950336 0.000000 0.000000 
-21.474945 130.282745 -3.338586 6.837037 17.785669 1.000000 1.000000 
-21.444162 130.335938 0.780016 -3.628349 9.088036 1.000000 1.000000 
-23.400726 130.485199 0.545901 -8.650307 7.722728 0.000000 0.000000 
-22.024405 130.840729 -1.455238 12.865440 23.280638 1.000000 1.000000 
-22.065422 131.417374 -1.664171 16.168892 24.949818 0.000000 0.000000 
-22.037989 131.426361 -1.624614 19.776405 28.282467 0.000000 0.000000 
-22.016504 131.573898 -1.534809 18.324120 27.763031 0.000000 0.000000 
-20.519487 132.141327 -8.143026 3.944038 20.805998 0.000000 0.000000 
-21.845692 131.959717 -9.765992 7.824685 19.424269 0.000000 0.000000 
-19.887377 132.392853 4.049575 5.841034 19.823956 0.000000 0.000000 
-19.771088 132.564453 4.552422 9.113731 21.259922 0.000000 0.000000 
-19.544773 132.660278 3.213558 9.905258 20.504263 0.000000 0.000000 
-21.743502 132.441284 4.657697 -7.992363 7.240673 1.000000 1.000000 
-19.124500 132.950653 -10.126089 5.416901 18.351921 0.000000 0.000000 
-19.341009 133.338165 -8.753493 2.762978 15.010319 0.000000 0.000000 
-20.205034 133.278473 -8.974283 5.429626 17.054638 0.000000 0.000000 
-22.030617 133.570190 4.934391 -6.174751 8.379311 0.000000 0.000000 
-19.583216 133.965607 -9.880751 4.057786 15.337555 1.000000 1.000000 
-21.704252 133.755859 5.026882 -1.427094 12.484764 0.000000 0.000000 
-20.285839 134.057617 -9.715834 -2.894394 12.971626 0.000000 0.000000 
-8.190928 135.396759 -6.327242 -7.717529 10.621178 0.000000 1.000000 
42.665596 128.974213 3.085147 -7.911072 6.475360 0.000000 0.000000 
6.273429 136.162048 -6.590534 -11.634544 7.664665 0.000000 0.000000 
7.068871 136.194336 -5.675527 3.047119 17.768713 0.000000 0.000000 
7.125248 136.277435 -5.373965 2.384032 18.038342 0.000000 0.000000 
41.432671 130.326935 2.354849 -6.942451 5.728549 0.000000 0.000000 
40.132481 130.759308 2.982337 -6.907288 7.784633 0.000000 0.000000 
40.362679 131.589569 3.384147 -0.903114 10.624695 0.000000 0.000000 
40.116207 131.758377 3.009263 0.638702 10.749664 0.000000 0.000000 
40.697693 131.588348 3.888274 -3.205124 9.972130 0.000000 0.000000 
-22.787323 135.971344 -1.571114 -11.397583 3.111248 1.000000 1.000000 
-22.808794 136.704193 -2.670481 -7.723579 5.519840 0.000000 0.000000 
-22.385262 136.819733 -0.969907 -5.602119 7.519992 0.000000 0.000000 
-22.473982 136.837341 -2.187912 -1.103943 9.601181 0.000000 0.000000 
-22.897844 136.777496 -3.040802 -7.015106 6.376235 0.000000 0.000000 
-22.878325 137.203308 -1.150131 -9.193466 4.555431 0.000000 0.000000 
-23.025570 137.470673 -2.277718 -11.886925 3.706504 1.000000 1.000000 
-22.544968 137.575836 -1.744421 -7.246590 6.722385 0.000000 0.000000 
-24.198275 138.875061 1.260139 -9.421028 6.124195 0.000000 0.000000 
-23.103626 139.545410 -2.149064 -1.356430 8.592663 0.000000 0.000000 
-23.403957 139.568695 -1.398797 -2.151985 8.213844 0.000000 0.000000 
-21.901827 140.000488 -1.870587 -1.497658 10.623600 0.000000 0.000000 
-22.841841 139.894745 -2.567212 1.626923 12.126389 0.000000 0.000000 
-23.220516 140.054688 1.577403 -4.950478 6.099655 0.000000 0.000000 
-23.498117 140.127380 2.070308 -0.687355 9.261040 0.000000 0.000000 
-22.663574 140.599487 -2.545173 -5.338409 7.020130 1.000000 1.000000 
-24.103092 140.449097 1.980984 -7.091309 6.845932 0.000000 0.000000 
-23.206461 140.608246 4.453698 0.089188 10.778912 0.000000 0.000000 
-23.046408 140.639465 3.356027 7.344650 16.790051 0.000000 0.000000 
-23.542139 140.994934 3.344646 1.040459 11.434830 0.000000 0.000000 
-24.022177 141.157776 1.659850 -5.680878 7.334682 0.000000 0.000000 
-24.516203 141.156555 4.704025 -9.587372 5.528682 0.000000 0.000000 
-24.015955 141.325012 -6.599721 -9.906799 5.140041 0.000000 0.000000 
42.426300 139.363373 -0.495128 -7.156837 2.758544 0.000000 0.000000 
-23.933847 145.237244 3.656625 -7.222252 5.411312 0.000000 0.000000 
-23.606949 145.414703 5.558869 -5.810448 7.676895 0.000000 0.000000 
-23.741251 145.406250 5.212142 -1.808006 9.137348 0.000000 0.000000 
-22.935736 145.938995 2.035079 -9.118828 4.639987 0.000000 0.000000 
-23.570698 146.143127 7.204772 -7.824814 6.254112 1.000000 1.000000 
43.202965 141.573578 0.985977 -8.406715 5.263610 0.000000 1.000000 
-23.603443 146.802246 3.823484 -8.291420 5.062606 0.000000 0.000000 
-23.726120 146.947235 4.545915 4.609620 13.247158 0.000000 0.000000 
-23.649017 146.970490 4.088345 2.178574 11.169407 0.000000 0.000000 
-23.703335 147.102814 4.067266 3.824974 13.519602 0.000000 0.000000 
-24.015104 147.502625 -1.758613 11.489471 20.790318 0.000000 0.000000 
-24.421116 147.450043 -1.493006 9.670792 19.225969 0.000000 0.000000 
-23.022852 147.718445 0.117980 3.601654 13.228256 0.000000 0.000000 
-24.680264 148.147766 -0.662505 3.258026 13.022346 1.000000 1.000000 
-22.432934 149.120331 0.150921 -2.172264 8.815605 1.000000 1.000000 
-33.998867 149.420013 12.535872 -3.344696 8.831188 0.000000 0.000000 
-23.004848 151.604858 -3.855557 -10.551857 5.717159 0.000000 0.000000 
-23.418686 152.433655 -0.454247 -10.561378 4.957248 0.000000 0.000000 
-22.906796 152.860443 -0.104414 -11.682121 3.057685 0.000000 0.000000 
-24.767473 152.677063 -0.684767 0.046982 10.906200 0.000000 0.000000 
-23.719854 152.953918 4.598524 -8.031235 4.818389 0.000000 0.000000 
-25.133890 152.778229 6.060805 0.948547 9.497169 0.000000 0.000000 
-23.847933 153.070221 4.918989 4.778512 13.772778 0.000000 0.000000 
-26.193859 152.823364 -0.227209 -9.034805 4.355632 0.000000 0.000000 
-24.012539 153.514557 0.440001 -3.905235 7.460586 1.000000 1.000000 
-23.582203 153.580872 3.536277 -7.930183 4.337459 0.000000 0.000000 
-23.003654 153.773743 0.488988 -2.107002 7.914135 0.000000 0.000000 
-23.579697 153.786682 6.212823 0.880562 9.768559 0.000000 0.000000 
-26.866325 153.738953 -4.480850 -9.123619 4.581146 0.000000 0.000000 
-25.889462 153.926239 -2.477708 -5.278595 4.955017 0.000000 0.000000 
-23.697924 154.381592 4.397407 0.044586 9.584442 1.000000 1.000000 
-24.133743 154.475098 1.346949 -2.933723 8.496784 0.000000 0.000000 
-23.334587 154.647461 4.479872 -4.753624 7.766593 0.000000 0.000000 
-23.071684 154.767456 -1.678043 -9.753609 5.847946 0.000000 0.000000 
-22.689545 154.858490 -0.992572 -9.326576 6.305683 0.000000 0.000000 
-25.347830 155.178864 -3.205379 -10.042168 5.033138 0.000000 0.000000 
-32.255249 154.572052 9.921591 2.575264 12.095112 0.000000 0.000000 
-32.144230 154.607178 8.928610 -0.212830 11.390686 0.000000 0.000000 
-32.084023 154.759155 11.264824 -1.003677 10.794407 0.000000 0.000000 
-33.013088 155.008667 10.463697 -6.232224 7.265949 0.000000 0.000000 
-31.877951 155.285095 9.243442 -2.098999 8.079647 0.000000 0.000000 
-26.236826 156.710419 -3.107625 -7.713455 4.680816 1.000000 1.000000 
-31.548092 155.760284 11.311170 -4.315483 7.735828 0.000000 0.000000 
-25.621962 157.307343 -2.715070 -2.917114 6.838256 0.000000 0.000000 
-25.412716 157.376221 -2.147596 -0.386177 8.831127 0.000000 0.000000 
-26.283123 157.278870 -4.249212 3.622147 11.908646 0.000000 0.000000 
-26.080780 157.606476 0.508147 -3.846596 7.462020 0.000000 0.000000 
-25.930786 158.079712 -2.422589 1.170700 11.114098 0.000000 0.000000 
-25.458904 158.179779 -1.421498 0.893105 11.815350 0.000000 0.000000 
-31.650425 157.104248 11.700092 -1.188354 10.466057 0.000000 0.000000 
-24.976734 158.878693 0.461501 -5.061310 6.458442 0.000000 0.000000 
-23.281643 159.307098 5.400055 -2.068306 7.307350 0.000000 0.000000 
-24.895645 159.060455 2.460513 -4.113113 6.948707 0.000000 0.000000 
-25.210302 159.038574 -2.497231 -0.454681 9.251499 0.000000 0.000000 
-24.863016 159.173248 -3.461521 0.751732 12.095032 0.000000 0.000000 
-24.710087 159.244873 2.776771 -0.397942 9.382427 0.000000 0.000000 
-25.166864 159.232361 -2.174067 3.892944 13.615198 1.000000 1.000000 
-24.440031 159.585449 3.762780 -4.317062 6.035266 0.000000 0.000000 
-25.491503 159.743408 0.294218 5.165833 12.692974 0.000000 0.000000 
-24.982578 159.839752 0.413634 11.573296 18.356728 0.000000 0.000000 
-25.615704 159.826324 -0.494828 -4.758293 8.766617 0.000000 0.000000 
-25.496790 159.880066 -1.486540 7.765748 16.586931 0.000000 0.000000 
-24.232119 160.594147 3.974260 -0.625801 8.196404 0.000000 0.000000 
-24.193911 160.725067 2.969575 4.570366 11.704643 0.000000 0.000000 
-24.868107 160.620117 -5.373145 -7.980171 4.570545 1.000000 1.000000 
-24.425821 160.723694 -4.310488 -4.801476 6.146972 0.000000 0.000000 
-23.599333 161.032532 -4.522617 -2.342880 6.853473 0.000000 0.000000 
-25.850689 160.912109 2.638191 -3.306694 7.098667 1.000000 1.000000 
-22.260714 161.670654 0.313404 -8.651047 4.691768 0.000000 0.000000 
-25.078947 161.312195 -4.284399 -1.154190 11.925735 0.000000 0.000000 
-26.544199 161.129456 1.947678 -1.099197 10.684090 0.000000 0.000000 
-24.019222 161.600098 -1.770338 -11.600990 4.123039 1.000000 1.000000 
-22.091738 161.907898 -1.516118 -4.786926 7.524433 0.000000 0.000000 
-25.674986 161.981720 -7.235401 -5.664124 6.153774 0.000000 0.000000 
-24.469477 162.230988 -3.880950 -8.188698 6.060527 0.000000 0.000000 
-24.572203 162.236542 -6.306122 -4.444023 6.704315 0.000000 0.000000 
-24.842232 163.056763 -1.145314 -10.119385 2.716243 0.000000 0.000000 
-23.435873 163.747955 -4.172956 -9.774857 5.398841 0.000000 0.000000 
-26.767277 164.417053 -3.068454 -6.339310 3.291576 0.000000 0.000000 
-25.046989 164.852448 -0.910458 -2.652596 5.745658 0.000000 0.000000 
-25.287159 165.778534 -3.845588 -6.738266 4.659282 0.000000 0.000000 
-25.518379 165.791595 -3.774398 -6.331413 5.127365 0.000000 0.000000 
-24.299934 166.149628 -6.964154 -7.545700 5.586433 0.000000 0.000000 
-25.222048 166.209686 6.479111 -6.789619 3.572910 0.000000 0.000000 
-26.942291 166.387665 -3.310499 -6.901436 4.397750 0.000000 0.000000 
-25.580719 166.758087 -1.895174 -0.215866 8.231701 0.000000 0.000000 
-23.629787 167.664856 8.342541 -0.786278 11.122646 0.000000 0.000000 
-23.982315 167.714386 6.209592 -5.913536 7.337280 0.000000 0.000000 
-23.978745 167.778503 6.976769 -2.067703 7.575046 0.000000 0.000000 
-22.742081 168.027771 -2.389289 -5.913292 4.855648 0.000000 0.000000 
-23.354553 168.688110 -1.478054 -9.154678 3.728969 0.000000 0.000000 
-24.458454 168.530273 -2.225183 -7.218781 4.209453 0.000000 0.000000 
-25.071383 168.588348 -2.958223 -5.820267 3.902938 0.000000 0.000000 
-23.788855 168.775787 -2.758111 -2.737564 5.758319 1.000000 1.000000 
-24.117001 168.743256 -2.633763 -6.340439 4.887680 0.000000 0.000000 
-25.693539 168.744812 -1.877243 -4.274841 5.528984 0.000000 0.000000 
-26.281538 168.684143 -2.741022 -9.959122 3.854190 0.000000 0.000000 
-24.610468 169.253967 -2.821987 -8.386841 4.894073 0.000000 0.000000 
-24.289408 169.783905 -3.753078 -5.287216 6.654968 0.000000 0.000000 
-24.524179 169.995087 -2.503881 4.590516 11.839706 0.000000 0.000000 
-24.943851 170.032257 4.992459 -0.790535 8.196667 0.000000 0.000000 
-24.988941 170.098145 -0.226995 -6.393661 3.257587 0.000000 0.000000 
-23.853390 170.688507 6.708690 -6.049736 6.262996 0.000000 0.000000 
-24.661594 170.643280 5.467287 0.858391 7.386089 0.000000 0.000000 
-24.379370 170.880920 4.189249 -1.985832 5.497516 0.000000 0.000000 
-24.399591 171.039734 5.881536 -4.115639 6.308036 0.000000 0.000000 
-25.304440 171.353790 -3.773616 -3.285057 7.092254 0.000000 0.000000 
-25.055813 171.478577 3.755985 -2.490196 7.034770 0.000000 0.000000 
-26.019323 171.377777 2.527313 -4.026741 5.484260 0.000000 0.000000 
-23.484653 172.062561 7.176178 -0.038139 9.534069 0.000000 0.000000 
-25.643164 172.192780 4.755112 -1.036461 8.563316 0.000000 0.000000 
-27.527559 171.931702 7.306643 -3.228043 8.541893 0.000000 0.000000 
-24.047253 172.699188 4.566295 -6.947624 3.160820 1.000000 1.000000 
-23.276245 172.921600 0.625651 -0.202660 8.663372 0.000000 0.000000 
-26.488678 172.586761 -2.237232 -8.280533 4.052524 1.000000 1.000000 
-25.794487 172.728455 -3.704743 -5.425270 6.320236 0.000000 0.000000 
-23.264204 173.407074 6.121170 -4.921204 5.511009 0.000000 0.000000 
-25.399990 173.263184 0.298297 -4.739815 5.203609 0.000000 0.000000 
-25.932434 173.235352 -0.238043 -5.411163 5.609642 0.000000 0.000000 
-25.680012 173.436798 -0.115972 -5.227043 6.885150 0.000000 0.000000 
-23.354374 173.902313 4.883243 -3.796547 4.854595 0.000000 0.000000 
-27.846077 173.229218 -4.894336 -6.721497 5.985038 0.000000 0.000000 
-25.964157 173.738617 0.520619 -6.843491 3.535713 0.000000 0.000000 
-25.538261 173.960327 7.300771 -6.060349 3.797760 0.000000 0.000000 
-23.951321 174.612122 -4.810643 -1.721649 7.796825 0.000000 0.000000 
-25.160061 174.570679 0.173576 -5.468460 5.001262 0.000000 0.000000 
-23.037304 175.437103 1.303269 -9.735420 2.128818 1.000000 1.000000 
-25.580748 175.290771 -2.546762 -4.833679 4.735000 0.000000 0.000000 
-24.327511 175.475983 -0.799092 -3.805458 5.171501 0.000000 0.000000 
-25.114567 175.700104 -2.899824 -7.113770 3.853775 0.000000 0.000000 
-25.968142 175.594696 -4.343260 -6.816879 4.086669 0.000000 0.000000 
-25.577349 175.671906 -4.507497 -4.095116 5.721237 0.000000 0.000000 
-26.024246 175.743713 -4.695877 -7.252525 2.788780 0.000000 0.000000 
-25.140495 176.222198 -2.373695 -7.835007 3.007873 0.000000 0.000000 
-24.798630 176.959381 -1.057812 -5.403587 4.142513 0.000000 0.000000 
-25.197187 177.152466 -2.694397 -4.124710 5.613788 1.000000 1.000000 
-25.782927 177.634216 -1.913940 -6.432861 4.044597 0.000000 0.000000 
-25.777067 177.650696 -2.993501 5.572929 12.751694 0.000000 0.000000 
-25.162308 177.888641 -2.063037 1.621796 10.101742 0.000000 0.000000 
-26.420269 178.762573 -3.466947 -4.852692 3.661155 1.000000 1.000000 
-24.177528 179.915161 -4.651883 1.038048 8.364166 1.000000 1.000000 
-23.511196 180.312805 -2.046316 -8.290573 4.498214 0.000000 0.000000 
-24.770109 180.577698 -3.138058 6.233880 12.789074 0.000000 0.000000 
-25.152651 180.531708 -2.408350 4.681160 13.040535 0.000000 0.000000 
-24.797796 180.597504 -3.780686 5.398247 12.624146 0.000000 0.000000 
-24.924484 180.757568 -3.217638 -1.576515 6.783180 0.000000 0.000000 
-24.528887 181.037109 -1.683967 -6.429344 4.927356 0.000000 0.000000 
-25.012810 181.178680 5.526607 -2.002083 5.036438 0.000000 0.000000 
-24.417427 181.629272 -3.577857 -8.289139 4.311954 0.000000 0.000000 
-25.103455 181.551666 -3.224408 -6.547661 5.300983 0.000000 0.000000 
-26.399685 181.417908 -4.066018 -4.248856 5.555652 0.000000 0.000000 
-24.583807 181.754181 -2.382786 -4.933479 4.106765 0.000000 0.000000 
-25.889435 181.753601 -1.896676 -0.517639 6.857162 0.000000 0.000000 
-24.974960 182.295197 -3.325167 -4.625595 5.153995 0.000000 0.000000 
-26.033659 182.248230 -3.199076 -8.430901 2.792507 0.000000 0.000000 
-25.246569 184.404755 2.522209 -7.328979 3.171215 0.000000 0.000000 
-24.502838 185.526733 -3.815172 -1.227173 5.851581 0.000000 0.000000 
-26.573084 185.501740 -6.410897 -4.104774 5.049869 1.000000 1.000000 
-25.624710 186.243378 -4.696221 -3.338234 5.059764 0.000000 0.000000 
-27.324535 186.334076 4.726458 -5.527199 4.776653 0.000000 0.000000 
-27.447578 186.617706 2.240523 -1.715637 7.580581 0.000000 0.000000 
-26.295309 186.972717 4.992426 -1.855904 6.292671 0.000000 0.000000 
-25.866413 187.449493 4.886818 -7.120811 2.885448 0.000000 0.000000 
-24.963205 192.342682 -2.398064 -6.691147 4.074340 0.000000 0.000000 
-25.317112 192.343445 -3.064632 -9.540787 3.686752 0.000000 0.000000 
-25.667564 192.311188 -3.082517 -3.174103 5.713985 0.000000 0.000000 
-31.084539 198.017090 10.654478 -6.614883 4.004158 0.000000 0.000000 
-30.462961 198.630768 -3.361427 -2.529045 5.972042 0.000000 0.000000 
-30.157791 198.790924 -3.218153 4.773277 8.697292 0.000000 0.000000 
-30.613438 198.757294 11.947185 -1.067673 5.329078 0.000000 0.000000 
-29.108540 199.597382 4.463580 0.123611 6.314189 0.000000 0.000000 
-28.602646 199.765961 4.685031 -3.697289 4.830486 0.000000 0.000000 
-35.450172 199.367218 15.767342 -3.609924 4.224437 0.000000 0.000000 
-34.303818 205.083313 16.359024 -0.281708 4.604061 0.000000 0.000000 
-32.102013 205.599182 -3.526615 -2.782402 4.501705 0.000000 0.000000 
-29.227512 217.960968 7.036738 -1.022049 5.057235 0.000000 0.000000 
-35.098537 248.031952 -2.061579 1.383163 4.539505 0.000000 0.000000 
-35.499672 248.057007 -2.803131 -2.083931 3.575199 0.000000 0.000000 
-34.106674 250.300995 -0.306291 -1.758217 3.222476 0.000000 0.000000 
